<svg width="148" height="142" viewBox="0 0 148 142" fill="none" xmlns="http://www.w3.org/2000/svg">
<path d="M36.3757 40.1582C28.4457 40.3682 20.2657 41.9082 13.7757 46.7282C7.31568 51.5282 2.76568 59.0282 2.17568 67.1182C1.77568 72.7782 3.63568 77.9782 6.25568 82.8982C8.44568 87.0182 10.4857 91.3182 8.83568 96.0282C8.43568 97.1682 7.89568 98.2282 7.27568 99.2382C5.20568 102.618 2.29568 105.508 1.20568 109.478C-0.35432 115.128 0.72568 121.298 3.91568 126.198C7.83568 132.218 14.4057 135.898 21.0157 138.288C21.5357 138.478 22.0657 138.658 22.5957 138.838C30.1657 141.338 38.2957 141.938 46.1257 140.358C53.5557 138.858 59.5957 135.128 65.9157 131.118C70.3657 128.288 75.8057 126.778 81.1557 126.878C85.8857 126.968 89.7957 129.058 94.1157 130.688C111.866 137.398 133.566 128.258 137.556 108.858C139.606 98.8882 136.886 88.5082 127.376 83.7082C121.416 80.6982 112.566 80.6882 108.316 74.8782C104.346 69.4482 106.296 61.6582 109.906 56.5882C114.336 50.3782 115.206 43.8382 112.126 36.7182C107.186 25.3182 87.7857 21.7382 76.2157 24.2882C64.6457 26.8382 58.6757 38.0582 51.1857 39.5882C46.1557 40.6182 41.4557 40.0282 36.3757 40.1582Z" fill="#F8E16C"/>
<path d="M131.836 86.7682C137.706 92.1882 139.246 100.658 137.556 108.848C133.566 128.248 111.866 137.388 94.1157 130.678C89.7957 129.048 85.8857 126.958 81.1557 126.868C75.7957 126.768 70.3657 128.278 65.9157 131.108C59.5957 135.118 53.5557 138.848 46.1257 140.348C42.6557 141.048 39.1357 141.318 35.6257 141.188V134.058H55.4557V118.398H75.6957V102.058H94.0757V86.7682H131.836Z" fill="#F6BA81"/>
<path d="M54.6957 133.268L55.4457 118.398L55.8457 133.658H61.4357H61.7957L61.0757 134.098L54.6957 134.058V133.268Z" fill="#325343"/>
<path d="M133.586 118.638L75.9956 117.188L75.6956 103.338V102.208C75.6956 102.208 75.6456 101.938 75.5556 102.558C75.4556 103.178 74.9756 118.408 74.9756 118.408L132.846 118.958L133.386 118.938L133.586 118.638Z" fill="#325343"/>
<path d="M94.1357 87.0782L94.4857 101.298L138.186 102.148L138.196 102.368L93.8257 102.148L94.0357 87.5982C94.0457 87.5882 93.9957 86.1482 94.1357 87.0782Z" fill="#325343"/>
<path d="M7.41739 99.0009C7.20901 99.276 7.26316 99.668 7.53834 99.8764C7.81352 100.085 8.20553 100.031 8.41391 99.7555L7.41739 99.0009ZM25.1457 94.2882L24.9544 94.8832L24.9546 94.8832L25.1457 94.2882ZM39.7157 99.6482L39.5624 100.254L39.5624 100.254L39.7157 99.6482ZM55.4757 99.9982L55.603 100.61L55.6032 100.61L55.4757 99.9982ZM82.3057 81.0582L82.8008 81.4396L82.8011 81.4391L82.3057 81.0582ZM90.4957 60.5182L91.0802 60.7394L91.0803 60.7392L90.4957 60.5182ZM105.486 40.6982L105.858 41.1999L105.859 41.1997L105.486 40.6982ZM118.126 33.0782L117.773 32.5625L117.772 32.5626L118.126 33.0782ZM122.266 5.86816L121.768 6.24627L121.769 6.24703L122.266 5.86816ZM117.036 1.76816L116.833 2.35941L116.836 2.36025L117.036 1.76816ZM110.696 2.82816L110.274 2.36721L110.272 2.36891L110.696 2.82816ZM108.496 8.62817L109.12 8.66358L109.12 8.66349L108.496 8.62817ZM110.736 19.3982L111.294 19.1167L111.294 19.1166L110.736 19.3982ZM118.646 27.6282L118.357 28.1823L118.357 28.1826L118.646 27.6282ZM130.876 29.6382V29.0132H130.848L130.82 29.0156L130.876 29.6382ZM147.45 22.8137C147.689 22.5653 147.682 22.1696 147.434 21.93C147.185 21.6904 146.79 21.6976 146.55 21.946L147.45 22.8137ZM8.41391 99.7555C12.4151 94.4716 18.7366 92.8846 24.9544 94.8832L25.3369 93.6931C18.6747 91.5517 11.7762 93.2448 7.41739 99.0009L8.41391 99.7555ZM24.9546 94.8832C27.3849 95.6637 29.7426 96.6734 32.1561 97.6627C34.5579 98.6472 37.0059 99.6073 39.5624 100.254L39.8689 99.0423C37.4054 98.419 35.0284 97.4891 32.6302 96.5061C30.2437 95.5279 27.8264 94.4926 25.3368 93.6931L24.9546 94.8832ZM39.5624 100.254C44.7931 101.577 50.3191 101.71 55.603 100.61L55.3483 99.3863C50.2522 100.447 44.9182 100.319 39.8689 99.0422L39.5624 100.254ZM55.6032 100.61C66.8429 98.2663 76.0492 90.2035 82.8008 81.4396L81.8105 80.6767C75.1421 89.3328 66.1684 97.13 55.3481 99.3863L55.6032 100.61ZM82.8011 81.4391C85.1953 78.3256 86.6119 74.849 87.7565 71.3145C88.9151 67.7366 89.7686 64.2055 91.0802 60.7394L89.9111 60.297C88.5927 63.7809 87.6812 67.4897 86.5673 70.9294C85.4394 74.4123 84.076 77.7307 81.8102 80.6772L82.8011 81.4391ZM91.0803 60.7392C94.0176 52.9721 99.1936 46.1492 105.858 41.1999L105.113 40.1964C98.2578 45.2871 92.9337 52.3042 89.9111 60.2971L91.0803 60.7392ZM105.859 41.1997C108.452 39.2723 110.23 38.3096 112.042 37.3635C113.869 36.4099 115.745 35.4672 118.479 33.5938L117.772 32.5626C115.107 34.3891 113.292 35.3014 111.464 36.2553C109.622 37.2167 107.78 38.214 105.113 40.1966L105.859 41.1997ZM118.479 33.5938C127.546 27.3833 129.38 14.1718 122.763 5.4893L121.769 6.24703C127.971 14.3846 126.225 26.773 117.773 32.5625L118.479 33.5938ZM122.763 5.49006C121.363 3.64722 119.53 1.95142 117.236 1.17608L116.836 2.36025C118.802 3.02491 120.448 4.50911 121.768 6.24627L122.763 5.49006ZM117.238 1.17692C114.947 0.391559 112.141 0.657179 110.274 2.36721L111.118 3.28912C112.57 1.95915 114.865 1.68477 116.833 2.3594L117.238 1.17692ZM110.272 2.36891C108.528 3.97881 107.994 6.42827 107.872 8.59285L109.12 8.66349C109.237 6.58806 109.744 4.55752 111.12 3.28742L110.272 2.36891ZM107.872 8.59275C107.655 12.4021 108.458 16.2714 110.178 19.6797L111.294 19.1166C109.673 15.9049 108.916 12.2543 109.12 8.66358L107.872 8.59275ZM110.178 19.6796C111.969 23.231 114.796 26.3242 118.357 28.1823L118.935 27.0741C115.635 25.3521 112.983 22.4653 111.294 19.1167L110.178 19.6796ZM118.357 28.1826C122.207 30.1854 126.687 30.6372 130.931 30.2607L130.82 29.0156C126.724 29.3791 122.504 28.931 118.934 27.0737L118.357 28.1826ZM130.876 30.2632C135.6 30.2632 139.748 28.3865 142.692 26.5384C144.168 25.6119 145.352 24.6856 146.169 23.9898C146.578 23.6416 146.895 23.3506 147.112 23.1452C147.22 23.0425 147.303 22.9611 147.36 22.9047C147.388 22.8765 147.41 22.8545 147.425 22.8392C147.433 22.8316 147.438 22.8256 147.443 22.8213C147.445 22.8192 147.446 22.8175 147.447 22.8162C147.448 22.8156 147.449 22.8151 147.449 22.8147C147.449 22.8144 147.449 22.8142 147.45 22.8141C147.45 22.8139 147.45 22.8137 147 22.3799C146.55 21.946 146.55 21.9459 146.55 21.9458C146.55 21.9458 146.55 21.9458 146.55 21.9458C146.55 21.9458 146.55 21.9459 146.55 21.9462C146.549 21.9467 146.549 21.9476 146.547 21.949C146.545 21.9517 146.54 21.9561 146.534 21.9622C146.522 21.9743 146.504 21.9931 146.479 22.0181C146.428 22.068 146.352 22.1426 146.251 22.2383C146.049 22.4299 145.749 22.7059 145.358 23.0382C144.578 23.7033 143.442 24.5916 142.027 25.4797C139.19 27.2607 135.276 29.0132 130.876 29.0132V30.2632Z" fill="#325343"/>
<path d="M26.0856 112.438C26.0856 112.438 24.7256 114.058 23.1056 114.648C21.4856 115.248 20.2156 115.838 20.3856 117.028C20.5556 118.218 21.8156 123.628 23.2256 126.238C24.6356 128.858 25.9156 131.148 27.1956 131.068C28.4756 130.978 27.7056 124.428 28.3856 122.808C29.0656 121.188 30.0856 120.338 30.6856 119.828C31.2856 119.318 33.7456 118.378 33.7456 118.378L30.5956 111.828L28.2956 110.528L26.0856 112.438Z" fill="#FFF5EE"/>
<path d="M69.3457 108.698C69.3457 108.698 69.2357 114.398 68.9757 115.418C68.7157 116.438 68.8057 117.798 70.0857 117.968C71.3657 118.138 79.1957 118.058 81.6557 117.708C84.1257 117.368 86.1657 116.688 86.8457 115.578C87.5257 114.468 86.9357 113.538 84.9757 113.198C83.0157 112.858 79.3557 113.538 78.5957 112.428C77.8257 111.318 77.4857 109.108 77.5757 108.338C77.6657 107.568 77.3157 105.868 77.3157 105.868L75.7857 105.188L73.7457 105.278L69.3457 108.698Z" fill="#FFF5EE"/>
<path d="M41.1457 84.0982C41.1457 84.0982 38.5057 90.9082 35.4457 98.2282C32.3857 105.548 25.7557 112.798 25.7557 112.798C25.7557 112.798 27.0257 115.418 28.0457 116.868C29.0657 118.318 30.6857 119.848 30.6857 119.848C30.6857 119.848 35.9657 117.298 41.4957 113.378C47.0257 109.458 49.6657 104.908 51.7957 100.718C53.9257 96.5282 56.8157 87.6782 56.8157 87.6782V86.7682C56.8157 86.7682 67.5357 92.5282 68.1357 96.2782C68.7357 100.018 69.3557 108.708 69.3557 108.708C69.3557 108.708 72.1357 109.138 74.3457 109.218C76.5557 109.308 77.6157 109.308 77.6157 109.308C77.6157 109.308 79.4557 97.2182 79.5457 91.2582C79.6357 85.2982 78.8657 81.8982 74.9957 78.0682C71.1257 74.2382 63.5457 68.0282 63.5457 68.0282L61.8057 66.4982C61.8057 66.4982 53.1657 72.6282 48.8257 73.0482C44.4857 73.4682 38.5957 71.1682 38.5957 71.1682C38.5957 71.1682 36.7257 79.3382 41.1457 84.0982Z" fill="#A0CFCE"/>
<path d="M38.9357 38.8281C38.7057 38.9481 28.1457 41.8081 25.7557 45.1281C23.3657 48.4481 21.7457 52.3581 20.8957 55.5981C20.0457 58.8281 18.9357 62.6581 21.4057 62.4881C23.8757 62.3181 25.3157 58.4881 27.7857 55.7681C30.2557 53.0481 31.3557 52.0281 33.1457 51.5981C34.9357 51.1681 40.5457 49.9681 40.5457 49.9681L44.5457 49.1281C44.5457 49.1281 45.6557 44.7881 45.2257 43.2581C44.8057 41.7181 42.9357 36.7781 38.9357 38.8281Z" fill="#FFF5EE"/>
<path d="M67.1057 43.3382C67.0157 43.7682 66.6757 50.4182 66.6757 50.4182L67.1057 53.4682C67.1057 53.4682 72.7257 54.9982 77.0657 55.2582C81.4057 55.5182 84.5757 55.2582 87.5057 53.2182C90.4257 51.1782 92.6457 47.3482 90.9457 45.9882C89.2457 44.6282 86.0957 47.4382 83.7157 47.8582C81.3357 48.2882 76.9957 47.0882 76.4857 46.8382C75.9757 46.5782 66.6957 42.6682 66.6957 42.6682L67.1057 43.3382Z" fill="#FFF5EE"/>
<path d="M37.5758 37.7182C37.5758 37.7182 43.4458 35.4182 46.3458 34.8282C49.2358 34.2282 52.4758 34.5682 54.3458 34.8282C56.2158 35.0882 58.2558 37.1282 59.9658 36.8682C61.6658 36.6082 63.1958 37.4682 64.0558 37.7182C64.9058 37.9782 68.4858 43.3382 68.9058 46.5682C69.3358 49.7982 68.0558 53.2881 67.8858 55.2481C67.7158 57.2081 67.3758 64.2682 67.3758 64.2682L68.0758 71.8181L61.9258 67.2781C61.9258 67.2781 53.7658 73.9581 47.4658 73.6481C41.1658 73.3481 38.0058 70.8181 38.0058 70.8181C38.0058 70.8181 37.3258 70.3882 38.0058 69.1982C38.6858 68.0082 40.6458 63.6681 41.6658 60.0881C42.6858 56.5181 42.4358 52.2582 42.4358 52.2582L42.1758 50.3982H40.3858C40.3858 50.4182 36.0458 42.6582 37.5758 37.7182Z" fill="#4B7B3F"/>
<path d="M33.2257 102.088C32.8657 102.898 31.6457 104.768 31.2457 105.438C29.8657 107.728 28.7357 108.738 26.9257 110.708C25.6257 112.118 23.5257 113.108 22.4457 114.618C22.5557 114.638 22.6557 114.608 22.7657 114.568C26.5157 113.318 29.6357 109.928 31.8457 106.718C32.9857 105.058 33.8157 103.898 34.6057 102.048C34.9857 101.168 35.3257 100.268 35.6357 99.3582C35.7357 99.0582 37.0757 94.2682 37.0757 94.2682C36.0957 95.7082 33.9757 100.388 33.2257 102.088Z" fill="#325343"/>
<path d="M20.3657 117.468C20.3657 117.468 20.9757 122.488 21.8257 125.378C22.6757 128.268 25.2257 132.098 26.6757 131.758C28.1257 131.418 27.9657 128.518 27.9657 128.518C27.9657 128.518 27.0157 130.998 25.3157 129.038C23.6157 127.078 20.8657 119.928 20.3657 117.468Z" fill="#325343"/>
<path d="M28.3856 122.828C28.3856 122.828 28.1256 120.788 31.1056 118.398C34.0856 116.008 38.4256 114.728 43.7856 110.058C49.1456 105.388 53.1156 97.7781 53.1156 97.7781L54.7056 93.6981C54.7056 93.6981 45.5756 88.0081 44.3856 87.1581C43.1956 86.3081 40.6456 84.6681 39.1156 80.7181C37.5756 76.7681 38.3156 73.0881 38.3156 73.0881C38.3156 73.0881 37.8556 78.5581 41.5456 81.6281C45.2356 84.6881 50.0056 84.8581 50.3456 84.8581C50.6856 84.8581 54.4956 84.9481 58.2556 85.6281C62.0056 86.3081 67.6256 92.2681 68.8156 94.6481C70.0056 97.0281 69.5856 108.688 69.8356 108.608C70.0856 108.528 75.5956 109.558 77.6156 109.298L77.7556 110.058C77.7556 110.058 74.3556 110.148 71.9656 109.968C69.5856 109.798 68.1356 109.538 68.1356 109.538C68.1356 109.538 68.8156 102.478 67.7056 98.8181C66.5956 95.1581 65.4956 93.1981 63.5356 91.8381C61.5756 90.4781 57.9156 89.3681 57.9156 89.3681C57.9156 89.3681 56.9756 94.8181 53.7456 100.598C50.5156 106.388 47.2756 109.878 44.0456 112.598C40.8156 115.318 31.1956 120.688 31.1956 120.688C31.1956 120.688 27.9656 123.578 27.9656 125.458L28.3856 122.828Z" fill="#325343"/>
<path d="M37.4857 71.3382C37.4857 71.3382 42.2557 74.3982 46.3357 74.5682C50.4157 74.7382 58.4657 70.3982 59.3957 69.4582C60.3357 68.5182 61.5857 67.4382 61.9057 67.2782C62.6657 66.8982 65.3057 66.9882 65.3057 66.9882C65.3057 66.9882 62.9457 66.3282 60.4757 67.0082C58.0057 67.6882 53.5657 70.8982 53.3057 71.0682C53.0457 71.2382 48.6257 74.0482 46.1557 73.1982C43.6857 72.3482 40.1157 70.6482 40.1157 70.6482C40.1157 70.6482 38.5857 70.1382 38.8357 69.3682C39.0957 68.5982 39.7757 66.3982 40.4557 64.3582C41.1357 62.3182 42.1757 57.5382 42.1757 57.5382C42.1757 57.5382 39.6057 64.6082 38.9257 66.0482C38.2457 67.4882 37.2357 69.3582 37.2357 69.3582C37.2357 69.3582 36.8957 70.9782 37.4857 71.3382Z" fill="#325343"/>
<path d="M21.4257 53.7982C21.4257 53.7982 19.1957 60.7082 20.5557 61.5482C21.9157 62.3882 23.2757 62.7982 24.1257 60.6782C24.9757 58.5682 28.4657 53.6282 29.7457 52.6882C31.0257 51.7482 34.5257 50.4482 36.2657 49.9482C38.0057 49.4482 38.9357 48.9782 38.9357 48.9782C38.9357 48.9782 37.5257 45.3482 37.4257 42.1282C37.4257 42.1282 39.3657 47.4882 40.1257 48.5982C40.8957 49.7082 42.1657 50.3982 42.1657 50.3982C42.1657 50.3982 45.0557 50.6082 47.2757 49.9482C49.4957 49.2882 53.0657 47.4982 53.9957 46.3882C54.9357 45.2782 55.3557 45.1082 55.3557 45.1082C55.3557 45.1082 54.7757 48.4982 52.6457 49.9482C50.5057 51.3982 44.0657 52.9382 42.4557 53.2782C42.4557 53.2782 41.9157 53.0182 41.6657 52.8482C41.4057 52.6782 39.5357 50.3982 39.5357 50.3982C39.5357 50.3982 35.3657 51.4082 35.0257 51.4882C34.6857 51.5782 30.9357 53.0182 29.7457 54.7182C28.5557 56.4182 24.8957 61.3582 24.5557 61.8682C24.2157 62.3782 22.7657 64.5082 20.6457 63.3982C18.5257 62.2882 19.3157 58.8282 21.4257 53.7982Z" fill="#325343"/>
<path d="M68.8356 49.9581C68.7456 50.1581 66.4257 55.0781 66.2557 57.5481C66.0857 60.0181 67.8557 69.6281 67.8557 69.6281C67.8557 69.6281 67.0156 61.2881 67.6956 58.4881C68.3756 55.6781 68.8857 54.3981 68.9757 54.6581C69.0557 54.9181 72.4656 56.2781 77.7356 56.3581C83.0056 56.4381 85.9956 55.1481 87.9456 53.7981C89.9056 52.4481 92.2857 51.5881 92.1157 48.9981C91.9457 46.4081 90.9257 45.9781 90.9257 45.9781C90.9257 45.9781 92.2257 48.2781 89.4957 50.6981C87.5557 52.4281 85.9856 54.1481 82.2356 54.5681C78.4956 54.9981 71.5956 52.9381 71.5956 52.9381L69.7257 51.8481C69.7257 51.8481 70.5857 48.3681 69.7257 45.9781C68.8657 43.5881 65.2957 39.0481 65.2957 39.0481C65.2957 39.0481 70.0756 46.9881 68.8356 49.9581Z" fill="#325343"/>
<path d="M39.0757 37.2082C38.5757 35.0682 38.9557 32.6282 40.1257 30.7682C41.2957 28.9082 42.4456 27.6582 44.5956 27.1882C44.8856 27.1282 45.3557 26.8682 45.4457 26.5882C45.5557 26.2782 45.3657 26.0182 45.1257 25.7982C39.9257 21.0782 41.1957 12.6982 45.4857 7.62816C47.6557 5.06816 50.7056 3.61816 53.9556 2.94816C56.9756 2.31816 60.1456 2.34816 63.0956 3.24816C65.3156 3.91816 67.1756 4.85816 68.8056 6.51816C70.6456 8.39816 71.6356 10.9782 72.3756 13.4982C73.5456 17.4382 73.8657 21.7082 72.6256 25.6682C71.3956 29.5882 67.9956 32.7582 64.0456 33.8782C63.8056 33.9482 63.5456 34.0082 63.3456 34.1682C63.1656 34.2982 63.0456 34.4982 62.9556 34.6982C62.5556 35.5782 62.6957 36.6882 63.3257 37.4282C59.5757 38.3382 55.8157 36.2982 51.9957 35.6882C47.7857 35.0382 43.3057 35.4382 39.0757 37.2082Z" fill="#325343"/>
<path d="M45.4457 35.4982C45.3657 35.2082 44.8257 32.5382 49.4857 28.5082L50.6257 29.8282C46.8357 33.1082 47.0957 35.3482 47.1057 35.3682L45.4457 35.4982Z" fill="#9BD58B"/>
<path d="M42.6557 22.5482C42.6557 22.4082 42.3157 19.9582 44.6757 17.3482C46.2457 15.6082 48.5657 15.1082 51.5057 14.4782C53.0857 14.1382 54.8757 13.7482 56.8757 13.1082C62.0157 11.4582 63.8357 3.59819 63.8557 3.51819L65.3857 4.15819C65.3157 4.51819 63.5357 12.8082 57.4157 14.7682C55.3357 15.4382 53.4957 15.8382 51.8857 16.1882C49.1557 16.7782 47.1757 17.2082 45.9857 18.5282C44.0857 20.6282 43.6757 24.1482 43.6757 24.1782L42.6557 22.5482Z" fill="#9BD58B"/>
<path d="M52.8557 8.0782C56.3957 5.8082 57.8457 2.5282 57.8457 2.5282L59.7057 2.5982C59.7057 2.5982 57.8457 7.0582 53.7757 9.5682C51.5557 10.9382 48.8357 11.2582 46.7657 11.2582C45.0057 11.2582 43.4657 10.9382 43.3457 10.9182C43.3457 10.9182 44.0357 9.4882 44.3857 9.0982C44.3957 9.0982 50.0457 9.8782 52.8557 8.0782Z" fill="#9BD58B"/>
<path d="M52.3357 24.6382C52.3357 24.6382 54.8257 31.0182 61.8457 31.2782C68.1957 31.5082 70.0757 28.5782 71.5657 25.9382C73.0557 23.2982 72.9457 18.7582 72.6257 15.5982C72.6257 15.5982 71.7557 11.6282 70.5857 10.1482C70.5857 10.1482 68.4757 17.1382 61.9657 20.1082C56.4857 22.5982 53.2757 23.1882 52.3357 24.6382Z" fill="#FFF5EE"/>
<path d="M65.1558 20.3581C65.8516 20.3581 66.4157 19.7358 66.4157 18.9681C66.4157 18.2004 65.8516 17.5781 65.1558 17.5781C64.4599 17.5781 63.8958 18.2004 63.8958 18.9681C63.8958 19.7358 64.4599 20.3581 65.1558 20.3581Z" fill="#325343"/>
<path d="M68.8656 109.378C68.8656 109.378 68.3856 114.398 68.2556 115.338C68.1256 116.278 67.9356 118.618 69.3456 118.958C70.7656 119.298 74.1656 118.748 75.6956 118.958C77.2256 119.168 81.4356 118.358 83.0156 118.068C84.5856 117.768 86.3356 116.368 86.8456 115.598C87.3556 114.828 87.1156 114.628 87.1156 114.628C87.1156 114.628 85.8656 116.108 84.7556 116.658C83.6456 117.208 81.0956 117.638 79.9056 117.808C78.7156 117.978 72.0356 117.678 71.0156 117.428C69.9956 117.168 68.9756 117.468 68.9756 116.448C68.9756 115.428 69.1956 113.088 69.1956 113.088L69.3456 108.998L68.8656 109.378Z" fill="#325343"/>
<path d="M123.066 56.2281C119.956 57.1781 116.186 58.5281 114.616 61.6481C111.646 67.5281 118.456 71.9881 123.526 72.4981C127.006 72.8481 130.826 71.6881 133.326 69.1981C135.506 67.0281 136.606 63.6781 135.686 60.7481C134.006 55.4581 127.626 54.8381 123.066 56.2281Z" fill="#F8E16C"/>
</svg>
