<svg width="161" height="123" viewBox="0 0 161 123" fill="none" xmlns="http://www.w3.org/2000/svg">
<path d="M28.9013 65.4216C23.7041 66.7246 18.2107 68.2201 13.8797 71.5294C9.70422 74.7203 6.49854 79.2142 4.80316 84.1818C2.31561 91.4964 2.98192 99.4921 7.56463 105.785C11.6883 111.441 18.0923 115.506 25.1551 115.994C32.4031 116.498 39.5474 115.328 46.7509 114.765C57.782 113.899 68.9389 117.231 79.4666 120.155C87.1884 122.295 95.8874 122.591 103.861 122.398C115.181 122.124 126.841 120.392 137.013 115.165C148.052 109.494 156.61 99.5069 159.335 87.2765C159.542 86.3511 159.72 85.4256 159.868 84.4928C161.289 75.7568 159.394 66.6209 154.981 58.988C151.221 52.473 145.705 47.8015 139.072 44.3663C133.386 41.4123 126.967 38.7323 123.628 32.9428C120.415 27.3754 119.882 20.6605 116.217 15.3005C104.105 -2.44552 74.2176 -3.68189 57.1305 6.89759C51.5039 10.3846 46.8398 15.5818 44.5595 21.8007C42.679 26.9238 42.5014 32.5208 43.4712 37.8587C44.3892 42.9522 47.3506 48.2086 46.2105 53.4873C44.6039 60.9203 37.5855 63.2894 31.0631 64.8885C30.3449 65.0662 29.6268 65.2439 28.9013 65.4216Z" fill="#9BD58B"/>
<path d="M4.32299 35.2751C-0.652103 39.9689 -1.38504 48.6457 4.47846 52.9471C7.52127 55.1829 11.5931 56.4193 15.3393 56.7598C15.3393 56.7598 30.4645 57.7667 33.3592 48.3199C34.9879 43.0043 30.3238 37.6146 26.3037 34.8309C20.7068 30.9515 13.407 29.8558 7.26955 33.1577C6.17385 33.7426 5.18919 34.4533 4.32299 35.2751Z" fill="#9BD58B"/>
<path d="M62.3357 24.1701C59.6927 28.2494 60.0925 34.8754 60.5589 39.5396C60.7884 41.8198 61.8397 43.841 63.2611 45.603C63.883 46.3729 64.268 47.1577 65.2379 47.5649C66.7482 48.1942 66.874 49.7045 69.3986 48.9493C71.9157 48.1942 82.3768 50.2079 84.0129 52.7325C85.6491 55.2496 89.3064 66.3399 89.3064 66.3399L90.4391 72.6402L93.5929 79.9474C93.5929 79.9474 95.355 83.1013 95.4808 83.4788C95.6067 83.8564 97.8721 86.6327 97.8721 86.6327L103.795 93.6882C103.795 93.6882 106.312 93.6882 107.2 92.1779C108.081 90.6676 108.333 90.0383 109.592 90.7934C110.85 91.5486 114.885 91.0451 117.276 88.528C119.668 86.0108 120.556 82.1018 120.556 82.1018C120.556 82.1018 125.598 83.1087 129.507 76.0532C133.379 69.057 132.668 67.0137 132.661 66.984C132.676 67.0285 134.038 65.3923 134.119 65.2442C135.444 62.7197 134.674 59.9138 133.586 57.4558C133.053 56.2565 132.18 55.0719 131.787 53.8282C131.336 52.3993 132.024 51.2074 132.461 49.8007C134.556 43.108 132.69 33.876 126.101 30.3075C123.073 28.6714 120.682 29.0489 118.668 27.9162C116.655 26.7835 116.151 26.0284 115.137 23.5038C113.034 18.2474 108.281 14.442 102.892 12.9317C100.175 12.1692 97.2872 11.9767 94.4962 12.4357C91.061 12.9983 88.7807 14.8122 86.2562 17.122C82.3916 20.6609 80.4297 19.3727 75.8247 19.0617C70.4721 18.6916 64.9195 20.1871 62.3357 24.1701Z" fill="#325343"/>
<path d="M100.175 91.9999V90.8894C100.094 90.8894 100.042 90.9116 100.042 90.9116C100.486 90.7265 103.152 88.5425 104.736 87.2395C105.98 86.2178 106.676 85.8551 107.231 85.5589C107.845 85.2406 108.29 85.0037 109.304 83.8932C111.769 81.1983 115.575 75.779 114.212 72.5733C113.613 71.1593 112.857 70.0858 112.125 69.0419C110.925 67.3243 109.785 65.7104 109.541 62.9563C109.496 62.4233 109.459 61.9272 109.422 61.4682C109.193 58.2477 109.074 56.6338 105.898 54.3831C102.241 51.7994 100.109 53.3911 98.0433 54.9384C95.7482 56.6634 91.891 58.4476 88.4632 58.5439C85.1095 58.6327 84.2581 57.6555 84.1174 57.4556L85.0281 56.8189C85.0355 56.8189 85.724 57.5074 88.4336 57.4334C91.6023 57.3371 95.2892 55.6121 97.3769 54.05C99.5387 52.436 102.219 50.4223 106.535 53.4725C110.148 56.0267 110.288 58.0404 110.525 61.3794C110.555 61.8384 110.592 62.327 110.636 62.8527C110.851 65.3106 111.858 66.7395 113.02 68.3978C113.783 69.4861 114.575 70.6188 115.219 72.1365C117.122 76.623 111.295 83.3379 110.111 84.6335C108.963 85.8921 108.415 86.1734 107.734 86.5362C107.194 86.8175 106.587 87.1359 105.424 88.0909C100.916 91.8148 100.553 91.9999 100.175 91.9999Z" fill="#F8E16C"/>
<path d="M121.548 82.2123L120.956 82.1753L120.564 82.0865C120.593 82.0569 123.229 78.7327 122.874 73.0469C122.622 68.9972 120.134 66.2283 117.943 63.7778C117.018 62.7413 116.144 61.7715 115.581 60.8164C114.5 59.0026 114.5 57.0925 114.5 55.0714C114.5 53.5537 114.5 51.9916 114.019 50.3924C113.072 47.2238 109.318 40.7606 103.714 41.0493C98.5386 41.3085 94.178 42.5744 91.7497 44.5215C91.3351 44.8547 90.9205 45.1878 90.5059 45.5358C88.5218 47.1646 86.4711 48.8525 84.0575 49.8964C81.5108 50.9995 80.9333 51.999 80.9259 52.0064L80.7852 52.2655L80.4891 52.3025L77.1428 52.5987L72.9376 50.9181L72.8932 50.5923C72.8562 50.311 72.0492 43.6479 74.7441 38.4507C77.4463 33.2461 80.3558 31.7284 82.873 30.7216C84.0798 30.2403 85.4864 30.0405 86.8486 29.8406C88.2479 29.6407 89.6915 29.4334 90.8983 28.9299C91.8608 28.5227 92.7121 27.8638 93.6154 27.1605C94.911 26.1537 96.3842 25.0061 98.5164 24.3694C102.277 23.2515 106.512 26.8644 107.645 28.5598C108.615 30.0182 109.488 31.188 111.11 31.9579C111.428 32.106 111.961 32.3059 112.635 32.5576C115.626 33.6681 121.193 35.7337 122.903 39.3095C124.251 42.1376 124.066 45.1582 123.903 47.8235C123.821 49.1487 123.74 50.4072 123.895 51.3697C124.177 53.0947 125.198 54.0423 126.753 55.4712C127.59 56.2411 128.537 57.1147 129.537 58.2845C132.431 61.6678 133.09 61.8751 132.987 66.6577L132.394 69.4858C132.483 65.0808 131.491 62.2749 128.693 59.01C127.738 57.8921 126.812 57.0407 125.998 56.293C124.399 54.8197 123.14 53.6574 122.8 51.5548C122.622 50.4665 122.703 49.1561 122.792 47.7642C122.948 45.2323 123.125 42.3671 121.904 39.7982C120.394 36.6221 115.093 34.6602 112.25 33.6089C111.546 33.3498 110.991 33.1425 110.636 32.9722C108.763 32.0838 107.756 30.729 106.727 29.1891C105.794 27.7898 101.959 24.5175 98.8422 25.4429C96.9099 26.0204 95.5847 27.0495 94.3039 28.0415C93.3414 28.7893 92.4382 29.4926 91.3425 29.959C90.0099 30.5217 88.4922 30.7364 87.0189 30.9511C85.6641 31.1436 84.3759 31.3286 83.295 31.758C80.9629 32.6909 78.2607 34.0975 75.7361 38.969C73.5225 43.2333 73.8408 48.7563 73.9667 50.1333L77.313 51.4733L80.1337 51.2216C80.4891 50.7626 81.4145 49.8372 83.6282 48.8821C85.8936 47.8975 87.8851 46.2687 89.81 44.6844C90.232 44.3439 90.6466 43.9959 91.0612 43.6627C93.7116 41.5454 98.1907 40.2276 103.669 39.9536C109.37 39.6723 113.782 45.7061 115.1 50.0815C115.626 51.8361 115.626 53.4797 115.626 55.0788C115.626 56.9445 115.633 58.7065 116.551 60.2612C117.062 61.12 117.899 62.0528 118.787 63.0449C120.986 65.4954 123.718 68.553 123.999 72.9803C124.369 79.2213 121.689 82.0865 121.548 82.2123Z" fill="#F8E16C"/>
<path d="M81.6223 105.845C81.6223 105.845 74.7519 108.555 71.9164 110.946C69.0809 113.337 68.385 113.752 66.4009 116.698C66.4009 116.698 76.8915 119.141 79.4753 120.148C82.0591 121.155 89.2552 122.636 98.4429 122.443C107.631 122.251 116.507 121.385 116.507 121.385C116.507 121.385 124.658 120.341 127.997 118.83C127.997 118.83 122.704 111.457 116.907 107.488C111.11 103.52 105.321 99.9295 105.321 99.9295C105.321 99.9295 98.8871 96.524 94.3562 97.5975C89.8179 98.671 86.4789 101.817 85.8497 102.321C85.213 102.824 81.6223 105.845 81.6223 105.845Z" fill="#4B7B3F"/>
<path d="M67.7719 46.2996C67.5942 46.0331 63.3964 39.7624 65.425 32.2331C66.417 28.561 68.2013 25.9402 70.7258 24.4373C73.2282 22.9493 76.0415 23.201 78.7585 23.4379L79.2546 23.4823C82.7638 23.7784 85.5993 21.6611 88.3386 19.6177C89.0049 19.1217 89.6934 18.6035 90.3819 18.1296C94.2317 15.494 99.3844 14.6352 104.167 15.8346C108.654 16.9599 111.289 19.8324 114.073 22.8752C114.917 23.7932 114.843 24.0153 115.776 24.926L117.042 26.7472C116.087 25.8144 114.11 24.5558 113.251 23.623C110.578 20.706 108.061 17.952 103.893 16.9081C99.4141 15.7828 94.6018 16.5823 91.0112 19.0477C90.3449 19.5067 89.6638 20.0175 89.0049 20.5061C86.1027 22.6753 83.0895 24.926 79.1583 24.5928L78.6549 24.5484C76.1081 24.3263 73.4799 24.0968 71.2885 25.3998C69.0156 26.7472 67.4017 29.1459 66.4911 32.5293C64.5958 39.5699 68.6381 45.6185 68.6825 45.6777L67.7719 46.2996Z" fill="#F8E16C"/>
<path d="M64.2606 45.8915C64.2606 45.8915 60.3886 53.828 58.6858 59.3139C56.9831 64.7924 55.4728 70.9373 55.0952 72.6401C54.7176 74.3428 53.6811 77.9335 55.3765 78.3111C57.0793 78.6887 59.9814 79.5993 59.9814 79.5993L60.4775 83.0345C60.4775 83.0345 63.2167 94.0952 64.4457 95.7905C65.6747 97.4933 65.2971 97.3971 66.9036 97.6784C68.5102 97.9597 76.1653 96.2644 76.1653 96.257C77.9273 95.8646 78.949 97.6488 79.6079 98.974C80.2224 100.203 80.7332 101.499 81.0812 102.831C81.5476 104.63 82.0288 106.326 80.8146 107.917C80.4519 108.391 80.0447 108.85 79.7782 109.383C79.4302 110.064 79.2377 111.353 80.2298 111.567C82.0288 111.945 95.4438 107.599 99.797 105.615C104.143 103.631 106.416 101.55 105.846 100.699C105.276 99.8476 103.958 98.1448 103.765 95.6869C103.573 93.229 103.573 93.229 103.573 93.229C103.573 93.229 100.167 89.5421 99.3232 88.2169C98.4718 86.8916 96.6802 84.7817 96.6802 84.7817C96.6802 84.7817 87.5147 92.9698 84.583 93.6658C81.6512 94.3617 72.6709 95.9682 71.5382 95.9682C70.4054 95.9682 68.7027 84.9075 68.7027 84.9075L66.5261 74.8907L63.9719 71.9293L71.0569 50.5113L70.6794 43.9814C70.6794 43.9814 68.599 44.3664 67.37 44.8402C66.1411 45.3141 65.4896 44.6626 64.2606 45.8915Z" fill="#F6BA81"/>
<path d="M69.9753 44.3072C69.8421 44.4035 64.7337 53.295 62.9051 58.5292C61.0764 63.756 58.1817 76.401 58.1817 76.4232C57.8486 78.4888 63.2234 79.7029 64.4968 80.0435C64.7115 80.1027 64.9336 80.1619 65.1039 80.3026C65.748 80.8283 65.6443 82.4792 65.7628 83.2344C66.2514 86.2698 66.8511 89.283 67.3693 92.311C67.6507 93.9397 67.969 96.4272 70.0864 96.5235C72.8035 96.6493 75.4095 97.5007 82.7907 94.0804C90.1719 90.66 92.5336 89.0905 95.3617 86.3216C98.1972 83.5527 100.655 79.3254 100.655 79.3254C100.655 79.3254 104.69 78.2519 106.955 75.6681C109.221 73.0843 110.361 67.5391 109.036 63.756C107.711 59.9728 104.497 58.0257 100.655 59.2177C96.8127 60.417 95.6134 64.0669 95.0507 65.2663C94.4807 66.4656 95.0507 67.28 94.1697 67.7834C93.2887 68.2869 91.9635 68.4794 91.8376 67.5317C91.7118 66.5841 92.689 61.957 90.9714 60.2246C89.2538 58.4922 87.6177 57.8925 86.9218 57.5815C86.2258 57.2632 85.5966 52.3547 85.5966 52.3547C85.5966 52.3547 82.8425 51.4737 81.5321 49.3934C81.1545 48.7937 81.0064 48.0015 80.8065 47.313C80.5918 46.5504 80.1995 45.6546 79.548 45.1068C78.9853 44.6404 77.9266 44.2406 77.1863 44.4479C70.501 46.3135 71.4782 43.1893 69.9753 44.3072Z" fill="#FFFCF6"/>
<path d="M54.4899 77.2007C54.4899 77.2007 54.401 77.8744 55.6596 78.6888C56.9182 79.5105 60.0721 80.3249 60.7013 80.3249C61.3306 80.3249 61.5527 80.3101 61.5824 80.2583C61.6934 80.0954 61.1678 80.2065 60.383 79.8141C59.4724 79.3625 54.4899 77.2007 54.4899 77.2007Z" fill="#325343"/>
<path d="M63.2401 92.8812C63.5585 94.3619 63.9434 95.9536 65.1058 96.9235C66.0756 97.7379 67.4082 97.9526 68.6742 97.9674C70.2511 97.9822 71.8133 97.7231 73.3754 97.4565C74.6932 97.2344 76.011 97.0123 77.3362 96.7902C78.6096 96.5755 79.8164 96.4052 81.0231 95.9462C83.2367 95.1022 85.2579 93.777 87.242 92.5036C87.5011 92.3334 87.7676 92.1631 88.0267 92.0002C90.8252 90.216 92.7427 88.9056 92.4762 89.0907C92.2023 89.2758 82.985 94.1176 80.5937 94.8727C78.9946 95.3762 76.0924 96.2942 74.4267 96.4867C73.6197 96.5755 72.8201 96.657 72.0132 96.7236C70.0809 96.8939 68.0968 97.3159 66.2533 96.4571C64.7874 95.7908 63.7361 94.4063 63.2401 92.8812Z" fill="#325343"/>
<path d="M65.7047 65.5998C65.7047 65.5998 66.8152 68.7684 70.3318 68.6278C73.8484 68.4871 75.3291 65.3703 75.3291 65.3703C75.3291 65.3703 75.9288 64.4226 75.6993 64.3782C75.4698 64.3338 74.7516 65.1482 74.7516 65.1482C74.7516 65.1482 73.2117 67.6653 70.6649 67.8578C68.1182 68.0503 66.941 66.5844 66.6153 66.2513C66.2895 65.9181 65.8379 64.6595 65.6528 64.8965C65.4678 65.126 65.7047 65.5998 65.7047 65.5998Z" fill="#325343"/>
<path d="M67.6968 55.657C67.4969 55.7459 66.4752 56.079 66.6381 56.5603C66.801 57.0415 67.3785 56.6639 68.178 56.4566C68.9776 56.2419 69.9326 56.0864 71.5244 55.9754C73.1161 55.8717 74.8189 56.079 75.3445 56.5084C75.8776 56.9304 76.7216 56.4048 74.656 55.7089C72.5831 55.0204 69.5551 54.8649 67.6968 55.657Z" fill="#325343"/>
<path d="M63.9286 85.3075C63.625 85.3667 63.588 85.7073 63.8027 85.9146C63.9656 86.07 64.1951 86.1071 64.4172 86.1367C66.9862 86.4772 69.7699 86.07 71.8724 84.4783C72.1019 84.3006 72.3537 84.0859 72.4499 83.8046C72.5832 83.39 72.25 83.4048 71.9539 83.5529C71.0729 84.0045 70.3103 84.5597 69.3553 84.8411C68.415 85.115 67.423 85.1372 66.4531 85.2483C65.9719 85.3001 65.4981 85.2779 65.0095 85.2631C64.8688 85.2631 64.3136 85.2334 63.9286 85.3075Z" fill="#325343"/>
<path d="M105.727 64.8808C105.201 64.6217 104.654 64.3256 104.098 64.1923C103.869 64.1405 102.107 64.059 102.107 64.4144C100.219 65.2658 98.9381 67.4868 98.753 68.4345C98.5605 69.3821 98.7974 70.7517 98.1385 71.27C97.6203 71.6772 97.1391 71.4106 97.0724 70.774C96.9318 69.4709 97.6795 68.0865 98.2644 66.9686C98.9603 65.6434 99.9005 64.407 101.344 63.8592C102.351 63.4816 103.484 63.452 104.505 63.7851C105.179 64.0072 105.845 64.4218 106.127 65.0659C106.001 65.0141 105.868 64.9475 105.727 64.8808Z" fill="#325343"/>
<path d="M102.914 67.302C102.826 67.1243 101.449 66.3543 100.36 66.5913C99.272 66.8282 98.6575 67.2502 98.4724 67.6277C98.2799 68.0053 97.7617 68.4347 98.2799 68.0053C98.7982 67.5833 99.6496 67.0577 100.501 67.1095C101.352 67.1539 101.774 67.302 102.011 67.6277C102.248 67.9535 102.626 68.716 103.144 68.4347C103.67 68.1534 103.248 67.9609 102.914 67.302Z" fill="#325343"/>
<path d="M29.1009 91.1639C28.6716 91.386 24.9402 92.9629 23.5262 95.5097C22.1121 98.0564 22.201 99.6704 21.9196 99.7592C21.6383 99.8555 20.5944 100.233 19.743 102.313C18.8916 104.394 19.2692 106.852 19.2692 108.081C19.2692 109.31 19.0767 109.687 19.8393 110.065C20.6018 110.442 21.2533 110.442 21.2533 110.442C21.2533 110.442 20.972 111.953 21.9122 113.278C22.8599 114.603 26.8281 115.64 28.716 115.832C30.6038 116.025 34.1057 114.507 35.0459 114.699C35.9935 114.892 36.6672 115.714 36.6672 115.714C36.6672 115.714 46.6915 114.647 49.0457 114.64C51.3926 114.633 54.4799 114.744 56.0272 114.921L58.0335 115.158C58.0335 115.158 54.4206 110.072 51.9627 107.703C49.5048 105.341 47.1431 101.936 45.0627 98.9152C42.9823 95.8872 41.5683 94.1919 38.1627 92.3928C34.7572 90.5938 31.9513 89.6906 29.1009 91.1639Z" fill="#FFFCF6"/>
<path d="M39.34 112.648C39.34 112.648 40.8503 112.33 42.8715 112.648C44.8852 112.967 46.203 114.803 46.203 114.803L36.6748 115.713C36.6748 115.713 35.9715 114.618 35.0534 114.699C34.1354 114.781 38.2665 112.774 39.34 112.648Z" fill="#F6BA81"/>
<path d="M25.918 108.872C25.918 108.872 28.561 109.82 30.6413 109.25C32.7217 108.68 35.6164 106.918 35.6831 104.711C35.7497 102.505 36.49 100.928 34.9205 99.1662C33.351 97.4042 29.1903 94.2503 29.1903 94.2503C29.1903 94.2503 28.0575 92.5475 29.094 91.1631C29.094 91.1631 26.5917 91.8442 24.615 94.0874C22.6382 96.3307 22.1052 99.3142 22.1052 99.3142C22.1052 99.3142 20.2988 101.039 19.3585 103.305C18.4109 105.57 18.4997 108.509 19.1808 109.916C19.862 111.323 21.2538 111.597 21.2538 111.597C21.2538 111.597 20.8466 112.796 22.2533 113.632C23.6599 114.469 26.4436 116.897 29.2495 116.098C32.0554 115.298 34.8613 114.662 34.6762 114.684C32.3219 114.95 29.4198 114.454 27.3246 113.329C26.029 112.633 24.6594 111.434 24.6964 109.834C24.7186 109.19 25.3701 108.961 25.918 108.872Z" fill="#F6BA81"/>
<path d="M26.2373 93.1177C23.9941 95.0796 22.7577 97.9892 22.7355 100.951C22.7207 102.394 23.0168 103.912 23.5721 105.282C24.1125 106.599 25.0602 107.621 25.2675 109.057C25.2675 109.057 24.157 108.991 23.5869 108.361C21.2252 105.741 20.9143 101.284 22.2025 98.1076C23.1501 95.7755 24.1273 94.28 25.5118 93.1473C26.8962 92.0146 27.9623 91.6074 27.9623 91.6074C27.9623 91.6074 26.2817 93.0807 26.2373 93.1177Z" fill="#325343"/>
<path d="M21.9211 99.7658C22.1876 100.032 19.7074 101.957 19.3669 104.963C19.0485 107.732 19.8111 108.428 20.0628 109.057C20.3145 109.686 21.2622 110.442 21.2622 110.442C21.2622 110.442 20.9438 112.078 21.9211 112.833C22.8983 113.588 24.7862 114.469 26.1114 114.787C27.4366 115.106 30.968 115.631 31.7676 115.424C31.7676 115.424 30.5831 115.95 29.2652 116.098C27.9474 116.246 26.5556 116.312 25.0453 115.705C23.535 115.098 21.736 114.343 21.3732 113.588C21.0104 112.833 20.7439 112.922 20.5736 112.078C20.4034 111.249 20.4034 111.234 20.4034 111.234C20.3886 111.152 19.8407 110.886 19.7593 110.834C19.7593 110.834 19.6556 110.271 18.9967 109.22C18.1675 107.895 18.0861 103.719 20.5588 100.758C21.0326 100.18 21.7878 99.6326 21.9211 99.7658Z" fill="#325343"/>
<path d="M32.2847 97.9672C32.2847 97.9672 34.1133 98.8482 34.676 100.048C35.2386 101.247 35.4607 103.105 35.4607 104.045C35.4607 104.986 34.2022 107.347 34.2022 107.347C34.2022 107.347 35.6384 106.873 35.9049 103.712C36.1789 100.551 35.6532 99.9217 34.9129 99.1591C34.1725 98.3966 33.1583 96.7012 33.1583 96.7012L32.2847 97.9672Z" fill="#325343"/>
<path d="M27.6218 106.415C27.8143 106.415 29.258 105.971 31.0274 106.415C32.7894 106.859 34.929 106.318 34.929 106.318L35.314 105.474C35.314 105.474 32.6413 105.919 31.7751 105.726C30.9089 105.534 28.7175 105.252 28.2141 105.445C27.7107 105.637 27.1776 105.978 27.1776 105.978L25.8524 107.007L27.6218 106.415Z" fill="#325343"/>
<path d="M29.0581 103.142C29.0581 103.142 29.9909 102.506 31.7677 102.631C33.5445 102.757 35.6545 104.586 35.6545 104.586C35.6545 104.586 36.0099 103.453 35.7508 103.453C35.4916 103.453 35.4694 103.305 35.0548 103.201C34.6402 103.098 32.7228 101.625 31.2717 101.691C29.8206 101.758 28.377 103.142 28.377 103.142C28.377 103.142 27.9253 103.609 27.9624 103.72C27.9994 103.831 29.0581 103.142 29.0581 103.142Z" fill="#325343"/>
<path d="M35.9878 82.2129C34.1591 84.0415 24.5939 100.048 22.706 103.135C20.8182 106.222 18.9229 111.419 18.797 112.508C18.6712 113.596 20.8774 112.567 21.8843 111.597C22.8911 110.627 22.5654 110.62 26.1708 106.977C29.7763 103.335 34.2776 95.0652 35.9137 92.548C37.5499 90.0309 43.8724 79.7549 43.8724 79.5032C43.8724 79.2515 46.9004 74.7132 46.7671 72.3219C46.6413 69.9306 43.9316 72.0035 41.2886 75.2833C38.6456 78.563 35.9878 82.2129 35.9878 82.2129Z" fill="#325343"/>
<path d="M19.8098 111.071C19.8098 111.071 24.9256 100.381 27.0726 96.8791C29.2121 93.3773 33.5431 86.1959 36.1936 82.4202C38.8958 78.5556 43.0417 73.314 43.0417 73.314C43.0417 73.314 45.4256 70.7302 46.1808 71.3595C46.9359 71.9888 45.1443 74.7133 44.5742 76.1643C44.0042 77.6154 38.459 86.5587 37.8964 88.0764C37.3263 89.5867 30.7076 99.7664 30.7076 99.7664C30.7076 99.7664 26.6802 105.467 25.355 106.977C24.0298 108.495 19.0843 112.737 19.8098 111.071Z" fill="#A0CFCE"/>
<path d="M22.868 113.455C22.868 113.455 20.1879 112.885 21.8537 110.182C23.5195 107.48 25.9182 108.872 25.9182 108.872C25.9182 108.872 24.282 109.25 24.2154 110.256C24.1488 111.263 24.282 111.434 24.2154 111.604C24.1562 111.767 22.868 113.455 22.868 113.455Z" fill="#F6BA81"/>
<path d="M22.1431 104.127C22.1431 104.127 25.0008 106.526 25.9262 106.667C26.8516 106.807 26.8738 105.845 26.8738 105.845L22.9056 103.513L22.1431 104.127Z" fill="#325343"/>
<path d="M67.1997 116.883C67.1997 116.883 68.0881 115.107 69.554 113.374C71.0198 111.642 74.7734 109.058 74.7734 109.058C74.7734 109.058 72.4857 110.206 70.4572 111.597C68.4286 112.989 67.6217 113.841 67.0072 114.596C66.3927 115.351 65.719 116.536 65.719 116.536L67.1997 116.883Z" fill="#325343"/>
<path d="M127.205 119.044C127.064 119 123.755 113.655 121.156 111.604C118.557 109.546 113.701 105.326 113.701 105.326C113.701 105.326 118.794 108.931 121.297 110.678C123.799 112.426 126.968 116.882 126.968 116.882L128.626 118.622L127.205 119.044Z" fill="#325343"/>
<path d="M75.6998 97.0711C75.6998 97.0711 78.0985 97.3895 78.9129 97.967C79.7273 98.5444 80.9118 102.764 80.9637 103.283C81.0081 103.801 81.1858 105.763 81.0895 106.429C80.9933 107.088 80.3196 108.576 80.3196 108.576C80.3196 108.576 81.7928 106.851 81.8669 104.682C81.9409 102.513 80.3788 98.7739 80.3788 98.7739L79.0536 96.0347L75.1298 96.7084L75.6998 97.0711Z" fill="#325343"/>
<path d="M105.192 19.6032L105.833 19.4172C107.914 21.0004 112.131 24.1891 112.356 24.2782C112.637 24.3895 117.126 24.544 118.753 24.539C120.054 24.535 120.748 22.513 120.932 21.5026C122.225 22.3402 124.744 24.1839 124.477 24.858C124.143 25.7006 121.296 30.4222 119.674 32.0543C118.376 33.3599 116.857 34.5129 116.26 34.9262C113.955 33.3624 108.737 29.4736 106.303 26.4289C103.87 23.3843 104.615 20.7831 105.192 19.6032Z" fill="#325343"/>
<path d="M106.426 18.4175C109.866 16.0865 113.647 19.3675 115.451 21.3976C117.209 18.9378 122.482 14.3218 125.053 19.6809C127.11 23.9681 120.052 30.9811 116.266 33.9517C114.981 32.9162 111.816 30.3727 109.435 28.4821C106.46 26.1188 102.484 21.0893 106.426 18.4175Z" fill="#F6BA81"/>
</svg>
