<svg width="160" height="135" viewBox="0 0 160 135" fill="none" xmlns="http://www.w3.org/2000/svg">
<path d="M33.3124 18.4965C21.4723 25.9451 18.1692 41.1777 24.5963 53.1893C27.0866 57.8493 31.0383 63.0089 30.1138 68.5934C28.4287 78.6889 17.8337 83.5129 12.8084 91.64C7.4997 100.222 9.21458 111.16 15.2167 118.899C31.0159 139.269 63.0022 127.466 63.0022 127.466C63.0022 127.466 73.284 137.368 85.6536 134.132C98.0231 130.896 101.453 122.523 109.64 124.61C117.826 126.706 121.442 130.128 127.914 131.462C134.386 132.797 148.664 133.744 156.277 119.66C163.889 105.575 157.992 94.7193 154.756 90.9167C151.52 87.1067 143.147 81.7757 147.143 74.9236C151.311 67.7807 157.045 61.7712 156.776 52.9433C156.448 42.2663 147.464 31.5744 136.943 29.5314C120.607 26.3552 104.883 43.2057 88.6658 36.7265C86.5707 35.8839 84.729 34.5269 82.9321 33.1476C75.4314 27.3841 68.5942 18.4816 59.5799 15.3501C50.998 12.3602 40.9846 13.6725 33.3124 18.4965Z" fill="#A0CFCE"/>
<path d="M18.6835 60.7049C17.5353 59.6536 16.1187 58.8707 14.6125 58.5128C9.83324 57.3646 3.5851 59.8474 1.10225 64.157C-0.694644 67.2736 -0.25474 71.5161 2.13118 74.2003C6.49295 79.1138 14.9182 77.0261 18.8699 72.6643C20.1896 71.2104 21.226 69.421 21.4572 67.4675C21.7628 64.925 20.5848 62.4421 18.6835 60.7049Z" fill="#A0CFCE"/>
<path d="M85.3861 4.66558C82.2695 7.26027 80.0327 10.9734 79.6375 14.9996C78.8472 22.9701 85.1475 28.0178 92.0593 29.9862C100.775 32.4765 112.064 27.8165 115.083 18.7798C120.683 2.02615 97.2486 -3.92374 86.3554 3.91252C86.0199 4.15111 85.6993 4.40462 85.3861 4.66558Z" fill="#A0CFCE"/>
<path d="M29.9327 42.3713L73.7144 42.2445H85.3905H91.6088C91.6088 42.2445 93.3833 41.991 93.3833 44.019C93.3833 46.0471 93.3833 119.66 93.3833 119.66C93.3833 119.66 93.7636 121.942 92.4961 122.069C91.2285 122.195 29.1647 122.449 29.1647 122.449C29.1647 122.449 24.8477 123.083 24.5942 120.801C24.3407 118.519 25.1012 45.7936 25.1012 45.7936C25.1012 45.7936 24.8552 42.498 29.9327 42.3713Z" fill="#FFFCF6"/>
<path d="M25.0865 47.1056C25.079 47.6126 25.4891 116.991 25.4891 116.991C25.4891 116.991 25.2356 121.181 27.5171 121.308C29.7987 121.435 93.3835 120.547 93.2567 121.054C93.13 121.561 93.2567 123.082 93.2567 123.082L33.7354 124.477L27.8377 124.409C27.8377 124.409 24.1545 123.962 23.5878 120.92C23.051 118.042 24.6316 51.4524 24.6316 51.4524C24.6316 51.4524 25.1536 41.7522 25.0865 47.1056Z" fill="#325343"/>
<path d="M53.5387 68.6393H33.6759C32.6618 68.6393 31.8342 67.8191 31.8342 66.7977V53.9808C31.8342 52.9668 32.6544 52.1392 33.6759 52.1392H53.5387C54.5527 52.1392 55.3803 52.9593 55.3803 53.9808V66.7977C55.3803 67.8117 54.5527 68.6393 53.5387 68.6393Z" fill="#9BD58B"/>
<path d="M54.5377 76.0645H32.3039C32.0206 76.0645 31.7969 75.8409 31.7969 75.5575V74.1633C31.7969 73.8799 32.0206 73.6562 32.3039 73.6562H54.5377C54.821 73.6562 55.0447 73.8799 55.0447 74.1633V75.5575C55.0447 75.8334 54.821 76.0645 54.5377 76.0645Z" fill="#9BD58B"/>
<path d="M54.5377 81.7755H32.3039C32.0206 81.7755 31.7969 81.5518 31.7969 81.2685V79.8742C31.7969 79.5909 32.0206 79.3672 32.3039 79.3672H54.5377C54.821 79.3672 55.0447 79.5909 55.0447 79.8742V81.2685C55.0447 81.5443 54.821 81.7755 54.5377 81.7755Z" fill="#9BD58B"/>
<path d="M54.5377 87.234H32.3039C32.0206 87.234 31.7969 87.0103 31.7969 86.727V85.3327C31.7969 85.0494 32.0206 84.8257 32.3039 84.8257H54.5377C54.821 84.8257 55.0447 85.0494 55.0447 85.3327V86.727C55.0447 87.0028 54.821 87.234 54.5377 87.234Z" fill="#9BD58B"/>
<path d="M54.5377 92.4307H32.3039C32.0206 92.4307 31.7969 92.2071 31.7969 91.9237V90.5295C31.7969 90.2461 32.0206 90.0225 32.3039 90.0225H54.5377C54.821 90.0225 55.0447 90.2461 55.0447 90.5295V91.9237C55.0447 92.2071 54.821 92.4307 54.5377 92.4307Z" fill="#9BD58B"/>
<path d="M54.5377 98.1422H32.3039C32.0206 98.1422 31.7969 97.9185 31.7969 97.6352V96.2409C31.7969 95.9576 32.0206 95.7339 32.3039 95.7339H54.5377C54.821 95.7339 55.0447 95.9576 55.0447 96.2409V97.6352C55.0447 97.9185 54.821 98.1422 54.5377 98.1422Z" fill="#9BD58B"/>
<path d="M54.5377 103.6H32.3039C32.0206 103.6 31.7969 103.377 31.7969 103.093V101.699C31.7969 101.416 32.0206 101.192 32.3039 101.192H54.5377C54.821 101.192 55.0447 101.416 55.0447 101.699V103.093C55.0447 103.377 54.821 103.6 54.5377 103.6Z" fill="#9BD58B"/>
<path d="M54.5377 109.312H32.3039C32.0206 109.312 31.7969 109.088 31.7969 108.805V107.41C31.7969 107.127 32.0206 106.903 32.3039 106.903H54.5377C54.821 106.903 55.0447 107.127 55.0447 107.41V108.805C55.0447 109.088 54.821 109.312 54.5377 109.312Z" fill="#9BD58B"/>
<path d="M54.5377 115.023H32.3039C32.0206 115.023 31.7969 114.799 31.7969 114.516V113.121C31.7969 112.838 32.0206 112.614 32.3039 112.614H54.5377C54.821 112.614 55.0447 112.838 55.0447 113.121V114.516C55.0447 114.799 54.821 115.023 54.5377 115.023Z" fill="#9BD58B"/>
<path d="M86.5985 54.6134H63.977C63.6937 54.6134 63.47 54.3897 63.47 54.1064V52.7121C63.47 52.4288 63.6937 52.2051 63.977 52.2051H86.5985C86.8818 52.2051 87.1055 52.4288 87.1055 52.7121V54.1064C87.1055 54.3897 86.8744 54.6134 86.5985 54.6134Z" fill="#9BD58B"/>
<path d="M86.5985 60.3248H63.977C63.6937 60.3248 63.47 60.1011 63.47 59.8178V58.4235C63.47 58.1402 63.6937 57.9165 63.977 57.9165H86.5985C86.8818 57.9165 87.1055 58.1402 87.1055 58.4235V59.8178C87.1055 60.1011 86.8744 60.3248 86.5985 60.3248Z" fill="#9BD58B"/>
<path d="M86.5985 65.7838H63.977C63.6937 65.7838 63.47 65.5601 63.47 65.2768V63.8825C63.47 63.5992 63.6937 63.3755 63.977 63.3755H86.5985C86.8818 63.3755 87.1055 63.5992 87.1055 63.8825V65.2768C87.1055 65.5526 86.8744 65.7838 86.5985 65.7838Z" fill="#9BD58B"/>
<path d="M86.5985 70.9879H63.977C63.6937 70.9879 63.47 70.7642 63.47 70.4809V69.0866C63.47 68.8033 63.6937 68.5796 63.977 68.5796H86.5985C86.8818 68.5796 87.1055 68.8033 87.1055 69.0866V70.4809C87.1055 70.7567 86.8744 70.9879 86.5985 70.9879Z" fill="#9BD58B"/>
<path d="M86.5985 76.6983H63.977C63.6937 76.6983 63.47 76.4746 63.47 76.1913V74.797C63.47 74.5137 63.6937 74.29 63.977 74.29H86.5985C86.8818 74.29 87.1055 74.5137 87.1055 74.797V76.1913C87.1055 76.4672 86.8744 76.6983 86.5985 76.6983Z" fill="#9BD58B"/>
<path d="M86.5985 82.1563H63.977C63.6937 82.1563 63.47 81.9327 63.47 81.6493V80.2551C63.47 79.9717 63.6937 79.748 63.977 79.748H86.5985C86.8818 79.748 87.1055 79.9717 87.1055 80.2551V81.6493C87.1055 81.9252 86.8744 82.1563 86.5985 82.1563Z" fill="#9BD58B"/>
<path d="M86.5985 87.8668H63.977C63.6937 87.8668 63.47 87.6431 63.47 87.3598V85.9655C63.47 85.6822 63.6937 85.4585 63.977 85.4585H86.5985C86.8818 85.4585 87.1055 85.6822 87.1055 85.9655V87.3598C87.1055 87.6356 86.8744 87.8668 86.5985 87.8668Z" fill="#9BD58B"/>
<path d="M86.5985 93.5792H63.977C63.6937 93.5792 63.47 93.3555 63.47 93.0722V91.6779C63.47 91.3946 63.6937 91.1709 63.977 91.1709H86.5985C86.8818 91.1709 87.1055 91.3946 87.1055 91.6779V93.0722C87.1055 93.3481 86.8744 93.5792 86.5985 93.5792Z" fill="#9BD58B"/>
<path d="M86.5985 98.9991H63.977C63.6937 98.9991 63.47 98.7754 63.47 98.4921V97.0978C63.47 96.8145 63.6937 96.5908 63.977 96.5908H86.5985C86.8818 96.5908 87.1055 96.8145 87.1055 97.0978V98.4921C87.1055 98.7754 86.8744 98.9991 86.5985 98.9991Z" fill="#9BD58B"/>
<path d="M86.5985 104.048H63.977C63.6937 104.048 63.47 103.824 63.47 103.541V102.147C63.47 101.863 63.6937 101.64 63.977 101.64H86.5985C86.8818 101.64 87.1055 101.863 87.1055 102.147V103.541C87.1055 103.817 86.8744 104.048 86.5985 104.048Z" fill="#9BD58B"/>
<path d="M58.2288 53.2644C57.9305 55.0464 58.184 56.9477 58.1691 58.7371C58.1468 61.8984 58.2288 65.0002 58.2139 68.154C58.1989 72.1355 58.184 76.1245 58.1691 80.106C58.1542 84.259 58.1468 88.412 58.1393 92.565C58.1318 96.2334 58.1244 99.9017 58.1169 103.57C58.1095 106.098 58.1095 108.625 58.102 111.153C58.102 111.913 58.102 112.681 58.102 113.442C58.102 113.442 57.9753 115.343 59.3695 115.47C60.7638 115.597 60.3836 113.569 60.3836 113.569C60.3836 112.465 60.3836 111.354 60.3836 110.251C60.3836 107.402 60.3836 104.547 60.3836 101.699C60.3836 97.7991 60.3836 93.8996 60.3836 90.0001C60.3836 85.7502 60.3836 81.5003 60.3836 77.2578C60.3836 73.3583 60.3836 69.4588 60.3836 65.5593C60.3836 62.1296 60.5178 58.6998 60.4805 55.2701C60.473 54.517 60.5476 53.749 60.4432 53.0034C60.3761 52.5263 60.1748 51.8627 59.7125 51.6166C59.0564 51.2736 58.5568 51.9372 58.4003 52.489C58.3257 52.7425 58.2735 53.0034 58.2288 53.2644Z" fill="#9BD58B"/>
<path d="M32.6252 42.3561L37.2927 36.9878L37.4866 59.833L44.197 54.6138L47.5745 58.64L45.8149 59.833L42.1018 56.8357L37.151 60.5935L37.3374 42.3487L32.6252 42.3561Z" fill="#325343"/>
<path d="M48.9977 36.9878H37.2917L37.4856 59.833L44.196 54.6138L48.9977 60.1163V36.9878Z" fill="#F6BA81"/>
<path d="M77.0716 40.3275C77.0045 39.992 73.1497 38.0907 74.0966 33.3561C75.0436 28.6215 79.6812 21.3818 86.4065 17.4897C90.1047 15.3573 94.5037 14.3135 98.7015 13.9779C102.929 13.6424 107.38 13.7692 111.526 14.7161C114.754 15.4542 118.005 17.5494 119.437 20.6138C119.437 20.6138 129.107 25.065 132.045 33.4083C134.982 41.7516 134.319 47.7164 133.655 51.1312C132.992 54.5461 132.514 58.8109 129.107 63.6424C127.198 66.3415 125.29 69.0629 123.209 71.6278C121.092 74.2448 118.46 76.2505 114.888 75.5795C113.375 75.2961 105.412 74.6326 101.9 70.1739C98.3958 65.7226 98.2019 60.6973 98.2019 60.6973C98.2019 60.6973 78.2049 46.2028 77.0716 40.3275Z" fill="#325343"/>
<path d="M85.3638 31.2912C85.3638 31.2912 87.362 30.0834 87.1756 30.9408C86.9892 31.7982 85.6546 33.2223 85.3638 35.1311C85.0805 37.0324 85.7441 38.367 87.362 39.4108C88.98 40.4547 90.2177 41.3121 90.2177 42.9301C90.2177 44.548 89.7405 48.9247 90.4115 49.1185C91.0751 49.3124 92.4097 47.7839 92.4097 47.7839C92.4097 47.7839 94.5049 43.5936 97.6439 42.6467C100.783 41.6998 103.161 42.6467 103.929 45.1221C104.69 47.5975 104.787 51.3106 104.123 53.115C103.46 54.9268 101.931 57.5886 101.074 58.5429C100.216 59.4973 98.4118 60.1609 98.4118 60.1609C98.4118 60.1609 100.313 67.684 102.692 70.1519C105.07 72.6273 110.684 74.6255 112.876 75.1027C115.069 75.5799 117.507 75.5501 117.507 75.5501C117.507 75.5501 117.536 79.293 117.827 80.1504C118.111 81.0079 118.782 82.432 118.401 82.6258C118.021 82.8197 91.5598 85.2876 91.5598 85.2876L91.7536 77.1009L85.4682 72.344L82.2323 67.013L78.5192 55.5904L76.6179 46.6432L80.0477 37.599L85.3638 31.2912Z" fill="#FFFCF6"/>
<path d="M86.1367 38.3666C86.1367 38.3666 83.6464 45.9866 84.31 52.8387C84.9736 59.6908 86.3082 66.6398 87.449 69.309C88.1275 70.8972 88.8731 72.6046 90.0884 73.8945C91.5498 75.4528 93.3691 75.2589 95.3151 75.326C96.6199 75.3708 97.2685 76.4743 97.6861 77.5703C97.8949 78.122 98.9238 80.5005 97.9247 80.7391C97.5295 80.836 91.5871 82.9162 91.5871 82.9162C91.5871 82.9162 90.7669 83.5053 90.6774 83.4904C90.5805 83.4829 90.5805 79.3523 90.5805 79.3523C90.5805 79.3523 86.1666 79.2255 84.1833 77.958C82.2 76.6905 78.964 69.9652 78.3005 68.1534C77.6369 66.3415 76.9658 63.3591 76.9658 63.3591C76.9658 63.3591 74.9676 62.7254 74.3935 61.771C73.8194 60.8166 73.7299 57.9013 74.0133 54.5983C74.2966 51.2953 76.4887 42.0648 77.9127 39.403C79.3368 36.7412 81.9837 34.2658 81.9837 34.2658C81.9837 34.2658 85.1376 31.1716 85.8832 30.9106C86.6288 30.6496 87.6279 30.2396 86.9047 31.5294C86.174 32.8268 84.4293 36.3609 85.8832 37.882" fill="#F8E16C"/>
<path d="M81.4634 50.1101C81.1503 49.0886 80.017 48.0522 79.2863 49.2228C78.8389 49.9386 78.8165 51.3925 79.5398 51.9517C80.4345 52.6526 81.3739 51.728 81.5305 50.796C81.5678 50.5872 81.538 50.3487 81.4634 50.1101Z" fill="#325343"/>
<path d="M79.2405 41.0956C79.2405 41.0956 77.8463 42.1097 78.987 42.1097C80.1278 42.1097 80.2546 41.8561 81.1418 41.6623C82.0291 41.4684 83.3637 41.9158 83.5501 41.5952C83.744 41.2746 83.1699 40.7676 82.469 40.6408C81.7756 40.529 79.6804 40.9092 79.2405 41.0956Z" fill="#325343"/>
<path d="M74.0217 60.3926C74.2529 61.2724 74.141 62.1895 74.7673 62.9873C75.3265 63.703 75.7441 63.9044 76.609 64.0758C77.0265 64.1579 78.1896 68.4152 78.3909 68.9894C79.0173 70.7937 79.8076 72.5384 80.7471 74.2011C81.6045 75.7221 82.5887 77.5936 83.9382 78.7344C85.1461 79.7484 88.0017 79.6887 88.2552 79.7484C88.5088 79.8155 90.2833 79.7484 90.2833 79.7484L90.507 82.6339L90.3877 84.3264L91.685 83.5062L91.3644 77.9142C91.3644 77.9142 85.8171 78.4883 84.3856 77.5936C82.8944 76.669 81.8207 74.4993 80.9931 73.0156C79.2484 69.8766 78.2791 66.4394 77.3397 62.9947C77.3322 62.9873 74.827 63.5017 74.0217 60.3926Z" fill="#325343"/>
<path d="M79.9348 68.6382C79.9348 68.6382 80.2181 69.2123 81.5379 68.6382C82.8576 68.0641 83.551 66.8637 83.1111 66.2896C82.6637 65.7154 81.4857 68.2952 79.9348 68.6382Z" fill="#325343"/>
<path d="M95.2127 51.6085C95.1679 51.7278 94.2136 54.3001 94.9144 53.8528C95.6153 53.4054 96.1223 52.5182 96.8157 50.7436C97.5166 48.9691 98.5306 47.888 99.731 47.4406C100.939 46.9933 101.826 47.4406 101.826 47.4406C101.826 47.4406 101.319 46.3595 99.6713 46.7397C98.0236 47.12 95.9135 49.7147 95.2127 51.6085Z" fill="#325343"/>
<path d="M95.5469 51.184C95.5469 51.184 96.71 50.0731 97.9403 50.2819C99.163 50.4906 99.7968 50.9604 99.9907 51.5196C100.185 52.0788 100.624 52.7125 100.878 52.1384C101.131 51.5643 100.811 50.6174 99.9907 49.9985C99.163 49.3797 98.0074 49.745 97.1425 49.7376C96.2776 49.7376 95.5469 51.184 95.5469 51.184Z" fill="#325343"/>
<path d="M60.0122 127.332C60.0122 127.332 60.5192 115.082 62.674 108.103C64.8288 101.125 68.1914 95.1598 71.8747 92.4309C75.558 89.702 91.6108 82.3802 91.6108 82.3802C91.6108 82.3802 97.8887 80.5684 102.772 79.7408C107.656 78.9132 115.627 79.4873 118.497 80.9487C121.368 82.41 138.502 91.5437 141.738 99.7975C144.973 108.044 145.674 112.868 146.688 117.312C147.702 121.755 147.054 129.226 147.054 129.226C147.054 129.226 140.477 134.14 128.414 131.56C116.35 128.98 108.551 125.237 108.551 125.237C108.551 125.237 106.396 124.73 104.047 125.744C101.699 126.758 91.909 134.595 84.8109 134.774C77.7128 134.945 73.3585 133.7 71.5094 132.85C69.6677 132 66.156 129.935 66.156 129.935L62.9946 127.459L59.7363 128.466L60.0122 127.332Z" fill="#4B7B3F"/>
<path d="M77.8113 128.19C76.5363 128.19 75.2613 128.153 73.9864 128.078C69.2369 127.787 64.6514 125.819 60.3792 121.935L60.5656 120.003C64.5843 123.664 69.6693 126.319 74.0758 126.595C82.6353 127.124 91.2396 125.707 99.2622 124.097C110.021 121.935 120.534 120.056 130.838 120.831C134.552 121.107 137.817 121.495 140.822 122.017L141.635 122.151C143.536 122.464 145.579 122.792 147.279 123.813L147.242 125.364C145.788 124.492 143.163 123.91 141.396 123.62L140.569 123.478C137.616 122.963 134.395 122.583 130.727 122.307C120.609 121.554 110.208 123.411 99.553 125.551C92.6264 126.945 85.2524 128.19 77.8113 128.19Z" fill="#F8E16C"/>
<path d="M80.2844 114.217C79.9265 114.217 79.5686 114.217 79.2107 114.209C73.5889 114.105 67.2513 113.732 61.8457 111.406L62.1738 109.952C67.3333 112.181 73.7604 112.614 79.2331 112.718C87.3527 112.867 95.4499 111.175 103.279 109.534C112.211 107.663 121.442 105.724 130.851 106.485C135.108 106.828 139.478 107.939 145.152 110.265L145.517 111.972C139.985 109.706 134.825 108.304 130.732 107.969C121.531 107.23 112.412 109.139 103.584 110.988C96.0166 112.576 88.2027 114.217 80.2844 114.217Z" fill="#F8E16C"/>
<path d="M85.8836 101.96C75.0575 101.96 66.908 99.0741 66.5576 98.9398L67.4747 97.4263C67.5716 97.4636 77.5552 101.311 90.5436 100.289C97.8207 99.7153 103.815 98.7982 109.102 97.9855C113.419 97.3219 117.497 96.6956 121.486 96.3899C129.516 95.7785 136.793 96.6509 141.312 98.8131L142.072 100.625C138.105 98.9398 129.382 97.2846 121.598 97.8811C117.669 98.1793 113.806 98.7758 109.333 99.4618C104.024 100.282 97.9996 101.206 90.6703 101.781C89.0002 101.9 87.4121 101.96 85.8836 101.96Z" fill="#F8E16C"/>
<path d="M89.6951 90.5957C83.5887 90.5957 75.223 90.454 75.1335 90.454L77.6835 89.0747C77.8177 89.0747 91.1341 89.2014 98.2323 89.015C102.02 88.9181 108.208 88.1799 113.674 87.5387C118.624 86.9497 122.897 86.4427 124.686 86.48C128.325 86.5545 128.839 87.0392 129.055 87.1808L130.815 88.4036L131.456 88.8659C131.449 88.8659 127.862 88.0308 124.649 87.9712C122.956 87.9264 118.535 88.4633 113.845 89.015C108.35 89.6637 102.124 90.4018 98.2695 90.5062C95.8836 90.5733 92.7745 90.5957 89.6951 90.5957Z" fill="#F8E16C"/>
</svg>
