<svg width="144" height="129" viewBox="0 0 144 129" fill="none" xmlns="http://www.w3.org/2000/svg">
<path d="M132.311 73.9906C129.397 74.6105 126.835 76.5392 126.063 79.8454C125.67 81.5123 126.042 83.3239 126.972 84.7635C129.294 88.3729 134.356 89.2477 138.262 88.1249C143.889 86.5062 145.054 79.6526 140.645 75.8986C138.393 73.9906 135.155 73.3844 132.311 73.9906Z" fill="#F6BA81"/>
<path d="M19.4285 32.7799C13.2017 34.7568 7.05757 36.7199 3.12448 42.5885C-2.55129 51.0471 -0.133579 63.3698 7.46396 69.7688C13.1328 74.5423 24.5877 80.404 17.0728 89.0692C14.724 91.7762 11.4728 93.5809 9.13776 96.3017C5.27356 100.806 4.51587 107.612 6.59607 113.074C8.15277 117.159 11.218 120.555 14.8204 123.041C19.8418 126.499 25.986 128.29 32.075 128.069C40.5405 127.766 47.9314 123.654 55.9835 121.629C63.2229 119.811 71.8881 119.928 78.9553 122.463C91.3469 126.912 106.59 131.472 118.851 123.627C127.365 118.178 130.795 106.041 126.393 96.9423C123.631 91.2183 116.805 85.515 119.051 78.62C120.793 73.2749 125.491 70.802 128.542 66.4626C131.69 61.9853 133.096 56.2613 132.186 50.8473C131.263 45.3713 127.985 40.3705 123.459 37.1745C118.403 33.6133 111.963 32.9452 106.783 29.6114C101.603 26.2776 99.9225 20.1747 95.8379 15.8352C84.8239 4.11863 66.5912 -1.16452 51.8438 6.63966C43.2199 11.1996 40.1065 20.2229 33.0669 26.3051C29.1407 29.694 24.2571 31.2439 19.4285 32.7799Z" fill="#F6BA81"/>
<path d="M99.7094 115.781H31.7999C30.4429 115.781 29.3408 114.679 29.3408 113.322V27.1109C29.3408 25.7539 30.4429 24.6519 31.7999 24.6519H99.7094C101.066 24.6519 102.168 25.7539 102.168 27.1109V113.322C102.175 114.679 101.073 115.781 99.7094 115.781Z" fill="#FFFCF6"/>
<path d="M102.376 30.2509L102.892 112.908C102.892 112.908 102.534 116.049 100.647 116.676C98.7662 117.302 35.6163 116.738 35.6163 116.738C35.6163 116.738 28.4114 116.979 28.5285 114.974C28.7076 112.005 29.238 26.4832 29.238 26.4832C29.238 26.4832 29.9612 25.3191 29.5962 26.3041C29.238 27.2891 29.9612 78.8256 29.9612 78.8256L30.1403 112.818C30.1403 112.818 29.9612 114.072 31.1253 114.072L99.2966 113.982C99.2966 113.982 100.585 114.189 101.087 111.468L101.804 29.2177C101.804 29.2177 101.824 26.1594 101.804 25.8632C101.797 25.5739 102.341 26.4832 102.376 30.2509Z" fill="#325343"/>
<path d="M42.3714 70.2158C42.0753 70.0368 39.6782 70.3949 40.0364 71.0562C40.3946 71.7106 47.751 71.4006 47.751 71.4006C47.751 71.4006 62.9392 71.132 62.1058 70.822C61.2723 70.512 42.3714 70.2158 42.3714 70.2158Z" fill="#325343"/>
<path d="M91.8831 49.7031C92.1793 49.5241 94.5764 49.8822 94.2182 50.5435C93.86 51.1979 86.5036 50.8879 86.5036 50.8879C86.5036 50.8879 71.3154 50.6193 72.1488 50.3093C72.9892 49.9993 91.8831 49.7031 91.8831 49.7031Z" fill="#325343"/>
<path d="M74.9039 44.7373C74.6077 44.5582 72.2107 44.9164 72.5689 45.5777C72.927 46.232 80.2835 45.9221 80.2835 45.9221C80.2835 45.9221 95.4717 45.6534 94.6382 45.3435C93.7979 45.0404 74.9039 44.7373 74.9039 44.7373Z" fill="#325343"/>
<path d="M75.3255 54.8487C75.0294 54.6696 72.6323 55.0277 72.9905 55.689C73.3487 56.3434 80.7051 56.0334 80.7051 56.0334C80.7051 56.0334 95.8933 55.7648 95.0599 55.4548C94.2195 55.1448 75.3255 54.8487 75.3255 54.8487Z" fill="#325343"/>
<path d="M74.3067 61.4824C74.0106 61.3034 71.6135 61.6615 71.9717 62.3228C72.3299 62.9772 79.6863 62.6672 79.6863 62.6672C79.6863 62.6672 94.8745 62.3986 94.0411 62.0886C93.2076 61.7855 74.3067 61.4824 74.3067 61.4824Z" fill="#325343"/>
<path d="M40.2792 76.615C40.2792 76.615 38.5434 77.4553 39.1427 77.5724C39.7419 77.6895 63.368 77.6344 62.142 77.0971C60.909 76.553 40.8234 76.3325 40.2792 76.615Z" fill="#325343"/>
<path d="M41.2373 82.354C41.2373 82.354 38.4269 82.6502 39.4464 82.9532C40.4658 83.2494 57.8651 83.3114 57.8651 83.3114C57.8651 83.3114 62.4663 83.4285 61.3918 82.8361C60.3172 82.2369 41.2373 82.354 41.2373 82.354Z" fill="#325343"/>
<path d="M42.4411 88.0904C42.138 87.9113 39.6997 88.2694 40.0647 88.9307C40.4298 89.5919 47.9309 89.2751 47.9309 89.2751C47.9309 89.2751 63.4222 89.0065 62.5681 88.6965C61.7071 88.3865 42.4411 88.0904 42.4411 88.0904Z" fill="#325343"/>
<path d="M40.3048 94.4893C40.3048 94.4893 38.5346 95.3296 39.1476 95.4467C39.7606 95.5638 63.8551 95.5087 62.6015 94.9714C61.3479 94.4342 40.8558 94.2 40.3048 94.4893Z" fill="#325343"/>
<path d="M72.4808 95.0549C72.4808 95.0549 70.7106 95.8952 71.3236 96.0123C71.9367 96.1294 96.0311 96.0743 94.7775 95.5371C93.517 94.9929 73.025 94.7725 72.4808 95.0549Z" fill="#325343"/>
<path d="M41.2854 100.228C41.2854 100.228 38.42 100.524 39.4532 100.827C40.4864 101.13 58.237 101.185 58.237 101.185C58.237 101.185 62.9346 101.302 61.8325 100.71C60.7373 100.11 41.2854 100.228 41.2854 100.228Z" fill="#325343"/>
<path d="M72.3775 105.793C72.3775 105.793 69.512 106.089 70.5452 106.392C71.5784 106.695 89.329 106.75 89.329 106.75C89.329 106.75 94.0267 106.867 92.9246 106.275C91.8225 105.683 72.3775 105.793 72.3775 105.793Z" fill="#325343"/>
<path d="M73.6731 100.716C73.6731 100.716 70.8077 101.012 71.8409 101.316C72.881 101.612 90.6247 101.674 90.6247 101.674C90.6247 101.674 95.3223 101.791 94.2202 101.198C93.125 100.599 73.6731 100.716 73.6731 100.716Z" fill="#325343"/>
<path d="M41.0576 105.311C41.0576 105.311 38.1922 105.607 39.2254 105.91C40.2655 106.206 58.0092 106.268 58.0092 106.268C58.0092 106.268 62.7068 106.385 61.6048 105.793C60.5096 105.187 41.0576 105.311 41.0576 105.311Z" fill="#325343"/>
<path d="M40.7266 34.9631C40.7266 34.9631 40.637 60.4283 40.7266 60.7934C40.8437 61.2687 40.4855 63.0389 41.5325 63.0389C42.2488 63.0389 62.8097 63.0596 63.3263 63.0389C63.8429 63.0182 64.759 62.5912 64.759 61.7853C64.759 60.9794 64.4009 35.7759 64.4009 35.7759C64.4009 35.7759 64.1322 34.1641 62.9681 34.1641C61.8041 34.1641 43.4129 34.1641 43.4129 34.1641C43.4129 34.1641 41.0021 33.799 40.7266 34.9631Z" fill="#F5F7F5"/>
<path d="M72.8394 34.336C72.8394 34.6047 72.4813 40.1633 73.1081 40.4389C73.7349 40.7075 76.9654 40.6179 76.9654 40.6179C76.9654 40.6179 90.9551 40.6179 91.6783 40.5284C92.3947 40.4389 93.0215 40.7075 93.0215 39.1852C93.0215 37.663 93.111 34.1638 92.4842 33.7161C91.8574 33.2684 75.0229 33.599 75.0229 33.599C75.0229 33.599 72.8394 33.4957 72.8394 34.336Z" fill="#325343"/>
<path d="M70.8415 68.591C70.8071 68.9905 70.8622 88.8419 70.8553 89.2001C70.8484 89.5583 71.0068 90.6397 72.1709 90.7499C73.335 90.8602 91.4644 90.5777 91.4644 90.5777C91.4644 90.5777 92.8007 91.053 93.1933 89.3517C93.5859 87.6572 93.6617 69.4451 93.6617 69.4451C93.6617 69.4451 93.5377 67.6405 92.3874 67.4752C90.5896 67.2203 72.6186 67.3374 72.6186 67.3374C72.6186 67.3374 70.9517 67.3098 70.8415 68.591Z" fill="#325343"/>
<path d="M40.6366 35.3209L40.4369 61.2682C40.4369 61.6746 40.4231 62.0948 40.5264 62.4943C40.6573 63.0109 40.9742 63.2038 41.4839 63.3002C42.4964 63.5 43.6123 63.3898 44.6455 63.3829C45.7614 63.376 46.8703 63.3691 47.9862 63.3622C49.3294 63.3553 50.6726 63.3484 52.0157 63.3415C53.3934 63.3347 54.7641 63.3278 56.1417 63.3209C57.354 63.314 58.5663 63.3071 59.7717 63.3002C60.6189 63.2933 61.4731 63.2933 62.3203 63.2864C62.6165 63.2864 62.9058 63.2864 63.202 63.2795C63.202 63.2795 64.4556 62.9627 64.7036 62.7216C64.9515 62.4736 65.0617 61.7573 65.0204 61.4886C64.9722 61.22 64.5934 35.8788 64.5934 35.7479C64.5934 35.6102 64.3936 34.5838 63.8977 34.267C63.4017 33.9501 63.0918 34.019 63.0918 34.019H42.0556C42.0556 34.019 41.6079 34.0603 41.291 34.1637C41.1877 34.1981 41.105 34.2394 41.0499 34.2877C40.8226 34.4874 40.8364 34.6872 41.0775 34.5701C41.3186 34.453 41.7181 34.4805 42.0074 34.4116C42.2967 34.3428 62.7956 34.5494 63.0642 34.5907C63.3328 34.6389 63.8288 34.8731 63.8908 35.0522C63.9597 35.2313 64.0492 35.8581 64.0492 35.8581C64.0492 35.8581 64.614 61.6195 64.614 61.8193C64.614 62.019 64.4556 62.3359 64.2076 62.4668C63.9597 62.6045 63.7117 62.6665 63.7117 62.6665L41.8903 62.5632C41.8903 62.5632 41.0155 62.5494 40.9948 61.7848C40.9742 61.0203 40.8984 35.0798 40.8984 35.0798C40.8984 35.0798 40.9053 34.7423 41.0568 34.5907C41.2084 34.4392 40.678 34.1774 40.6366 35.3209Z" fill="#325343"/>
<path d="M73.7203 34.1985C73.6514 34.2674 73.3483 34.4878 73.3001 34.8736C73.2519 35.2593 73.3208 39.0546 73.3208 39.1235C73.3208 39.1924 73.3208 39.9845 73.8098 40.0327C74.2989 40.0809 83.7562 40.0327 83.7562 40.0327C83.7562 40.0327 91.0162 39.8881 91.5673 39.8399C92.1252 39.7916 92.5178 39.6263 92.5178 38.9306C92.5178 38.2349 92.6074 34.6325 92.5385 34.2743C92.4696 33.9161 92.2836 33.8403 91.9805 33.7715C91.6775 33.7026 74.7535 33.9368 74.7535 33.9368C74.7535 33.9368 74.0716 33.861 73.7203 34.1985Z" fill="#F5F7F5"/>
<path d="M93.1455 68.7768C93.1662 69.1626 92.8769 88.3045 92.8838 88.6489C92.8907 88.9933 92.7391 90.0334 91.6301 90.1436C90.5212 90.2538 73.239 90.1574 73.239 90.1574C73.239 90.1574 71.579 90.0954 71.4481 88.7591C71.2828 87.0922 71.1588 69.6378 71.1588 69.6378C71.1588 69.6378 71.0141 68.0674 72.3229 67.8883C74.038 67.661 91.21 67.6196 91.21 67.6196C91.21 67.6196 93.0835 67.6127 93.1455 68.7768Z" fill="#F5F7F5"/>
<path d="M85.6985 86.5891C85.6916 86.5891 85.6847 86.5891 85.6778 86.5891C84.2244 86.4927 82.9983 86.0174 82.1304 85.2046C81.0697 84.2058 80.4566 82.594 80.436 80.7687C79.8918 80.5758 79.3614 80.2383 78.8793 79.763C75.9243 76.8976 78.2249 71.945 78.3282 71.7384C78.4109 71.5662 78.6244 71.4904 78.7966 71.5731C78.9688 71.6557 79.0446 71.8624 78.9619 72.0415C78.9413 72.0897 76.7715 76.7529 79.3683 79.2602C79.7403 79.6252 80.1122 79.8663 80.4635 80.0248C80.5531 78.8744 80.9319 76.9251 82.3922 76.195C83.1361 75.823 83.9696 75.8368 84.5757 76.2294C85.113 76.5807 85.3954 77.1662 85.3609 77.8757C85.3196 78.778 84.3208 80.1281 82.8881 80.6998C82.3095 80.934 81.7172 81.0098 81.1454 80.934C81.1937 82.4907 81.724 83.8476 82.6126 84.688C83.5563 85.5765 84.8237 85.8245 85.726 85.8865C85.9189 85.9003 86.0635 86.0656 86.0566 86.2585C86.036 86.4513 85.8844 86.5891 85.6985 86.5891ZM81.1523 80.2314C81.724 80.3209 82.2269 80.2176 82.6264 80.0523C83.8318 79.5701 84.6308 78.4267 84.6584 77.8481C84.679 77.3866 84.5137 77.0284 84.19 76.8149C83.7974 76.5601 83.2256 76.5601 82.7021 76.8149C81.6689 77.3453 81.2281 78.8538 81.1523 80.2314Z" fill="#325343"/>
<path d="M46.9807 62.798C46.9807 62.798 47.6351 59.5675 47.9382 58.7892C48.2343 58.0108 48.8956 57.0258 49.3709 56.3646C49.8462 55.7102 51.3753 54.1191 51.4648 53.5542C51.5613 52.9343 51.2238 52.5004 50.8656 52.0526C50.4661 51.5567 50.3352 51.2261 50.0941 50.6406C49.7015 49.6969 49.7428 48.7532 49.7497 47.7407C49.7566 47.3756 49.9288 46.5491 50.1561 46.2598C50.1974 47.5409 49.9081 48.9186 50.4179 50.0895C50.9827 51.3707 52.0297 52.8172 53.4279 53.258C54.4129 53.568 55.6184 53.6713 56.6171 53.3476C58.2152 52.831 59.6065 51.8667 59.951 50.1171C60.0612 49.5454 60.0474 48.9668 59.9923 48.3882C59.9785 48.2642 59.7856 46.9555 60.1094 47.3343C60.3849 47.6512 60.44 48.3675 60.5089 48.767C60.5709 49.1252 60.2678 50.7852 59.9441 51.5016C59.6134 52.2179 59.2277 52.8792 59.2277 52.8792C59.2277 52.8792 61.1426 55.8549 61.7418 56.3026C62.3411 56.7503 63.3261 59.23 63.7118 60.3114C64.0976 61.386 64.2491 62.5845 64.132 62.6121C64.0149 62.6396 63.8909 62.9427 63.1746 63.0322C62.4582 63.1218 60.0956 63.0047 60.0956 63.0047H47.8762L46.9807 62.798Z" fill="#325343"/>
<path d="M53.2632 51.039C53.2632 51.039 53.9106 52.0929 55.0334 52.0929C56.1562 52.0929 56.8036 51.3076 56.8725 50.8117C56.9414 50.3158 56.5832 50.4053 56.3559 50.4948C56.1286 50.5844 55.8393 50.7428 55.1436 50.6946C54.4479 50.6464 53.5318 50.6946 53.4147 50.7428C53.3114 50.791 53.0841 50.8392 53.2632 51.039Z" fill="#325343"/>
<path d="M52.5655 47.5402C52.5655 47.5402 51.98 47.5196 51.918 47.9191C51.8491 48.3255 52.2968 48.5252 52.6137 48.4563C52.9305 48.3875 53.2887 47.6573 52.5655 47.5402Z" fill="#325343"/>
<path d="M57.5258 47.2932C57.3812 47.3276 57.2434 47.4172 57.1608 47.5067C57.0574 47.6169 56.9886 47.7616 57.0161 47.9062C57.0781 48.2024 57.5052 48.2851 57.7462 48.1335C57.9804 47.982 58.1526 47.5205 57.8702 47.3345C57.7669 47.2656 57.6429 47.2587 57.5258 47.2932Z" fill="#325343"/>
<path d="M54.7367 48.6772C54.7367 48.6772 54.468 49.5933 54.5576 49.7311C54.6471 49.8688 55.1155 49.6415 55.2739 49.552C55.4324 49.4624 55.701 49.3247 55.453 49.3247C55.2051 49.3247 54.9571 49.4349 54.8262 49.4831C54.6885 49.5313 54.964 48.5876 54.8744 48.4705C54.778 48.3603 54.7367 48.6772 54.7367 48.6772Z" fill="#325343"/>
<path d="M49.9081 48.5941C49.9081 48.5941 49.1298 47.4576 48.7991 48.1739C48.4685 48.8903 48.9162 49.9373 49.364 50.3299C49.8117 50.7225 50.4109 50.9292 50.4109 50.9292L49.9081 48.5941Z" fill="#325343"/>
<path d="M60.2822 49.8833C60.3097 49.9453 61.1776 48.8639 61.2121 48.0304C61.2396 47.1901 60.5233 47.073 60.2822 47.3761C60.0411 47.6723 60.1031 48.3611 60.1031 48.3611L60.2822 49.8833Z" fill="#325343"/>
<path d="M51.2508 43.4558C51.2508 43.4558 50.8651 43.1872 50.0868 43.9311C49.3084 44.6819 48.9778 45.6945 48.9778 46.3833C48.9778 47.0721 49.4255 47.9675 49.5151 48.3533C49.6046 48.739 49.7699 48.8148 49.949 48.305C50.1281 47.7953 49.6322 46.8241 50.2659 46.4039C50.8927 45.9838 50.9547 45.9562 51.3128 45.598C51.671 45.2398 51.8226 44.8817 52.1532 44.8197C52.4838 44.7577 52.5734 44.7026 52.6629 44.7577C52.7524 44.8197 52.842 45.1779 53.0486 45.233C53.2553 45.295 53.3173 45.474 53.765 45.5016C54.2127 45.5291 54.9291 45.1434 55.1702 45.1434C55.4112 45.1434 55.425 45.1572 55.487 45.3087C55.549 45.4603 55.5766 45.7151 55.7556 45.8942C55.9347 46.0733 57.2228 46.645 57.8841 46.2248C58.5384 45.8047 58.3318 45.9011 58.4764 45.9011C58.6211 45.9011 58.8484 45.9562 58.8484 45.9562L59.0895 46.1077C59.0895 46.1077 59.3857 46.2593 59.4752 46.4384C59.5647 46.6175 59.5923 46.4659 59.7163 46.7966C59.8334 47.1272 59.9229 47.8435 59.9229 47.8435L60.164 48.2017C60.164 48.2017 60.4946 47.5749 60.5222 47.3958C60.5497 47.2167 60.6393 47.0652 60.6393 46.1422C60.6393 45.2123 60.5773 44.4064 60.1296 44.2273C59.6818 44.0482 59.3994 43.7658 59.3994 43.7658C59.3994 43.7658 59.6543 43.1665 58.8759 42.4777C58.0976 41.7889 57.4708 41.4927 56.6649 41.4927C55.859 41.4927 55.3217 41.6718 55.3217 41.6718C55.3217 41.6718 54.7569 41.355 54.0956 41.355C53.4344 41.355 52.3185 41.8165 51.8363 42.3262C51.3542 42.8359 51.2508 43.4558 51.2508 43.4558Z" fill="#325343"/>
<path d="M49.8459 48.794C49.8459 48.794 49.5291 48.3187 49.288 48.2498C49.04 48.181 48.9436 48.4014 48.9436 48.7802C48.9436 49.166 49.2467 49.7514 49.5291 49.9994C49.8184 50.2474 50.0181 50.2887 50.0181 50.2887C50.0181 50.2887 49.722 49.2211 49.8459 48.794Z" fill="#F5F7F5"/>
<path d="M60.4475 47.644L60.4888 49.2421C60.4888 49.2421 60.8264 48.7668 60.9779 48.2846C61.1225 47.7887 60.7988 46.9415 60.4475 47.644Z" fill="#F5F7F5"/>
<path d="M29.2797 9.64271C29.197 9.63582 29.1144 9.64271 29.0317 9.64271C28.949 9.64271 28.8733 9.63582 28.7837 9.64271V9.6496C18.9131 9.7667 16.5505 18.9692 17.4942 23.1502C18.4516 27.4002 21.9163 30.059 23.6521 31.7741C25.3879 33.4892 24.6096 36.9746 24.6096 36.9746H28.7837H29.2728H33.447C33.447 36.9746 32.6686 33.4892 34.4044 31.7741C36.1402 30.059 39.6049 27.4002 40.5623 23.1502C41.5129 18.9623 39.1503 9.75981 29.2797 9.64271Z" fill="#F8E16C"/>
<path d="M35.1827 37.9179C35.0381 37.5804 34.7556 37.3324 34.4044 37.236C34.0875 37.1533 34.5008 36.5816 34.5283 36.3956C34.5834 36.0581 34.487 35.7137 34.3148 35.4244C33.7431 34.4876 32.0073 34.6598 31.0774 34.6116C29.5827 34.529 28.1087 34.591 26.6208 34.6529C25.7323 34.6874 24.396 34.5358 23.8518 35.4313C23.6727 35.7206 23.5832 36.065 23.6383 36.4025C23.6658 36.5816 24.0791 37.1533 23.7623 37.2429C23.4041 37.3393 23.1286 37.5873 22.9839 37.9248C22.8255 38.283 22.7291 38.8133 22.8737 39.1922C22.9908 39.5021 23.2939 39.6606 23.5832 39.7846C23.6658 39.819 23.8036 39.8603 23.8518 39.9499C23.9276 40.0739 23.838 40.129 23.7761 40.2461C23.6521 40.4803 23.597 40.7558 23.6245 41.0244C23.6934 41.6581 24.1893 42.0852 24.7886 42.2092L25.7736 42.3469C25.7736 42.3469 26.0009 44.9024 26.6277 45.7978C27.2545 46.6933 27.8813 46.8724 28.4186 46.9619C28.7975 47.0239 28.9903 47.0239 29.073 47.0101C29.1625 47.017 29.3554 47.0239 29.7273 46.9619C30.2646 46.8724 30.8914 46.6933 31.5182 45.7978C32.1451 44.9024 32.3724 42.3469 32.3724 42.3469L33.3574 42.2092C33.9566 42.0852 34.4526 41.6581 34.5214 41.0244C34.549 40.7558 34.4939 40.4803 34.3699 40.2461C34.3079 40.129 34.2184 40.0807 34.2941 39.9499C34.3424 39.8672 34.4801 39.8259 34.5628 39.7846C34.8521 39.6606 35.1551 39.5021 35.2722 39.1922C35.4376 38.8065 35.3411 38.2761 35.1827 37.9179Z" fill="#A0CFCE"/>
<path d="M23.9809 35.5631C23.9326 35.7215 23.8982 35.9144 23.912 36.0797C23.9533 36.6445 24.7041 36.9269 25.2069 36.9269C25.4136 36.9269 25.5031 36.9476 25.7167 36.9407C26.2057 36.9407 26.5846 36.92 27.0805 36.92C27.728 36.92 28.3961 36.9132 29.0436 36.9132C29.7255 36.9132 30.3661 36.8856 31.048 36.8856C31.6335 36.8856 32.1432 36.8581 32.7287 36.8581C33.08 36.8581 33.4864 36.8718 33.8446 36.8718C33.9341 36.8718 33.9548 36.7961 34.0374 36.7685C34.3336 36.6583 34.4163 36.3897 34.4301 36.1073C34.437 35.997 34.4301 35.8799 34.4163 35.7697C34.4025 35.6802 34.3887 35.5011 34.3267 35.4322C34.3267 35.4322 34.7125 35.8868 34.5541 36.3277C34.3956 36.7685 34.3474 37.2025 34.3474 37.2025L34.4163 37.2438C34.4163 37.2438 24.4355 37.2025 24.3873 37.2438C24.3459 37.2851 23.3609 37.2782 23.1543 37.6571C23.1543 37.6571 23.5814 37.2162 23.6985 37.1542C23.8156 37.0922 23.8844 37.0509 23.8844 37.0509C23.8844 37.0509 23.5469 36.8167 23.6365 36.0797C23.726 35.3427 24.2495 35.0327 24.2495 35.0327C24.2219 35.0465 24.0911 35.2531 24.0773 35.2807C24.0222 35.3909 24.0153 35.4322 23.9809 35.5631Z" fill="#325343"/>
<path d="M23.3477 37.4434C23.3477 37.4434 22.9275 38.3664 23.2168 38.8692C23.5061 39.372 24.3533 39.558 24.8011 39.558C25.2488 39.558 26.096 39.558 26.096 39.558L30.9865 39.434C30.9865 39.434 33.7418 39.4891 34.2722 39.3858C34.8025 39.2825 35.2434 38.7039 35.2985 38.2286C35.2985 38.2286 35.6911 38.9381 35.023 39.558C34.3548 40.1779 32.9359 40.0539 32.9359 40.0539L28.865 40.0195L24.3051 40.0608C24.3051 40.0608 24.188 40.0539 24.0296 40.0195C23.8092 39.9713 23.4992 39.8817 23.2857 39.682C22.9206 39.3514 22.9344 39.2894 22.9344 39.2894C22.9344 39.2894 22.3765 38.2424 23.3477 37.4434Z" fill="#325343"/>
<path d="M23.9065 40.1568C23.9065 40.1568 23.7137 40.8939 24.0994 41.3691C24.4782 41.8375 25.0775 41.934 25.5252 41.9822C25.973 42.0304 27.6399 41.9891 28.122 42.0304C28.6042 42.0786 32.799 42.0442 32.799 42.0442C32.799 42.0442 34.0527 41.7342 34.2869 41.19C34.521 40.6459 34.2662 40.2946 34.218 40.1568C34.1698 40.0191 34.2869 39.8331 34.2869 39.8331C34.2869 39.8331 34.28 39.902 34.3351 40.0673C34.3833 40.2326 34.6313 40.5288 34.5762 40.9972C34.5279 41.4656 34.2317 41.9477 33.7496 42.1406C33.2674 42.3335 32.372 42.4437 32.372 42.4437L32.3375 42.7536C32.3375 42.7536 28.9279 42.8638 28.1427 42.8707C27.3575 42.8845 25.8352 42.8707 25.8352 42.8707L25.7732 42.3335C25.7732 42.3335 24.5333 42.423 23.9203 41.7067C23.3073 40.9903 23.5759 40.2326 23.8652 39.9915C24.1545 39.7573 24.2027 39.7573 24.2027 39.7573L23.9065 40.1568Z" fill="#325343"/>
<path d="M25.938 42.7257L25.8416 42.8704C25.8416 42.8704 26.0069 44.3789 26.3995 45.3363C26.7921 46.2938 27.5222 46.9963 28.7965 47.0101C30.0777 47.0239 31.0834 46.8792 31.7515 45.3776C32.4197 43.8829 32.3714 42.4433 32.3714 42.4433L32.3163 42.3193C32.3163 42.3193 31.8342 44.6544 31.5104 45.233C31.1867 45.8185 30.4428 46.2662 29.9882 46.3626C29.5336 46.4591 28.6794 46.466 28.3075 46.3971C27.9355 46.3282 26.9368 46.1422 26.5579 44.8955C26.1791 43.6487 26.0069 42.6982 26.0069 42.6982L25.938 42.7257Z" fill="#325343"/>
<path d="M21.8333 11.8737C20.4488 12.9 19.2641 14.7667 18.5339 16.282C16.3642 20.7868 18.1069 25.6911 21.3718 29.1145C22.6117 30.4095 24.1064 31.3187 24.8503 32.9925C25.0914 33.5298 24.9192 34.7765 24.9192 34.7765L24.2372 35.0245C24.2372 35.0245 24.375 33.8328 23.9273 32.9649C23.4796 32.097 22.1019 30.8985 22.1019 30.8985C20.7037 29.8446 19.4156 28.5152 18.4306 27.0688C15.7856 23.1908 16.6948 17.7147 19.4569 14.1536C20.8001 12.4178 22.3568 11.4466 22.3568 11.4466C22.6185 11.2813 21.8333 11.8737 21.8333 11.8737Z" fill="#325343"/>
<path d="M33.0811 34.7284C33.0811 34.7284 33.1362 33.2888 33.4943 32.3589C33.8525 31.429 35.6779 30.1478 36.3322 29.4315C36.9866 28.7151 40.0724 26.1458 40.7544 21.7788C40.7544 21.7788 40.4857 25.9668 38.3298 28.2536C36.1738 30.5404 34.6791 31.5874 34.3829 32.1247C34.0867 32.662 33.8732 33.6332 33.8181 34.1085C33.7561 34.5768 33.8938 35.0246 33.8938 35.0246C33.8938 35.0246 33.5632 34.7904 33.0811 34.7284Z" fill="#325343"/>
<path d="M29.1542 34.5706V30.2311C29.1542 30.2105 29.1887 29.5905 29.0853 28.8811C29.0027 28.9775 28.9131 29.067 28.8167 29.1497C28.3552 29.5492 27.8042 29.7076 27.1911 29.6181C25.8617 29.4321 25.2487 28.4747 25.3313 27.6206C25.4071 26.8078 26.1235 25.9674 27.5011 26.0363C28.0797 26.0638 28.5687 26.298 28.9545 26.732C29.0578 26.8422 29.1404 26.9662 29.2231 27.0971C29.5124 26.1809 29.6364 25.0857 29.6433 24.1696C29.6639 22.3305 29.6433 21.8001 29.6433 21.7932C29.6364 21.6004 29.7879 21.4351 29.9808 21.4282C30.153 21.3868 30.339 21.5728 30.3459 21.7657C30.3459 21.7864 30.3665 22.3167 30.3459 24.1834C30.339 24.8378 30.2563 26.67 29.6226 28.0338C29.9257 29.0946 29.8568 30.1967 29.8568 30.2587V34.5706M27.3427 26.7389C26.4954 26.7389 26.0752 27.2073 26.027 27.6894C25.9788 28.1992 26.3508 28.7984 27.2807 28.9293C27.6939 28.9844 28.0452 28.888 28.3552 28.6193C28.5481 28.454 28.7134 28.2267 28.8649 27.965C28.7616 27.6757 28.6169 27.4139 28.431 27.2004C28.1761 26.9111 27.8593 26.7664 27.4666 26.7458C27.4253 26.7389 27.384 26.7389 27.3427 26.7389Z" fill="#325343"/>
<path d="M35.2649 1.44565C35.2649 1.44565 34.2868 3.36054 33.9079 4.67616C33.5291 5.99178 33.1158 7.72758 33.9562 6.83213C34.7965 5.93668 36.1052 0.433108 35.7746 0.67419C35.444 0.915273 35.2649 1.44565 35.2649 1.44565Z" fill="#325343"/>
<path d="M16.8796 2.36813C16.8796 2.36813 17.5822 4.40012 18.271 5.57798C18.9598 6.75584 19.9241 8.26432 19.8553 7.03136C19.7864 5.79839 16.7212 1.05251 16.6661 1.45202C16.6179 1.85842 16.8796 2.36813 16.8796 2.36813Z" fill="#325343"/>
<path d="M7.56172 15.4012C7.56172 15.4012 9.57303 16.1589 10.9231 16.3793C12.2732 16.5998 14.0434 16.8202 13.0584 16.0901C12.0734 15.3599 6.45963 14.6849 6.73515 14.9811C7.01067 15.2773 7.56172 15.4012 7.56172 15.4012Z" fill="#325343"/>
<path d="M9.77785 32.6761C9.77785 32.6761 11.8649 32.1664 13.1048 31.5878C14.3446 31.0092 15.9289 30.1895 14.7028 30.1413C13.4767 30.0931 8.46223 32.7105 8.85485 32.8001C9.24747 32.8896 9.77785 32.6761 9.77785 32.6761Z" fill="#325343"/>
<path d="M48.0149 11.8884C48.0149 11.8884 46.1207 12.9009 45.0599 13.7688C44.006 14.6367 42.6698 15.8215 43.8752 15.5666C45.0737 15.3049 49.2823 11.5302 48.8828 11.544C48.4764 11.5509 48.0149 11.8884 48.0149 11.8884Z" fill="#325343"/>
<path d="M47.0081 31.1126C47.0081 31.1126 45.1139 30.0932 43.8051 29.6937C42.4964 29.2942 40.7744 28.8395 41.6492 29.6937C42.5309 30.5547 48 31.9667 47.7727 31.6361C47.5454 31.3124 47.0081 31.1126 47.0081 31.1126Z" fill="#325343"/>
<path d="M101.866 68.1766C97.8224 72.5023 93.9031 76.9451 90.1284 81.5257C86.6086 85.8032 82.5309 90.1771 79.9547 95.1089C79.8376 95.3363 79.7136 95.5773 79.7136 95.8391C79.7067 97.6024 83.5985 95.0125 84.1427 94.6199C91.1547 89.6192 97.5193 83.7574 103.34 77.4204C108.83 71.4346 114.443 64.953 118.838 58.1062C119.499 57.073 120.057 55.9847 120.367 54.7931C121.083 52.0516 116.868 54.1869 114.967 55.9847C109.759 60.9028 106.756 62.9485 101.866 68.1766Z" fill="#325343"/>
<path d="M80.5807 93.9801C80.5807 93.9801 79.4098 95.8881 80.5807 95.7916C81.7517 95.6952 88.3849 90.171 92.4695 86.5892C96.5542 83.0074 104.847 73.8325 106.776 71.5319C108.705 69.2381 116.357 59.8428 117.494 58.1139C120.449 53.6298 119.698 53.3818 119.051 53.5402C118.403 53.6986 115.242 54.1533 102.602 67.1304C97.0295 72.8544 90.1345 81.5196 90.1345 81.5196C90.1345 81.5196 81.6071 91.4039 80.5807 93.9801Z" fill="#A0CFCE"/>
<path d="M94.074 76.85C94.074 76.85 98.3928 80.9484 98.6614 80.9966C98.9301 81.0448 99.8531 79.9634 99.8531 79.9634L95.0934 75.5137L94.074 76.85Z" fill="#325343"/>
</svg>
