<svg width="141" height="129" viewBox="0 0 141 129" fill="none" xmlns="http://www.w3.org/2000/svg">
<path d="M15.1309 24.3501C11.3609 26.2701 8.06086 28.9501 5.77086 32.5001C1.37086 39.3401 1.20086 48.2701 5.22086 55.3401C5.22086 55.3401 11.0709 65.8101 8.72086 73.3401C6.37086 80.8701 -2.04914 86.2301 1.26086 101.81C4.57086 117.39 21.0509 123.64 33.0509 122.75C45.0509 121.86 55.9009 113.94 64.8409 110.88C73.7809 107.82 92.2909 113.31 92.2909 113.31C92.2909 113.31 113.661 121.99 127.651 109.61C141.641 97.2301 139.781 80.3801 139.781 80.3801C139.781 80.3801 140.931 64.4201 130.461 54.5901C119.991 44.7601 98.8009 49.1001 98.8009 49.1001C87.5009 50.9701 74.4809 50.7501 65.6409 42.6301C55.4009 33.2201 47.4209 20.2801 31.8709 20.4601C26.3409 20.5201 20.2909 21.7201 15.1309 24.3501Z" fill="#F6BA81"/>
<path d="M76.0709 13.9802C75.7109 14.1102 66.8809 18.0702 70.7109 26.8702C74.5409 35.6702 91.5209 35.0402 91.5209 35.0402C91.5209 35.0402 101.731 34.2702 101.731 25.3402C101.731 16.4102 92.5409 7.85024 76.0709 13.9802Z" fill="#F6BA81"/>
<path d="M3.88086 82.5802C24.2609 84.7002 47.6709 84.9902 65.0509 72.8702C69.4009 69.8402 73.5709 66.2902 76.0509 61.5102C77.0409 59.5902 77.7409 57.4502 77.5409 55.3002C76.8509 47.6402 67.9109 49.6202 67.5209 56.2902C67.2909 60.2902 68.5509 64.8402 70.2509 68.4402C75.7409 80.0202 88.7009 82.4102 100.191 83.6602C112.911 85.0402 128.471 85.8202 139.801 78.7202" stroke="#325343" stroke-width="1.25" stroke-miterlimit="10" stroke-linecap="round"/>
<path d="M9.1809 51.9002C9.1809 51.9002 4.0709 58.5402 3.3109 59.6902C2.5409 60.8402 1.2709 63.6502 2.4209 67.7302C3.5709 71.8102 5.3609 75.5202 7.5309 73.8602C9.7009 72.2002 8.4209 66.4602 10.9809 63.6502C13.5309 60.8402 18.3809 56.3702 18.3809 56.3702L20.1709 50.5002L18.5009 46.9202C18.5009 46.9202 12.5009 47.9402 9.1809 51.9002Z" fill="#FFF5EE"/>
<path d="M13.0108 23.1702C13.0108 23.1702 9.82083 22.6602 9.56083 25.3402C9.30083 28.0202 10.9608 29.5502 13.7708 30.8302C16.5808 32.1102 18.4908 33.1302 20.2808 34.1502C22.0708 35.1702 27.6808 35.3002 31.6408 35.1702C35.6008 35.0402 37.9008 33.5102 40.0708 31.6002C42.2408 29.6902 43.1308 27.9002 43.5208 25.8602C43.9008 23.8202 44.1608 23.3102 44.1608 23.3102C44.1608 23.3102 45.9508 22.1602 45.9508 20.1202C45.9508 18.0802 45.9508 14.8902 44.6708 14.7602C43.3908 14.6302 43.0108 15.2702 43.0108 15.2702C43.0108 15.2702 41.9908 9.78016 39.8208 7.74016C37.6508 5.70016 30.3708 3.91016 30.3708 3.91016L23.4808 5.06016L19.2708 7.74016L15.9508 9.53016L13.0108 13.7402C13.0108 13.7402 13.2708 15.7802 13.0108 16.1702C12.7508 16.5402 11.3508 21.0002 13.0108 23.1702Z" fill="#FFF5EE"/>
<path d="M19.5545 23.8897C19.9545 22.6897 21.3878 22.3897 22.0545 22.3897C22.5545 22.3453 24.5544 22.3897 24.5544 23.8897C24.5544 24.3897 23.1931 25.3897 22.0545 25.3897C21.0545 25.3897 19.1545 25.0897 19.5545 23.8897Z" fill="#F6BA81"/>
<path d="M40.7839 18.4898C39.9896 17.7947 38.8311 18.1835 38.3512 18.4648C37.9724 18.6438 36.5 19.3798 37.1844 20.5995C37.5 21.162 38.7973 21.1049 39.617 20.6245C40.3369 20.2025 41.5782 19.1849 40.7839 18.4898Z" fill="#F6BA81"/>
<path d="M47.3508 29.6802C47.3508 29.6802 52.7108 20.8702 53.7308 19.0802C54.7508 17.2902 58.2008 12.4402 59.0908 10.9102C59.9808 9.3802 60.2408 7.4602 62.1508 5.4202C64.0608 3.3802 67.8908 1.2102 69.3008 1.3302C70.7008 1.4602 71.2108 2.7302 70.9608 4.0102C70.7008 5.2902 68.5308 8.7302 67.5108 10.2702C66.4908 11.8102 64.7008 12.8202 64.0608 14.8702C63.4208 16.9202 61.8908 22.6602 60.8708 24.5702C59.8508 26.4802 54.2308 37.4602 54.2308 37.4602L51.4208 40.7802L47.2108 35.5502L47.3508 29.6802Z" fill="#FFF5EE"/>
<path d="M16.5809 110.36C16.5809 110.36 15.9409 119.42 17.0909 123.51C18.2409 127.6 19.1309 129.13 20.9209 127.98C22.7109 126.83 26.9209 119.94 28.4509 115.72C29.9809 111.51 30.8809 105.63 30.4909 105.51C30.1109 105.38 16.4509 104.11 16.4509 104.11L16.5809 110.36Z" fill="#A0CFCE"/>
<path d="M47.2208 108.71C47.2208 108.71 49.3908 117.65 50.2808 120.07C51.1708 122.5 53.4708 125.81 55.6408 126.33C57.8108 126.84 60.4908 119.95 60.3608 114.33C60.2308 108.71 59.2108 102.71 59.2108 102.71L47.2208 108.71Z" fill="#A0CFCE"/>
<path d="M18.7509 77.0502C17.0809 86.2902 15.9109 95.7302 16.4009 105.14L16.3809 116.76C16.3809 116.76 23.9209 118.32 27.5909 117.8C27.5909 117.8 30.7509 108.34 31.7709 104.13C32.7909 99.9202 33.8109 91.4902 35.7309 89.7002C37.6409 87.9102 40.2009 90.2102 41.0909 91.4902C41.9809 92.7702 43.9009 99.9202 43.9009 99.9202L48.6909 114.55L49.5109 117.92C49.5109 117.92 57.0509 118.66 60.3709 114.99C60.3709 114.99 60.2809 107.66 59.1209 99.6702C58.3309 94.2002 54.8809 74.2902 54.8809 74.2902L39.5609 69.9302C39.5609 69.9002 19.5509 72.6402 18.7509 77.0502Z" fill="#A0CFCE"/>
<path d="M16.2909 55.3402C16.2909 55.3402 18.8809 58.6802 19.2609 60.5902C19.6409 62.4902 19.2609 72.6202 18.7509 74.2602C18.2409 75.9002 17.8609 78.9602 17.8609 78.9602C17.8609 78.9602 25.9009 81.6402 33.6909 82.1502C41.4809 82.6602 53.3509 77.9402 53.3509 77.9402L55.3909 76.6602C55.3909 76.6602 52.5809 60.4502 52.7109 53.9402C52.8409 47.4302 53.3509 41.3002 52.9709 40.7902C52.5909 40.2802 47.2309 35.5602 47.2309 35.5602L44.4209 31.9902C44.4209 31.9902 41.9909 35.4402 40.3309 35.9502C38.6709 36.4602 28.7109 39.4002 28.7109 39.4002C28.7109 39.4002 21.9409 40.2902 20.2809 41.0602C18.6209 41.8302 16.8309 45.0202 15.9409 48.2102C15.0509 51.3902 16.2909 55.3402 16.2909 55.3402Z" fill="#F8E16C"/>
<path d="M26.4109 34.4102C26.4109 34.4102 27.4309 38.5002 27.4309 39.6402C27.4309 40.7902 28.4509 41.6802 32.2809 42.0702C36.1109 42.4502 37.6409 41.4302 38.2809 40.4102C38.9209 39.3902 39.4309 38.7502 39.1709 38.3702C38.9109 37.9902 37.3809 30.4602 37.3809 30.4602C37.3809 30.4602 27.9509 32.2402 26.4109 34.4102Z" fill="#FFF5EE"/>
<path d="M8.8009 52.2802C8.8009 52.2802 10.2009 54.7702 12.1209 56.3002C14.0409 57.8302 18.2109 58.3602 18.2109 58.3602C18.2109 58.3602 22.3409 55.3402 23.1009 51.8902C23.8709 48.4402 23.7609 39.8802 20.2909 41.0402C19.5209 41.3002 15.6909 42.5702 13.9109 44.4902C12.1309 46.4102 8.8009 51.1302 8.8009 51.1302V52.2802Z" fill="#4B7B3F"/>
<path d="M36.8809 47.8102L39.2509 56.2402C39.2509 56.2402 40.8409 57.0402 42.6309 57.0902C44.4209 57.1402 46.2009 56.8802 47.2309 55.9902C48.2509 55.1002 47.2309 46.2902 47.2309 46.2902C47.2309 46.2902 38.6709 48.4502 36.8809 47.8102Z" fill="#4B7B3F"/>
<path d="M47.6809 27.0002L44.0509 32.4702L42.2809 34.5302C42.2809 34.5302 43.1409 38.6602 46.4609 40.9402C49.7809 43.2202 53.1009 43.0902 53.1009 43.0902C53.1009 43.0902 53.9909 38.7402 55.4009 37.0802C56.8009 35.4202 57.4109 34.2902 57.2209 34.1002C57.0309 33.9102 48.3309 28.8702 47.6809 27.0002Z" fill="#4B7B3F"/>
<path d="M10.2509 28.2502C10.2509 28.2502 13.2109 31.3402 16.1409 33.1902C19.0709 35.0402 19.4109 35.0202 21.0109 35.7202C21.6709 36.0102 24.7509 36.9502 25.3909 37.1502C26.1809 37.4002 28.0509 37.7202 28.8809 37.7602C31.7009 37.8802 33.1609 37.6502 35.7809 36.4902C38.2409 35.3902 40.3109 33.5002 41.7909 31.2702C42.5509 30.1302 43.1609 28.8802 43.5809 27.5702C43.7009 27.1802 44.7209 23.9802 44.6209 23.6102C45.1109 23.5902 45.7009 22.9502 46.0909 22.2702C46.4809 21.5902 46.5509 20.7602 46.5409 19.9702C46.5309 18.9302 46.4109 17.8802 46.1909 16.8602C46.0009 15.9802 45.6909 15.0602 44.9809 14.4902C45.3809 16.3502 45.5309 18.2602 45.4209 20.1502C45.3809 20.7902 45.6309 21.5302 45.2509 22.0402C44.8109 22.6302 43.7409 22.8402 43.0309 23.0302C42.9809 23.0502 42.5909 25.5002 42.5209 25.7502C42.2309 26.7302 41.8209 27.6702 41.3109 28.5502C40.4609 30.0202 39.2009 31.2402 37.8209 32.2102C35.0809 34.1402 31.6009 35.3002 28.2409 35.1002C26.0009 34.9602 23.1109 34.7602 21.0609 33.7602C18.8309 32.6702 18.0609 31.2102 18.0609 31.2102C18.0609 31.2102 15.6509 32.4302 10.2509 28.2502Z" fill="#325343"/>
<path d="M12.1808 26.3602C11.9808 26.3402 13.5808 25.9102 14.9908 26.3602C15.6308 26.5602 17.9208 27.3502 17.4008 28.3502C17.3208 28.5102 17.1808 28.6302 17.0508 28.7502C16.9908 28.8002 16.9208 28.8602 16.8408 28.8702C16.7708 28.8802 16.7108 28.8502 16.6408 28.8202C16.3208 28.6802 16.0708 28.4502 15.7908 28.2502C15.4608 28.0202 15.1708 27.7402 14.8708 27.4902C14.0808 26.8402 13.2108 26.4502 12.1808 26.3602Z" fill="#325343"/>
<path d="M43.6309 17.5902C43.3709 17.7202 43.1109 18.4202 43.3009 19.1902C43.4909 19.9602 43.6009 21.4202 43.7309 20.7202C43.8609 20.0202 44.2309 16.6702 44.2309 16.6702L43.6309 17.5902Z" fill="#325343"/>
<path d="M30.7308 18.9202C30.6208 18.8102 30.5008 18.7202 30.3608 18.6402C30.1508 18.5102 29.8808 18.4602 29.6508 18.5602C29.4008 18.6702 29.2608 18.9302 29.2308 19.2002C29.1208 20.4502 30.1508 21.9902 30.4908 23.1802C30.4908 23.1802 30.9408 24.7102 31.7708 24.5802C32.6008 24.4502 32.5408 23.7502 32.2208 22.6002C31.9208 21.5002 31.5 20.3799 30.7308 18.9202Z" fill="#325343"/>
<circle cx="22" cy="19.8799" r="1.5" fill="#325343"/>
<circle cx="35.875" cy="15.7549" r="1.375" fill="#325343"/>
<path d="M47.6809 27.0003C47.6809 27.0003 48.8209 29.4303 50.3509 30.7703C51.8809 32.1103 56.5409 34.2203 56.5409 34.2203C56.5409 34.2203 52.1409 41.4303 52.1109 44.6203C52.0809 47.8103 52.7509 57.3003 53.0809 60.2503C53.4109 63.2103 53.3609 62.7503 53.3609 62.7503C53.3609 62.7503 53.2209 54.3203 53.0409 51.9603C52.8509 49.5903 53.4209 44.3403 54.1909 42.1503C54.9609 39.9603 57.6409 35.2103 57.6409 35.2103C57.6409 35.2103 58.2809 33.7603 58.0209 33.7603C57.7609 33.7603 57.2609 32.9903 57.2609 32.9903C57.2609 32.9903 59.9409 29.0603 61.2109 26.1103C62.4909 23.1603 65.1209 13.5403 65.1209 13.5403C65.1209 13.5403 66.8309 12.2503 68.1009 10.2003C69.3709 8.15025 70.9709 4.01025 70.9709 4.01025C70.9709 4.01025 68.0309 9.31025 66.8209 10.2703C65.6109 11.2303 65.3209 11.4803 64.5509 12.9503C63.7809 14.4203 63.0809 18.0503 62.0909 20.8903C61.0409 23.9303 58.4509 28.8403 57.6209 29.9303C56.7909 31.0203 55.7109 32.5503 55.7109 32.5503C55.7109 32.5503 50.4009 30.7903 47.6809 27.0003Z" fill="#325343"/>
<path d="M8.80081 52.2802C8.80081 52.2802 9.68081 54.9602 11.0608 56.1102C12.4408 57.2602 14.5408 58.5401 14.2908 58.5401C14.0308 58.5401 10.9808 60.2601 9.54081 62.7901C8.10081 65.3201 8.23081 70.0802 8.16081 71.6502C8.10081 73.2201 7.56081 74.4202 6.69081 74.2702C5.82081 74.1202 4.69081 73.7602 3.83081 71.6502C3.83081 71.6502 4.20081 74.7602 6.56081 74.8802C8.92081 75.0102 10.2208 72.8202 10.2408 71.6502C10.2608 70.4802 10.5108 64.1002 11.5108 63.0602C12.5108 62.0202 14.3008 60.2402 14.3008 60.2402C14.3008 60.2402 15.9408 58.4802 16.7008 58.5502C17.4708 58.6102 18.3608 59.3801 18.3608 59.3801C18.3608 59.3801 18.3608 67.3602 18.3608 69.3402C18.3608 71.3202 17.3408 78.4002 17.4708 79.3002C17.6008 80.1902 21.6808 81.4701 21.6808 81.4701C21.6808 81.4701 28.5708 84.4701 37.1908 83.3201C40.7708 82.8401 44.3008 81.9801 47.7308 80.8201C50.6208 79.8501 53.2008 78.8702 55.3108 76.5502C55.0908 76.8702 54.7008 77.0202 54.3408 77.1502C45.6308 80.3102 39.9708 83.0602 30.0008 81.7302C29.5608 81.6702 25.5908 81.1202 25.1608 80.9802C23.9808 80.6202 22.4808 80.1001 21.3308 79.6401C21.1508 79.5701 18.8708 78.4902 18.8708 78.3302C18.8708 78.3302 18.9308 73.2901 19.5108 69.9002C20.0908 66.5101 19.2908 58.1902 18.8108 57.8402C18.3308 57.4902 16.3808 57.8402 15.6108 57.5802C14.8608 57.3202 10.8408 55.4702 8.80081 52.2802Z" fill="#325343"/>
<path d="M17.8108 79.7302C17.8108 79.7302 16.7808 91.2202 16.4008 98.1102C16.0208 105 16.4008 117.79 16.4008 117.79C16.4008 117.79 17.2508 98.8802 17.6208 94.6602C17.9808 90.4502 19.0708 79.4702 19.0708 79.4702L17.8108 79.7302Z" fill="#325343"/>
<path d="M16.7308 121.65C16.7308 121.65 17.3508 128.81 19.8408 128.68C22.3308 128.55 25.2208 124.85 26.2708 122.52C27.3208 120.19 30.6508 108.18 30.6508 108.18C30.6508 108.18 26.4808 120.1 24.5108 122.82C22.5408 125.54 19.2908 130.83 16.7308 121.65Z" fill="#325343"/>
<path d="M34.4009 92.2402C34.4009 92.2402 38.6709 91.3402 40.2009 92.6202C41.7309 93.9002 43.9009 102 43.9009 102C44.8309 105.64 45.8409 109.25 46.8409 112.87C47.8809 116.64 48.9309 121.07 51.4209 124.14C52.5409 125.52 54.6309 127.57 56.6009 126.69C58.9009 125.67 60.6209 118.65 60.3709 114.31C60.3709 114.31 58.7709 122.67 57.6309 124.08C55.7709 126.35 53.2109 123.85 52.0109 122.2C49.2809 118.43 48.2809 113.1 47.2209 108.7C45.9009 103.21 44.6009 98.7002 42.5009 93.4502C41.5409 91.2202 37.1009 83.8802 34.4009 92.2402Z" fill="#325343"/>
<path d="M15.6209 5.6802C15.6209 5.6802 11.46 7.27988 9.5 12.3799C7.54 17.4799 10.0009 24.1102 10.0009 24.1102C10.0009 24.1102 11.9009 23.1702 13.1809 23.4702C14.4609 23.7702 15.4809 25.0002 15.8609 24.7902C16.2409 24.5802 16.8409 24.9602 16.4609 24.1102C16.0809 23.2602 14.7409 19.5902 14.8209 18.7802C14.9109 17.9702 15.2609 18.1902 16.7509 16.6602C18.2409 15.1302 19.0709 13.6902 18.8609 10.2502C18.8609 10.2502 21.0709 11.4902 26.0109 12.0102C30.9509 12.5302 37.8809 9.7102 37.8809 9.7102C37.8809 9.7102 39.7109 12.1702 40.4309 13.5702C41.1509 14.9702 41.9909 18.7302 42.4609 17.9802C42.9309 17.2302 43.2409 15.0502 43.2409 15.0502C43.2409 15.0502 43.2709 10.5402 42.9309 9.2202C42.5909 7.9002 38.2609 0.780199 29.2309 0.410199C20.2009 0.0401993 16.2209 3.1302 15.6209 5.6802Z" fill="#325343"/>
<path d="M9 18.8799V16.8799C9.79919 16.0796 12.6608 14.0302 13.5608 10.3102C14.4308 6.70018 14.2508 6.55018 14.2508 6.53018L15.6308 5.68018C15.7108 6.26018 15.4008 9.10018 15.0208 10.6602C13.9808 14.9402 9.24 18.7199 9 18.8799Z" fill="#9BD58B"/>
<path d="M30.5008 7.71021C22.1208 7.71021 18.9708 2.44021 18.8408 2.22021L20.1408 1.47021C20.2508 1.66021 23.0208 6.21021 30.5008 6.21021C37.9908 6.21021 39.9308 4.90021 39.9508 4.88021L40.8708 6.07021C40.6508 6.24021 38.5708 7.71021 30.5008 7.71021Z" fill="#9BD58B"/>
<path d="M27.1209 36.6401L27.0209 37.1801L27.3609 38.8401C27.3609 38.8401 31.1409 39.2301 34.0109 38.3301C36.8809 37.4401 38.6409 36.3001 38.6409 36.3001L38.2209 33.9001C38.2209 33.9001 33.4609 35.5601 33.3709 35.5901C33.2809 35.6201 27.1209 36.6401 27.1209 36.6401Z" fill="#325343"/>
<path d="M129.041 51.9001C129.041 51.9001 134.151 58.5401 134.911 59.6901C135.681 60.8401 136.951 63.6501 135.801 67.7301C134.651 71.8201 132.861 75.5201 130.691 73.8601C128.521 72.2001 129.801 66.4601 127.241 63.6501C124.691 60.8401 119.841 56.3701 119.841 56.3701L118.051 50.5001L119.711 46.9301C119.731 46.9201 125.731 47.9401 129.041 51.9001Z" fill="#FFF5EE"/>
<path d="M125.221 23.1702C125.221 23.1702 128.411 22.6602 128.671 25.3402C128.931 28.0202 127.111 29.5402 124.301 30.8102C121.491 32.0902 119.731 33.1202 117.941 34.1502C116.151 35.1702 110.541 35.3002 106.581 35.1702C102.621 35.0402 100.321 33.5102 98.1509 31.6002C95.9809 29.6902 95.0909 27.9002 94.7009 25.8602C94.3109 23.8202 94.0609 23.3102 94.0609 23.3102C94.0609 23.3102 92.2709 22.1602 92.2709 20.1202C92.2709 18.0802 92.2709 14.8902 93.5509 14.7602C94.8309 14.6302 95.2109 15.2702 95.2109 15.2702C95.2109 15.2702 96.2309 9.78016 98.4009 7.74016C100.571 5.70016 107.851 3.91016 107.851 3.91016L114.741 5.06016L118.951 7.74016L122.271 9.53016L125.211 13.7402C125.211 13.7402 124.951 15.7802 125.211 16.1702C125.471 16.5602 126.871 21.0002 125.221 23.1702Z" fill="#FFF5EE"/>
<path d="M90.8708 29.6802C90.8708 29.6802 85.5108 20.8702 84.4908 19.0802C83.4708 17.2902 80.0208 12.4402 79.1308 10.9102C78.2408 9.3802 77.9808 7.4602 76.0708 5.4202C74.1608 3.3802 70.3308 1.2102 68.9208 1.3302C67.5208 1.4602 67.0108 2.7302 67.2608 4.0102C67.5108 5.2902 69.6908 8.7302 70.7108 10.2702C71.7308 11.8102 73.5208 12.8202 74.1608 14.8702C74.8008 16.9202 76.3308 22.6602 77.3508 24.5702C78.3708 26.4802 83.9908 37.4602 83.9908 37.4602L86.8008 40.7802L91.0108 35.5502L90.8708 29.6802Z" fill="#FFF5EE"/>
<path d="M121.641 110.36C121.641 110.36 122.281 119.42 121.131 123.51C119.981 127.6 119.091 129.13 117.301 127.98C115.511 126.83 111.301 119.94 109.771 115.72C108.241 111.5 107.341 105.63 107.731 105.51C108.111 105.38 121.771 104.11 121.771 104.11L121.641 110.36Z" fill="#FFF5EE"/>
<path d="M91.0009 108.71C91.0009 108.71 88.8309 117.65 87.9409 120.07C87.0509 122.49 84.7509 125.81 82.5809 126.33C80.4109 126.84 77.7309 119.95 77.8609 114.33C77.9909 108.71 79.0109 102.71 79.0109 102.71L91.0009 108.71Z" fill="#FFF5EE"/>
<path d="M119.471 77.0502C121.141 86.2902 122.311 95.7302 121.821 105.14L121.841 116.76C121.841 116.76 114.301 118.32 110.631 117.8C110.631 117.8 107.471 108.34 106.451 104.13C105.431 99.9202 104.411 91.4902 102.491 89.7002C100.581 87.9102 98.0208 90.2102 97.1308 91.4902C96.2408 92.7702 94.3208 99.9202 94.3208 99.9202L89.5308 114.55L88.7108 117.92C88.7108 117.92 81.1708 118.66 77.8508 114.99C77.8508 114.99 77.9408 107.66 79.1008 99.6702C79.8908 94.2002 83.3408 74.2902 83.3408 74.2902L98.6608 69.9302C98.6608 69.9002 118.671 72.6402 119.471 77.0502Z" fill="#A0CFCE"/>
<path d="M121.931 55.3402C121.931 55.3402 119.341 58.6802 118.961 60.5902C118.581 62.4902 118.961 72.6202 119.471 74.2602C119.981 75.9002 120.361 78.9602 120.361 78.9602C120.361 78.9602 112.321 81.6402 104.531 82.1502C96.7408 82.6602 84.8708 77.9402 84.8708 77.9402L82.8308 76.6602C82.8308 76.6602 85.6408 60.4502 85.5108 53.9402C85.3808 47.4302 84.8708 41.3002 85.2508 40.7902C85.6308 40.2802 90.9908 35.5602 90.9908 35.5602L93.8008 31.9902C93.8008 31.9902 96.2308 35.4402 97.8908 35.9502C99.5508 36.4602 109.511 39.4002 109.511 39.4002C109.511 39.4002 116.281 40.2902 117.941 41.0602C119.601 41.8302 121.391 45.0202 122.281 48.2102C123.171 51.3902 121.931 55.3402 121.931 55.3402Z" fill="#4B7B3F"/>
<path d="M110.791 39.6402C110.911 38.5002 111.811 34.4102 111.811 34.4102C110.281 32.2402 100.831 30.4502 100.831 30.4502C100.831 30.4502 99.3009 37.9802 99.0409 38.3602C98.7809 38.7402 98.4909 41.1302 99.1309 42.1502L102.301 48.7702C102.301 48.7702 107.831 45.3902 108.641 44.1702C109.451 42.9502 110.471 42.6402 110.791 39.6402Z" fill="#FFF5EE"/>
<path d="M129.431 52.2802C129.431 52.2802 128.031 54.7702 126.111 56.3002C124.191 57.8302 121.511 58.5302 121.511 58.5302C121.511 58.5302 115.891 55.3402 115.131 51.8902C114.361 48.4402 114.471 39.8802 117.941 41.0402C118.711 41.3002 122.541 42.5702 124.321 44.4902C126.101 46.4102 129.431 51.1302 129.431 51.1302V52.2802Z" fill="#4B7B3F"/>
<path d="M101.341 47.8102L98.9708 56.2402C98.9708 56.2402 97.3808 57.0402 95.5908 57.0902C93.8008 57.1402 92.0208 56.8802 90.9908 55.9902C89.9708 55.1002 90.9908 46.2902 90.9908 46.2902C90.9908 46.2902 99.5608 48.4502 101.341 47.8102Z" fill="#4B7B3F"/>
<path d="M90.5509 27.0002L94.1809 32.4702L95.9509 34.5302C95.9509 34.5302 95.0909 38.6602 91.7709 40.9402C88.4509 43.2202 85.1309 43.0902 85.1309 43.0902C85.1309 43.0902 84.2409 38.7402 82.8309 37.0802C81.4309 35.4202 80.8209 34.2902 81.0109 34.1002C81.2009 33.9102 89.8909 28.8702 90.5509 27.0002Z" fill="#4B7B3F"/>
<path d="M127.981 28.2502C127.981 28.2502 125.021 31.3402 122.091 33.1902C119.161 35.0402 118.821 35.0202 117.221 35.7202C116.561 36.0102 113.481 36.9502 112.841 37.1502C112.051 37.4002 110.181 37.7202 109.351 37.7602C106.531 37.8802 105.071 37.6502 102.451 36.4902C99.9908 35.3902 97.9208 33.5002 96.4408 31.2702C95.6808 30.1302 95.0708 28.8802 94.6508 27.5702C94.5308 27.1802 93.8708 24.6002 93.9908 23.7102C93.2008 23.5002 92.5308 22.9602 92.1408 22.2702C91.7508 21.5902 91.6808 20.7602 91.6908 19.9702C91.7008 18.9302 91.8208 17.8802 92.0408 16.8602C92.2308 15.9802 92.5408 15.0602 93.2508 14.4902C92.8508 16.3502 92.7008 18.2602 92.8108 20.1502C92.8508 20.7902 92.9308 21.4602 93.3108 21.9802C93.7508 22.5702 94.4708 23.0702 95.1808 23.2702C95.2308 23.2902 95.6508 25.5102 95.7208 25.7602C96.0108 26.7402 96.4208 27.6802 96.9308 28.5602C97.7808 30.0302 99.0408 31.2502 100.421 32.2202C103.161 34.1502 106.641 35.3102 110.001 35.1102C112.241 34.9702 115.131 34.7702 117.181 33.7702C119.411 32.6802 120.181 31.2202 120.181 31.2202C120.181 31.2202 122.571 32.4302 127.981 28.2502Z" fill="#325343"/>
<path d="M126.681 26.3602C126.881 26.3402 125.281 25.9102 123.871 26.3602C123.231 26.5602 120.941 27.3502 121.461 28.3502C121.541 28.5102 121.681 28.6302 121.811 28.7502C121.871 28.8002 121.941 28.8602 122.021 28.8702C122.091 28.8802 122.151 28.8502 122.221 28.8202C122.541 28.6802 122.791 28.4502 123.071 28.2502C123.401 28.0202 123.691 27.7402 123.991 27.4902C124.781 26.8402 125.651 26.4502 126.681 26.3602Z" fill="#325343"/>
<path d="M94.6009 17.5902C94.8609 17.7202 95.1209 18.4202 94.9309 19.1902C94.7409 19.9602 94.6309 21.4202 94.5009 20.7202C94.3709 20.0202 94.0009 16.6702 94.0009 16.6702L94.6009 17.5902Z" fill="#325343"/>
<path d="M107.501 18.9202C107.611 18.8102 107.731 18.7202 107.871 18.6402C108.081 18.5102 108.351 18.4602 108.581 18.5602C108.831 18.6702 108.971 18.9302 109.001 19.2002C109.111 20.4502 108.081 21.9902 107.741 23.1802C107.741 23.1802 107.291 24.7102 106.461 24.5802C105.631 24.4502 105.691 23.7502 106.011 22.6002C106.311 21.5002 106.591 19.7902 107.501 18.9202Z" fill="#325343"/>
<circle cx="117" cy="19.8799" r="1.5" fill="#325343"/>
<circle cx="101.875" cy="15.7549" r="1.375" fill="#325343"/>
<path d="M90.5509 27.0003C90.5509 27.0003 89.4109 29.4303 87.8809 30.7703C86.3509 32.1103 81.6909 34.2203 81.6909 34.2203C81.6909 34.2203 86.0909 41.4303 86.1209 44.6203C86.1509 47.8103 85.4809 57.3003 85.1509 60.2503C84.8209 63.2103 84.8709 62.7503 84.8709 62.7503C84.8709 62.7503 85.0109 54.3203 85.1909 51.9603C85.3809 49.5903 84.8109 44.3403 84.0409 42.1503C83.2709 39.9603 80.5909 35.2103 80.5909 35.2103C80.5909 35.2103 79.9509 33.7603 80.2109 33.7603C80.4709 33.7603 80.9709 32.9903 80.9709 32.9903C80.9709 32.9903 78.2909 29.0603 77.0209 26.1103C75.7509 23.1603 73.1109 13.5403 73.1109 13.5403C73.1109 13.5403 71.4009 12.2503 70.1309 10.2003C68.8609 8.15025 67.2609 4.01025 67.2609 4.01025C67.2609 4.01025 70.2009 9.31025 71.4109 10.2703C72.6209 11.2303 72.9109 11.4803 73.6809 12.9503C74.4509 14.4203 75.1509 18.0503 76.1409 20.8903C77.1909 23.9303 79.7809 28.8403 80.6109 29.9303C81.4409 31.0203 82.5209 32.5503 82.5209 32.5503C82.5209 32.5503 87.8209 30.7903 90.5509 27.0003Z" fill="#325343"/>
<path d="M129.431 52.2802C129.431 52.2802 128.551 54.9602 127.171 56.1102C125.791 57.2602 123.691 58.5401 123.941 58.5401C124.191 58.5401 127.251 60.2601 128.691 62.7901C130.131 65.3201 130.001 70.0802 130.071 71.6502C130.141 73.2201 130.671 74.4202 131.541 74.2702C132.411 74.1202 133.541 73.7602 134.401 71.6502C134.401 71.6502 134.031 74.7602 131.671 74.8802C129.311 75.0102 128.011 72.8202 127.991 71.6502C127.971 70.4802 127.721 64.1002 126.721 63.0602C125.721 62.0202 123.931 60.2402 123.931 60.2402C123.931 60.2402 122.291 58.4802 121.531 58.5502C120.771 58.6202 119.871 59.3801 119.871 59.3801C119.871 59.3801 119.871 67.3602 119.871 69.3402C119.871 71.3202 120.891 78.4002 120.761 79.3002C120.631 80.1902 116.551 81.4701 116.551 81.4701C116.551 81.4701 109.661 84.4701 101.041 83.3201C97.4609 82.8401 93.9309 81.9801 90.5009 80.8201C87.6109 79.8501 85.0309 78.8702 82.9209 76.5502C83.1409 76.8702 83.5309 77.0202 83.8909 77.1502C92.6009 80.3102 98.2609 83.0602 108.231 81.7302C108.671 81.6702 112.641 81.1202 113.071 80.9802C114.251 80.6202 115.751 80.1001 116.901 79.6401C117.081 79.5701 119.361 78.4902 119.361 78.3302C119.361 78.3302 119.301 73.2901 118.721 69.9002C118.151 66.5202 118.941 58.1902 119.421 57.8402C119.901 57.4902 121.851 57.8402 122.621 57.5802C123.361 57.3202 127.391 55.4702 129.431 52.2802Z" fill="#325343"/>
<path d="M120.411 79.7302C120.411 79.7302 121.441 91.2202 121.821 98.1102C122.201 105 121.821 117.79 121.821 117.79C121.821 117.79 120.971 98.8802 120.601 94.6602C120.241 90.4502 119.151 79.4702 119.151 79.4702L120.411 79.7302Z" fill="#325343"/>
<path d="M121.501 121.65C121.501 121.65 120.881 128.81 118.391 128.68C115.901 128.55 113.011 124.85 111.961 122.52C110.911 120.19 107.581 108.18 107.581 108.18C107.581 108.18 111.751 120.1 113.721 122.82C115.701 125.56 118.931 130.83 121.501 121.65Z" fill="#325343"/>
<path d="M103.821 92.2401C103.821 92.2401 99.5508 91.3401 98.0208 92.6201C96.4908 93.9001 94.3208 102 94.3208 102C93.3908 105.64 92.3808 109.25 91.3808 112.87C90.3408 116.64 89.2908 121.07 86.8008 124.14C85.6808 125.52 83.5908 127.57 81.6208 126.69C79.3208 125.67 77.6008 118.65 77.8508 114.31C77.8508 114.31 79.4508 122.67 80.5908 124.08C82.4508 126.35 85.0108 123.85 86.2108 122.2C88.9408 118.43 89.9408 113.1 91.0008 108.7C92.3208 103.21 93.6208 98.6901 95.7208 93.4401C96.6808 91.2201 101.131 83.8801 103.821 92.2401Z" fill="#325343"/>
<path d="M111.111 36.6401L111.211 37.1801L110.871 38.8401C110.871 38.8401 107.091 39.2301 104.221 38.3301C101.351 37.4401 99.5908 36.3001 99.5908 36.3001L100.011 33.9001C100.011 33.9001 104.771 35.5601 104.861 35.5901C104.951 35.6201 111.111 36.6401 111.111 36.6401Z" fill="#325343"/>
<path d="M95.8508 9.26011C94.3408 10.9801 93.1908 12.9801 92.6808 15.1401C91.7208 19.1901 91.6908 25.9901 91.6908 27.0101C91.6908 28.0301 92.2808 29.6201 92.2808 29.6201C92.2808 29.6201 94.5008 33.9101 95.9508 35.0601C97.4008 36.2101 99.4508 36.9001 99.4508 36.9001L100.541 33.9101C100.541 33.9101 96.1108 30.3201 95.3108 25.5301C94.5008 20.7301 96.8808 15.9601 96.8808 15.9601C96.8808 15.9601 99.0908 11.9601 102.281 10.1701C105.471 8.38011 109.221 7.87011 109.171 8.00011C109.131 8.13011 110.611 11.6101 114.111 15.0601C117.611 18.5101 122.601 21.5601 122.601 21.5601V26.1801C122.601 26.1801 121.641 31.0201 121.051 32.1701C120.451 33.3201 119.941 34.1301 119.941 34.1301L111.811 36.6401C111.811 36.6401 111.141 36.8601 111.151 36.9101C111.161 36.9601 110.871 38.8601 110.871 38.8601L110.971 39.6301C110.971 39.6301 120.631 41.4301 123.801 44.0101L125.561 45.9601C125.561 45.9601 128.931 40.3001 130.291 32.0001C131.311 25.8001 132.171 18.9401 129.281 13.0901C127.181 8.83011 123.311 5.88011 118.961 4.17011C118.071 3.82011 117.161 3.51011 116.241 3.24011C114.451 2.71011 112.641 2.53011 110.771 2.65011C110.001 2.70011 109.251 2.77011 108.481 2.90011C108.181 2.95011 107.651 2.97011 107.381 3.15011C107.071 3.36011 106.371 3.36011 106.001 3.44011C102.141 4.33011 98.5108 6.23011 95.8508 9.26011Z" fill="#325343"/>
<path d="M131.121 19.8801C130.881 19.8601 124.991 19.4201 120.981 16.8501C116.981 14.3001 110.191 3.1601 109.911 2.7001L111.521 2.6001C111.591 2.7101 118.081 13.2201 121.781 15.5901C125.471 17.9401 130.861 18.3701 130.921 18.3701L131.121 19.8801Z" fill="#9BD58B"/>
<path d="M130.141 15.1502C120.791 14.3302 117.221 3.97017 117.101 3.55017L118.711 4.04017C118.741 4.13017 121.211 12.8802 129.541 13.6202L130.141 15.1502Z" fill="#9BD58B"/>
<path d="M93.0008 14.0401C92.7808 14.0401 93.0008 13.8201 93.0508 13.6301C93.2608 12.9401 93.4808 12.7401 93.5908 12.5101L94.1708 12.3701C94.1408 12.2901 94.6108 12.2501 94.6008 12.2401C95.2908 11.9701 94.9308 12.2501 96.7108 11.0001C98.7308 9.58009 99.6608 8.52009 100.481 7.59009C100.851 7.17009 101.191 6.78009 101.591 6.41009C102.701 5.37009 103.531 4.17009 103.541 4.15009L104.241 3.80009L105.371 3.59009L104.931 4.29009C104.921 4.32009 103.921 6.28009 102.611 7.51009C102.261 7.83009 101.961 8.18009 101.601 8.59009C100.771 9.54009 99.7308 10.7201 97.5608 12.2401C96.3108 13.1101 93.8008 14.0401 93.0008 14.0401Z" fill="#9BD58B"/>
<path d="M123.671 43.6302L122.431 42.7902C125.661 38.0502 126.411 23.7102 126.421 23.5602L127.921 23.6402C127.891 24.2302 127.131 38.5402 123.671 43.6302Z" fill="#9BD58B"/>
<path d="M118.531 41.5102L117.351 40.5902C118.081 39.6502 118.591 36.6502 118.731 34.9902L120.221 35.1202C120.181 35.6002 119.771 39.9102 118.531 41.5102Z" fill="#9BD58B"/>
<path d="M119.456 24.8897C119.056 23.6897 117.623 23.3897 116.956 23.3897C116.456 23.3453 114.456 23.3897 114.456 24.8897C114.456 25.3897 115.817 26.3897 116.956 26.3897C117.956 26.3897 119.856 26.0897 119.456 24.8897Z" fill="#F6BA81"/>
<path d="M97.1722 18.4986C97.9665 17.8034 99.1249 18.1923 99.6049 18.4736C99.9836 18.6525 101.456 19.3886 100.772 20.6083C100.456 21.1708 99.1587 21.1137 98.339 20.6333C97.6191 20.2113 96.3779 19.1937 97.1722 18.4986Z" fill="#F6BA81"/>
</svg>
