<svg width="135" height="130" viewBox="0 0 135 130" fill="none" xmlns="http://www.w3.org/2000/svg">
<path d="M72.7457 26.2855C68.7057 27.3555 64.8357 29.0855 61.4557 31.5255C56.0357 35.4355 53.2357 40.7455 51.2557 47.0055C49.9257 51.2155 49.5457 56.4655 46.3456 59.7855C43.2457 63.0055 37.8857 63.7355 33.6856 64.5455C28.5257 65.5455 23.2556 66.2255 18.3156 68.1255C11.6156 70.7055 5.94565 75.4055 2.87565 81.9855C-1.27435 90.8655 0.175645 100.956 5.95565 108.786C10.8756 115.456 18.2356 120.006 26.0156 122.866C48.5557 131.135 77.5657 132.116 98.9157 120.076C99.6757 119.646 100.436 119.196 101.176 118.736C104.846 116.456 108.246 113.756 111.276 110.676C122.916 98.8455 128.716 81.2855 128.136 64.8355C127.586 49.3355 119.226 34.3355 104.436 28.4755C96.2957 25.2555 86.5457 24.1555 77.8756 25.2755C76.1556 25.5055 74.4357 25.8355 72.7457 26.2855Z" fill="#A0CFCE"/>
<path d="M72.5256 128.415C72.5256 128.415 72.9956 117.205 84.7356 110.395C96.4756 103.585 116.566 101.035 116.566 101.035C116.566 101.035 130.356 99.1654 134.096 89.2954C137.836 79.4254 127.626 77.7954 117.076 76.9854C106.526 76.1854 99.8856 77.1054 95.4556 76.9854C91.0256 76.8654 89.6656 75.1654 89.6656 75.1654C89.6656 75.1654 88.1356 72.9554 87.4556 72.9554C86.7756 72.9554 84.7356 75.0654 85.2456 76.9954C85.7556 78.9154 87.9656 83.3454 95.4556 83.6854C102.946 84.0254 111.966 83.1754 116.226 84.5354C120.486 85.8954 124.736 86.7454 121.676 89.9854C118.616 93.2154 106.356 92.0254 106.356 92.0254C93.3456 90.7554 79.5056 90.8654 66.9156 94.7354C61.2456 96.4754 55.7956 98.9354 50.7256 102.005C45.8856 104.945 40.5656 108.565 36.8756 112.895C34.0156 116.235 32.1756 120.355 30.7356 124.475C30.7456 124.465 45.1656 131.965 72.5256 128.415Z" fill="#F8E16C"/>
<path d="M85.9556 78.6754C85.9556 78.6754 88.4856 84.3454 97.2556 84.2554C99.2956 84.2354 101.326 84.2654 103.366 84.3154C105.466 84.3754 107.566 84.4654 109.656 84.6054C111.516 84.7254 113.376 84.8854 115.226 85.1154C116.546 85.2854 117.896 85.4654 119.176 85.8354C119.866 86.0354 120.476 86.4354 121.026 86.8954C121.466 87.2754 122.306 87.9154 122.246 88.5754C122.226 88.8054 122.246 89.2354 122.246 89.2354C122.246 89.2354 123.266 87.9754 122.246 86.6154C120.856 84.7654 118.386 84.0054 116.196 83.6054C114.586 83.3054 112.946 83.2054 111.326 83.0654C109.966 82.9654 108.596 82.8754 107.226 82.8754C104.656 82.8054 101.996 82.5554 99.4256 82.6154C97.3256 82.6654 96.0856 82.3054 94.0056 81.9554C92.2256 81.6554 90.5356 81.0054 89.2656 79.7054C87.9556 78.3654 86.9256 76.6754 85.9756 75.0754C85.5556 74.3754 85.1556 73.6554 84.7756 72.9354C84.6556 72.7154 84.3556 72.3354 84.3356 72.0754C84.3356 72.1154 84.7956 77.1454 85.9556 78.6754Z" fill="#325343"/>
<path d="M74.0656 128.205L72.5356 128.405C72.5356 128.405 71.5156 121.365 79.7756 113.705C82.4456 111.225 85.8356 109.545 89.1456 108.115C92.7856 106.545 96.5556 105.295 100.356 104.205C104.366 103.055 108.456 102.175 112.566 101.465C115.826 100.895 119.126 100.385 122.256 99.2854C123.486 98.8554 124.736 98.3954 125.866 97.7254C127.906 96.5154 129.806 94.9254 131.426 93.1954C132.466 92.0854 133.316 90.8454 133.956 89.4654C134.096 89.1754 134.226 88.8754 134.356 88.5754C134.356 88.5754 132.666 94.3354 127.386 97.9554C127.386 97.9554 121.816 101.145 112.786 102.465C112.786 102.465 88.2656 106.875 81.4956 114.195C74.7256 121.515 74.9956 126.165 74.9956 126.165C74.9956 126.165 74.7056 127.135 74.8756 128.075L74.0656 128.205Z" fill="#325343"/>
<path d="M25.4256 46.3054C22.6056 47.2854 19.9956 48.8254 17.8356 50.9454C17.3756 51.3954 16.9456 51.8654 16.5356 52.3654C8.98563 61.4554 9.14563 74.9154 16.4056 83.3254C16.5656 83.5054 16.7156 83.6854 16.8756 83.8654C19.0856 86.2954 22.1856 88.6054 25.3256 89.6954C26.8556 90.2254 31.8056 91.7554 36.2356 90.9054C40.6656 90.0554 44.8356 89.2054 44.8356 89.2054C44.8356 89.2054 50.0256 87.1654 53.2656 80.0154C56.4956 72.8654 55.6456 65.7154 54.7156 62.0554C53.7756 58.3954 50.2856 53.7154 50.2856 53.7154C50.2856 53.7154 50.6256 52.2654 48.1556 50.2254C41.9656 45.1054 32.9656 43.6954 25.4256 46.3054Z" fill="#325343"/>
<path d="M28.9656 90.7154C28.1256 90.7154 27.2656 90.1854 26.3256 89.5454L26.1156 89.4054C24.3756 88.3154 22.8456 86.9654 21.5756 85.3954C17.5956 80.4554 16.9156 73.8554 19.8256 68.5654C21.5156 65.4854 24.5856 63.5454 27.5556 61.6554C29.3256 60.5354 30.9956 59.4654 32.2956 58.2354C35.0556 55.5954 37.3456 49.6354 36.3356 45.2054L39.2556 45.7354C40.5656 51.4754 37.7756 57.1554 34.3756 60.4054C32.8656 61.8454 30.9856 63.0354 29.1756 64.1954C26.4056 65.9554 23.7856 67.6154 22.4656 70.0154C20.1756 74.1654 20.7656 79.5954 23.9256 83.5154C24.9856 84.8254 26.2556 85.9454 27.7156 86.8554C27.7856 86.9054 27.8956 86.9754 28.0156 87.0554C28.2356 87.2054 28.8856 87.6454 29.1356 87.7254C29.1356 87.7254 30.3956 89.3254 30.0856 89.4254L29.5556 90.6154C29.3556 90.6854 29.1656 90.7154 28.9656 90.7154Z" fill="#9BD58B"/>
<path d="M11.2356 63.6454L12.0656 60.3654C12.0656 60.3654 27.4256 54.9354 27.4256 45.6654L30.4256 45.1854C30.4256 56.5954 12.1856 63.5554 11.2356 63.6454Z" fill="#9BD58B"/>
<path d="M42.3556 88.2153C42.2556 87.9353 41.2956 83.9553 36.6556 83.3653C32.0156 82.7653 30.2256 85.4553 29.5056 86.7253C28.7856 88.0053 28.8656 89.6653 28.8656 89.6653L32.8656 90.6853L38.8656 90.4753L42.3956 89.9253C42.4056 89.9253 42.9956 90.0053 42.3556 88.2153Z" fill="#F8E16C"/>
<path d="M42.2756 67.4554C42.2056 67.0754 39.8957 64.0054 38.0657 64.0054C36.2357 64.0054 35.1057 64.8754 34.5557 67.2654C34.0057 69.6554 35.3457 72.3254 37.1757 74.2854C39.0057 76.2454 40.9156 77.1154 40.9156 77.1154C40.9156 77.1154 42.1457 77.4554 42.1057 77.7954C42.0657 78.1354 41.5056 78.0954 41.5056 78.5654C41.5056 79.0354 43.2457 81.4354 45.4657 82.7154C47.6757 83.9954 49.2357 82.8854 51.5357 79.7754C53.8357 76.6654 54.3557 71.9254 54.3557 68.2654C54.3557 64.6054 54.1057 63.0354 53.1257 60.0554C52.3757 57.7754 51.6756 56.1854 50.9557 55.4554C50.2357 54.7254 50.0157 54.5654 50.0157 54.5654C50.0157 54.5654 50.9057 57.0154 49.2957 59.9954C47.6757 62.9754 45.1857 64.8054 44.8957 65.8654C44.5957 66.9254 44.5357 68.3554 43.7657 68.6954C42.9957 69.0354 42.6156 69.3654 42.2756 67.4554Z" fill="#FFF5EE"/>
<path d="M38.6156 66.9853C38.2556 66.9553 36.4056 66.7253 36.9156 67.2453C37.4256 67.7653 37.7656 67.1553 38.7856 68.1353C39.8056 69.1153 40.4856 70.5153 40.4856 70.6853C40.4856 70.8553 40.6956 71.9653 41.5056 71.8753C42.3156 71.7853 41.8456 70.5953 41.6356 69.8353C41.4256 69.0653 40.1456 67.1153 38.6156 66.9853Z" fill="#325343"/>
<path d="M61.9356 92.4355C61.9356 92.4355 73.5956 93.9655 78.5356 92.3455C83.4756 90.7255 86.7056 87.8355 88.3256 86.8155C89.9456 85.7955 92.9256 84.7755 94.5356 84.8555C96.1556 84.9455 97.4256 85.4555 97.1756 86.0455C96.9156 86.6455 95.8156 87.1555 95.8156 87.1555C95.8156 87.1555 100.156 89.5355 97.6056 91.8355C95.0556 94.1355 94.9656 92.6855 91.4756 96.0955C87.9856 99.4955 87.5656 102.135 83.3056 103.665C79.0456 105.195 70.6256 105.965 68.6656 105.965C66.7056 105.965 64.4056 106.565 64.4056 106.565L61.6856 105.035L59.7256 98.1455L61.9356 92.4355Z" fill="#FFF5EE"/>
<path d="M63.5557 103.585C63.8157 103.585 72.8357 105.205 77.2557 104.185C80.2157 103.505 83.3857 102.725 85.9457 101.025C87.2757 100.135 88.1957 98.6154 89.2257 97.3954C90.7157 95.6354 92.1357 93.5954 94.2257 92.5654C95.0757 92.1454 95.9757 91.8054 96.8757 91.5154C97.0457 91.4654 98.0757 91.2954 98.1557 91.1654C98.1057 91.2554 97.4157 92.5254 95.6357 93.8954C94.9157 94.4454 94.0757 94.7754 93.3357 95.2854C92.5657 95.8154 91.9257 96.5154 91.3357 97.2354C89.7857 99.1454 88.3757 100.935 86.4057 102.445C82.6257 105.335 77.7857 106.285 73.1557 106.865C69.9557 107.265 66.7557 107.335 63.5457 107.515C63.5557 107.495 63.5557 103.585 63.5557 103.585Z" fill="#325343"/>
<path d="M96.0256 87.2854L94.9656 86.6654C94.9656 86.6654 96.8756 86.4554 97.1656 86.0454C97.1656 86.0454 96.4456 87.0754 96.0256 87.2854Z" fill="#325343"/>
<path d="M11.8956 115.005C11.8956 115.005 9.50558 103.495 14.9556 96.5154C20.4056 89.5354 27.6556 89.5354 30.7456 89.5354C33.8356 89.5354 39.6556 88.9054 43.6456 89.4354C47.6356 89.9654 51.8156 90.8154 54.3656 90.6854C56.9056 90.5554 60.0556 89.7954 60.6556 89.7954C61.2556 89.7954 63.3356 91.4154 64.3356 93.5354C65.3356 95.6654 65.6756 98.4154 65.6756 101.155C65.6756 103.895 66.1856 107.425 65.6756 108.485C65.1656 109.535 65.3756 109.885 64.3356 109.885C63.2956 109.885 59.2056 110.315 59.2056 110.315C59.2056 110.315 61.6756 114.055 61.1656 118.145C60.6556 122.235 58.9556 125.205 58.8656 126.485C58.7756 127.765 58.8656 129.375 58.8656 129.375C58.8656 129.375 32.2456 130.855 11.8956 115.005Z" fill="#4B7B3F"/>
<path d="M44.2155 104.925C44.2155 104.925 46.4255 107.395 49.4255 108.395C52.4255 109.395 57.5955 110.155 57.5955 110.155L59.2155 110.305C59.2155 110.305 62.3055 118.585 59.7255 122.345C57.1555 126.115 57.2155 129.305 57.2155 129.305H60.4055C60.4055 129.305 59.6855 126.625 60.7455 124.135C61.8055 121.645 61.9955 116.855 61.9955 114.685C61.9955 112.515 61.5555 110.075 61.5555 110.075C61.5555 110.075 64.4055 109.785 65.0755 109.715C65.7555 109.645 66.3955 106.555 66.3955 106.555C66.3955 106.555 66.7255 96.5554 64.3355 93.5354C64.3355 93.5354 66.1455 98.5554 65.4455 104.595C65.1855 106.825 64.5355 108.275 63.5555 108.385C62.5755 108.495 53.1255 107.595 50.3255 107.145C47.5255 106.695 44.2155 104.145 44.2155 104.145C44.2155 104.145 42.7055 102.755 44.2155 104.925Z" fill="#325343"/>
<path d="M67.8057 31.8454C67.8057 31.8454 66.3557 41.1054 68.9157 47.4954C71.4657 53.8754 78.6157 66.2954 79.9757 68.0854C81.3357 69.8754 83.4557 73.6354 84.9057 75.7954C86.3557 77.9554 87.5857 80.0554 89.2657 79.7254C90.9557 79.4054 93.1657 75.5754 94.6157 73.6954C96.0657 71.8254 101.596 61.1354 103.976 55.7954C106.356 50.4554 107.636 42.3754 107.546 39.4854C107.456 36.5954 106.966 29.1654 105.026 25.6354C103.086 22.1054 100.486 24.8454 100.486 24.8454L98.9557 34.2054L97.7657 42.0854C97.7657 42.0854 95.9757 24.5154 94.1057 23.8354C92.2357 23.1454 82.9557 22.9854 81.5957 23.8354C80.2357 24.6854 75.1257 35.1454 75.1257 35.1454L79.4757 36.7254C79.4757 36.7254 78.9557 30.5754 84.3357 28.9554C89.6357 27.3554 93.9957 28.6554 95.6857 33.7054C97.2857 38.4654 95.9857 41.7154 95.6857 42.0954C95.3857 42.4754 89.9357 47.6654 89.9357 47.6654C89.9357 47.6654 86.0257 49.0254 83.3857 48.2654C80.7457 47.4954 76.6657 45.1954 76.1557 45.0254C75.6357 44.8554 67.8057 31.8454 67.8057 31.8454Z" fill="#325343"/>
<path d="M103.086 22.1154C99.2056 16.7054 92.16 15.4999 86 15.8799C79.48 16.2799 73.8556 18.5954 70.4356 24.5554C69.8656 25.5454 69.3756 26.5854 68.9556 27.6454C63.9456 40.4154 74.3156 54.5454 74.3556 55.4154C74.3956 56.2954 87.1256 78.5854 89.5056 77.5454C91.8856 76.5054 98.9556 62.5654 98.9556 62.5654C98.9556 62.5654 106.576 47.9454 106.826 37.4254C106.946 32.1454 106.246 26.5054 103.086 22.1154ZM87.2956 42.0954C82.6656 42.0954 78.9056 38.3454 78.9056 33.7054C78.9056 29.0754 82.6556 25.3154 87.2956 25.3154C91.9256 25.3154 95.6856 29.0654 95.6856 33.7054C95.6856 38.3354 91.9256 42.0954 87.2956 42.0954Z" fill="#F6BA81"/>
<path d="M112.746 45.2854C112.746 45.2854 117.176 48.6054 119.216 49.2854C121.256 49.9654 122.106 49.2854 121.856 47.7554C121.606 46.2254 112.746 45.2854 112.746 45.2854Z" fill="#325343"/>
<path d="M111.716 29.7254C111.716 29.7254 117.246 29.8854 119.306 29.2654C121.366 28.6454 121.666 27.5954 120.576 26.4954C119.486 25.3854 111.716 29.7254 111.716 29.7254Z" fill="#325343"/>
<path d="M104.336 12.6755C104.336 12.6755 108.796 9.40547 110.036 7.64547C111.276 5.88547 110.876 4.87547 109.336 4.67547C107.796 4.47547 104.336 12.6755 104.336 12.6755Z" fill="#325343"/>
<path d="M84.0856 9.98541C84.0856 9.98541 84.6456 4.48541 84.1856 2.38541C83.7256 0.285415 82.6956 -0.0945851 81.5156 0.915415C80.3256 1.91541 84.0856 9.98541 84.0856 9.98541Z" fill="#325343"/>
<path d="M64.9756 21.5954C64.9756 21.5954 60.8056 17.9654 58.8156 17.1354C56.8256 16.3054 55.9256 16.9254 56.0756 18.4754C56.2156 20.0154 64.9756 21.5954 64.9756 21.5954Z" fill="#325343"/>
<path d="M61.6056 35.4554C61.6056 35.4554 56.1156 34.7654 54.0056 35.1854C51.8956 35.6054 51.4956 36.6154 52.4756 37.8254C53.4456 39.0254 61.6056 35.4554 61.6056 35.4554Z" fill="#325343"/>
<path d="M65.6356 51.5155C65.6356 51.5155 61.1456 54.7355 59.8756 56.4855C58.6156 58.2255 59.0056 59.2455 60.5456 59.4655C62.0856 59.6755 65.6356 51.5155 65.6356 51.5155Z" fill="#325343"/>
</svg>
