<svg width="174" height="127" viewBox="0 0 174 127" fill="none" xmlns="http://www.w3.org/2000/svg">
<path d="M79.3343 0.966307C68.7669 2.47594 58.7968 7.92798 55.4626 18.6909C53.8117 24.0126 54.2679 31.3978 49.5435 35.1773C47.5777 36.7413 45.1558 37.6318 42.7339 38.2943C33.2091 40.9118 23.4562 41.4439 15.0392 47.2109C6.92633 52.7716 1.6915 62.6874 0.692323 72.3642C-1.3712 92.2283 13.4753 107.401 30.5917 114.71C41.4849 119.358 53.638 125.234 65.6498 126.124C79.6275 127.156 93.2467 123.409 106.899 121.324C118.085 119.619 129.25 122.595 140.415 121.704C151.329 120.835 160.702 113.863 166.567 104.903C173.235 94.7263 174.593 82.3669 173.702 70.4636C172.996 61.08 169.608 51.4031 162.831 44.5501C158.823 40.4991 153.697 37.8056 148.256 36.2308C139.003 33.5482 126.383 35.8181 119.323 27.8138C114.892 22.7853 112.742 16.4753 109.016 11.0015C102.858 1.95463 90.5207 -0.619347 79.3343 0.966307Z" fill="#9BD58B"/>
<path d="M29.3428 33.9067C33.85 34.2759 38.6395 32.8097 42.1149 29.747C45.7424 26.554 48.9137 20.3852 46.6981 15.5956C44.8518 11.6206 39.7581 10.5454 35.8049 10.7952C30.0704 11.1536 24.5967 14.3032 21.143 18.8538C17.9934 23.0134 17.4287 29.1931 22.5983 31.9843C24.6075 33.0704 26.9426 33.7112 29.3428 33.9067Z" fill="#9BD58B"/>
<path d="M71.167 114.981C71.167 114.981 58.0365 109.616 57.298 109.616C56.5594 109.616 39.1824 102.035 39.1824 102.035L28.0937 97.0396C28.0937 97.0396 15.1587 88.905 17.005 79.2933C18.2105 73.0158 27.4855 66.999 33.7847 67.9005C34.7078 68.0308 35.5767 68.3783 36.4673 68.639C43.0379 70.5939 49.967 68.0634 53.6054 62.2855C57.9388 55.389 64.151 49.2527 71.2865 45.2777C77.1512 42.0087 86.0678 39.8257 91.1072 45.9077C92.367 47.4281 93.0186 49.3722 93.2358 51.3271C93.7572 56.171 91.5524 62.1878 94.4848 66.5537C96.3094 69.2689 99.8608 70.3224 103.141 70.2681C110.45 70.1595 116.966 67.8462 123.982 66.0107C129.847 64.4794 135.777 63.1761 141.794 62.4158C146.344 61.8402 152.166 61.1777 155.793 64.6423C157.781 66.5429 158.845 69.3775 158.584 72.1253C157.878 79.5431 147.181 85.2558 154.218 92.6084C156.314 94.8023 159.822 97.4631 159.334 100.906C159.106 102.568 158.03 104.001 156.825 105.152C155.359 106.554 153.632 108.378 151.775 109.247" stroke="#325343" stroke-miterlimit="10"/>
<path d="M138.46 118.794V121.921C138.46 121.921 141.066 121.921 144.487 121.096C147.908 120.271 148.234 119.999 148.234 119.999L149.027 119.673L148.234 119.521L144.14 115.318L142.033 115.97L138.46 118.794Z" fill="#FFF5EE"/>
<path d="M96.8741 123.094C96.8741 123.094 98.2426 111.93 99.8174 107.031C101.392 102.133 102.218 100.102 105.183 97.5066C108.137 94.9218 111.84 93.9009 114.425 91.9568C117.01 90.0128 119.975 88.1664 119.975 88.1664C119.975 88.1664 128.294 85.2124 131.161 84.6585C134.028 84.1046 134.398 83.4529 135.788 84.5607C137.178 85.6685 146.974 89.4589 147.528 89.5566C148.082 89.6544 155.011 92.4238 157.607 96.1164C160.192 99.8091 161.115 106.097 161.115 106.38C161.115 106.662 161.506 111.224 161.506 111.224C161.506 111.224 157.096 116.057 152.242 118.261C149.874 119.336 148.701 119.804 148.43 119.901C148.158 119.999 139.024 119.315 139.024 119.315L138.742 121.878C138.742 121.878 134.789 122.128 129.195 121.715C123.602 121.302 116.174 120.672 112.579 120.89C108.973 121.129 96.8741 123.094 96.8741 123.094Z" fill="#4B7B3F"/>
<path d="M116.695 86.331C116.695 86.331 116.793 90.7187 116.597 92.1958C116.402 93.6728 116.184 95.8449 117.194 97.8759C118.204 99.9068 119.508 100.461 119.508 100.461C119.508 100.461 127.545 95.6494 130.879 93.6185C134.202 91.5876 136.429 87.3302 136.429 87.3302C136.385 85.5925 136.374 83.8548 136.461 82.1171C136.591 79.4019 138.134 75.7419 140.404 74.1128C142.717 72.4511 145.215 70.507 145.671 69.1169C146.127 67.7267 147.061 64.0341 147.061 64.0341C147.061 64.0341 147.43 59.8745 145.584 57.6589C143.738 55.4433 141.055 50.6321 138.655 49.4374C136.255 48.2319 130.987 46.6679 130.987 46.6679C130.987 46.6679 108.897 44.2677 107.974 44.5392C107.051 44.8216 104.183 45.3755 104.183 45.3755L102.044 48.7097L102.141 52.6847C102.141 52.6847 101.034 66.3691 101.859 70.7134C102.695 75.0577 103.89 79.5865 107.778 82.4538C111.655 85.3101 115.761 85.864 116.695 86.331Z" fill="#FFF5EE"/>
<path d="M106.66 38.3596C106.377 38.4573 102.131 40.119 100.371 41.9653C98.612 43.8116 98.2427 45.2887 98.7966 48.1559C99.3505 51.0231 102.011 54.1835 102.033 53.9012C102.055 53.6188 104.249 51.4792 105.356 50.0999C106.464 48.7098 107.387 47.2327 107.387 47.2327C107.387 47.2327 113.947 50.3714 118.758 50.8385C123.57 51.3055 130.314 51.2077 130.314 51.2077C130.314 51.2077 129.478 54.0749 129.663 56.2905C129.847 58.5061 130.955 59.527 131.324 61.1018C131.694 62.6766 131.878 65.6741 133.268 64.6858C134.354 63.9038 134.919 62.7417 135.549 61.6122C136.364 60.146 137.558 58.9188 139.046 58.1694C140.078 57.6481 141.251 57.3114 142.413 57.4091C145.443 57.6807 146.909 62.2856 146.768 64.827C146.67 66.5538 145.454 68.2263 144.574 69.6491C144.183 70.279 143.792 70.8981 143.38 71.5063C143.282 71.6474 143.021 72.2231 142.858 72.2774C142.858 72.2774 145.443 71.3759 147.072 69.1495C148.701 66.9339 149.722 65.2831 150.091 63.5237C150.461 61.7534 149.624 60.7434 150.461 59.0817C151.297 57.42 151.482 53.5319 151.112 51.7833C150.743 50.0239 148.984 47.993 148.614 46.1467C148.245 44.3003 148.028 43.4641 147.072 41.7047C146.116 39.9452 144.943 37.7514 142.326 36.3395C139.709 34.9385 135.299 33.7547 135.299 33.7547C135.299 33.7547 132.714 33.4723 131.509 32.1799C130.303 30.8875 120.789 29.2258 116.163 30.9743C111.536 32.7338 110.526 35.6879 109.603 36.4264C108.68 37.1649 106.66 38.3596 106.66 38.3596Z" fill="#F6BA81"/>
<path d="M23.3585 111.093C23.1956 110.996 24.0319 106.021 25.965 102.513C27.9091 99.0054 29.3861 96.9636 31.6995 95.302C34.0128 93.6403 37.2818 92.1089 38.8566 91.6528C40.4314 91.1966 50.0974 89.763 54.9087 88.9268C59.7199 88.0905 67.7568 90.9577 72.655 93.271C77.5531 95.5843 81.8105 102.057 83.0052 105.565C84.2107 109.073 85.199 125.104 85.199 125.104C85.199 125.104 75.4136 126.396 70.8955 126.407C64.3357 126.418 55.7884 124.876 50.8251 123.116C45.8617 121.346 37.4882 117.816 34.5341 116.632C30.3636 114.96 23.3585 111.093 23.3585 111.093Z" fill="#F6BA81"/>
<path d="M27.453 68.5848C27.453 69.1387 28.1046 74.96 28.3762 77.7403C28.6477 80.5206 28.2784 85.0386 29.0278 87.6343C29.7772 90.23 32.3837 93.8901 33.1983 94.3679C33.1983 94.3679 33.8391 92.7497 37.8141 92.3587C41.7891 91.9786 45.6663 92.4347 47.2411 93.9118C48.8159 95.3888 50.9337 99.8308 51.4007 101.21C51.8677 102.6 51.8677 105.087 52.7909 105.001C53.714 104.903 62.9565 105.001 62.6849 105.001C62.4026 105.001 65.8237 105.554 64.2597 105.001C62.6849 104.447 53.5403 104.164 53.5403 104.164C53.5403 104.164 52.6171 101.764 51.5093 98.8968C50.4015 96.0296 48.186 92.2393 48.186 92.2393L47.3497 90.2843L53.0841 93.2601C53.0841 93.2601 56.6899 95.1065 60.1978 95.2042C63.7058 95.3019 67.1269 90.9903 67.1269 90.9903C67.1269 90.9903 73.1329 93.1733 74.8054 94.5526C74.8054 94.5526 75.9132 92.88 77.1079 88.7747C78.3134 84.6694 77.7595 76.3501 77.7595 76.3501C77.7595 76.3501 78.4111 73.8522 79.1497 71.2673C79.8882 68.6825 80.996 63.0458 80.7245 56.7575C80.4855 51.2837 79.7036 45.495 76.6843 40.8032C71.8187 33.2442 62.8587 30.1164 54.1267 30.7897C48.6856 31.2133 43.1249 32.636 38.4766 35.5684C34.2409 38.251 30.9393 43.3229 29.0712 47.8735C26.2583 54.6288 26.7905 61.4819 27.453 68.5848Z" fill="#325343"/>
<path d="M51.3898 84.4848C51.3898 84.4848 51.3898 90.0346 52.3129 92.2502C53.2361 94.4658 55.9187 96.7791 58.6881 98.0715C61.4576 99.3639 65.0633 99.8309 65.0633 99.8309C65.0633 99.8309 66.4535 97.8869 67.0943 95.4867C67.7459 93.0865 67.192 88.4598 67.0943 87.352C66.9965 86.2443 67.3984 85.7772 67.3984 85.7772C67.3984 85.7772 64.227 86.0596 62.283 86.0596C60.3389 86.0596 54.9846 84.4848 54.9846 84.4848L51.3789 82.91V84.4848H51.3898Z" fill="#FFF5EE"/>
<path d="M49.7282 62.1119C49.3481 62.1553 49.2612 69.7795 49.4459 72.3752C49.6305 74.96 50.0975 78.8481 50.0975 78.8481C50.0975 78.8481 53.5186 81.9 59.3399 82.91C65.1612 83.9309 69.234 83.7137 72.9266 81.042C76.6192 78.3594 77.5532 75.6117 78.3786 73.0268C79.2149 70.442 79.7688 67.8463 80.1381 65.5438C80.5073 63.2305 80.7897 59.4402 80.5073 57.3223C80.2249 55.2045 79.7688 51.1318 79.671 50.6648C79.5733 50.1977 77.4555 47.2437 77.4555 47.2437C77.4555 47.2437 58.9707 61.0041 49.7282 62.1119Z" fill="#FFF5EE"/>
<path d="M44.2652 64.2404C43.9828 64.0557 41.3111 59.5268 38.0747 60.0807C34.8382 60.6346 34.0997 62.9479 34.4689 66.369C34.8382 69.7902 36.8691 71.4518 39.1824 73.0266C41.4958 74.6014 44.363 74.0475 44.363 74.0475C44.363 74.0475 45.2861 72.0166 43.6244 69.6055C41.9628 67.2053 37.1515 63.7408 37.1515 63.7408C37.1515 63.7408 41.3546 65.4459 42.3755 66.2822C43.3964 67.1184 44.6453 68.4977 44.6453 68.4977L44.2652 64.2404Z" fill="#FFF5EE"/>
<path d="M49.348 122.562C49.348 122.562 49.5327 114.33 46.2093 109.529C42.886 104.718 40.8442 103.534 40.8442 103.534C40.8442 103.534 38.9978 102.872 40.1925 102.785C41.3872 102.698 42.8751 104.077 45.373 106.206C47.871 108.335 50.1843 113.689 50.6405 116.187C51.1075 118.685 51.3355 123.257 51.3355 123.257L49.348 122.562Z" fill="#325343"/>
<path d="M33.6218 92.956C30.6243 95.1824 27.453 97.6478 25.7479 101.036C24.564 103.393 24.2382 106.087 23.6952 108.639C23.6952 108.639 24.6401 104.164 26.9208 101.308C28.4739 99.3529 29.9726 97.3111 31.7429 95.5517C33.3177 93.9878 35.4355 93.4013 37.3036 92.2826C38.0638 91.8265 38.9435 91.2509 39.4648 90.5232C39.2911 90.306 38.9327 89.839 38.6286 89.7955C38.1181 89.7195 37.4991 90.2951 37.0538 90.5775C35.9569 91.2835 34.8817 92.0328 33.8282 92.8039C33.7521 92.8582 33.687 92.9017 33.6218 92.956Z" fill="#325343"/>
<path d="M35.3485 93.4122C35.3268 93.3688 33.8497 90.9686 33.6977 88.829L33.676 88.4706C33.5239 86.4831 33.3067 83.4747 33.5782 80.7921C33.8497 78.1096 33.7086 69.5948 33.7086 69.5079L35.0553 71.4846C35.0661 71.8104 35.4788 78.153 35.1965 80.9551C34.9358 83.4964 35.153 86.418 35.2942 88.3403L35.3159 88.6987C35.4463 90.469 36.554 92.6954 36.554 92.7063L35.3485 93.4122Z" fill="#9BD58B"/>
<path d="M42.3864 92.3369C42.3212 92.2283 42.0823 91.0445 41.9737 89.7195C41.876 88.4814 41.876 86.4179 41.9737 84.7127C42.0606 83.0836 42.1692 75.5029 42.1801 75.4269L43.7874 75.5246C43.7874 75.8396 43.6897 83.1379 43.6028 84.7996C43.5159 86.4179 43.5159 88.4271 43.6028 89.5892C43.6788 90.534 43.9069 92.4672 43.9069 92.4672L42.3864 92.3369Z" fill="#9BD58B"/>
<path d="M71.7427 92.793L70.2222 92.174C70.2222 92.1523 71.015 89.7738 71.1888 87.7537C71.3625 85.7553 71.1236 84.7453 71.1236 84.7236L70.9824 83.9959L72.6115 83.1271L72.7093 83.6158C72.7201 83.7135 73.0025 85.6902 72.807 87.884C72.6224 90.0453 71.7644 92.7062 71.7427 92.793Z" fill="#9BD58B"/>
<path d="M46.7957 54.8678C46.7197 54.8678 46.6437 54.8678 46.5677 54.8678C39.5843 54.8243 33.4915 52.2829 29.0929 47.6346L29.7554 46.0815C33.8499 50.3932 40.0621 53.1844 46.5894 53.2278C46.6654 53.2278 46.7306 53.2278 46.8066 53.2278C57.8519 53.2278 69.2773 46.8961 74.7945 38.251L75.9457 39.5217C70.1353 48.6338 58.3732 54.8678 46.7957 54.8678Z" fill="#9BD58B"/>
<path d="M47.393 44.2026C39.0738 44.2026 34.2625 39.6954 34.0562 39.489L35.1531 38.2401C35.2074 38.2944 40.9201 43.6704 50.5426 42.3562C60.3063 41.0204 68.0717 33.3854 68.1477 33.3093L69.7442 34.0044C69.4184 34.3302 61.0883 42.5626 50.7707 43.9745C49.576 44.1374 48.4574 44.2026 47.393 44.2026Z" fill="#9BD58B"/>
<path d="M63.456 63.9146C64.3557 63.9146 65.0851 63.1852 65.0851 62.2855C65.0851 61.3857 64.3557 60.6564 63.456 60.6564C62.5563 60.6564 61.8269 61.3857 61.8269 62.2855C61.8269 63.1852 62.5563 63.9146 63.456 63.9146Z" fill="#325343"/>
<path d="M77.4663 63.5671C78.33 63.5671 79.0302 62.8669 79.0302 62.0031C79.0302 61.1394 78.33 60.4392 77.4663 60.4392C76.6025 60.4392 75.9023 61.1394 75.9023 62.0031C75.9023 62.8669 76.6025 63.5671 77.4663 63.5671Z" fill="#325343"/>
<path d="M104.705 65.5112C105.568 65.5112 106.269 64.811 106.269 63.9472C106.269 63.0835 105.568 62.3833 104.705 62.3833C103.841 62.3833 103.141 63.0835 103.141 63.9472C103.141 64.811 103.841 65.5112 104.705 65.5112Z" fill="#325343"/>
<path d="M119.475 64.3273C120.339 64.3273 121.039 63.6271 121.039 62.7634C121.039 61.8997 120.339 61.1995 119.475 61.1995C118.611 61.1995 117.911 61.8997 117.911 62.7634C117.911 63.6271 118.611 64.3273 119.475 64.3273Z" fill="#325343"/>
<path d="M78.9541 56.0624C78.8998 56.0624 78.6717 55.9647 78.6391 55.9538C78.2156 55.8669 78.0418 55.7257 77.6182 55.6388C76.9774 55.5194 76.1629 55.704 75.6524 56.1167C75.5221 56.2253 75.3918 56.4425 75.218 56.4643C75.066 56.486 75.0117 56.3991 75.0442 56.247C75.1529 55.8235 75.609 55.552 76 55.4216C76.7168 55.1936 77.5205 55.1284 78.2481 55.3239C78.4653 55.3782 78.6717 55.4434 78.8672 55.5411C78.9758 55.5954 79.2365 55.7474 79.2147 55.8995C79.2039 56.0733 79.1061 56.0733 78.9541 56.0624Z" fill="#325343"/>
<path d="M62.8696 56.2579C62.8696 56.1493 64.8788 55.8452 65.954 55.943C67.0292 56.0516 67.4094 56.638 67.5831 56.6055C67.7569 56.5729 67.6917 56.2253 67.2356 55.9104C66.7903 55.5954 66.3016 55.5303 65.4979 55.3891C64.705 55.2479 63.1411 55.3239 63.1411 55.3239L62.4135 55.704L62.8696 56.2579Z" fill="#325343"/>
<path d="M72.4594 60.9605C72.3182 61.0583 71.3082 62.5353 71.3516 64.4685C71.3951 66.4126 71.5797 66.923 72.0033 67.7484C72.4268 68.5738 73.4803 69.8771 73.2522 70.1052C73.0242 70.3333 72.6006 70.2898 71.8186 70.2898C71.0367 70.2898 70.7108 70.1486 70.385 70.1921C70.0592 70.2355 70.4828 70.5179 71.0801 70.6591C71.6774 70.8003 72.3725 70.8003 73.0242 70.8003C73.6758 70.8003 74.0451 70.5179 74.0885 70.1486C74.132 69.7794 74.0451 69.3667 73.5781 68.8128C73.1111 68.2589 72.3291 67.238 72.0033 65.8587C71.6774 64.4794 71.8186 63.1761 72.101 62.5353C72.3834 61.8945 73.3934 59.9505 73.0676 60.1351C72.7418 60.3197 72.4594 60.9605 72.4594 60.9605Z" fill="#325343"/>
<path d="M63.9338 74.0367C63.8143 74.015 63.7057 74.015 63.6297 74.0801C63.3365 74.3516 63.8469 75.101 64.0424 75.2965C64.5311 75.7635 65.1828 76.0133 65.791 76.274C66.877 76.741 68.1369 77.0016 69.3424 76.8822C70.0158 76.817 72.7526 76.1762 72.1879 75.0684C71.9272 74.5688 71.2104 74.7752 70.7977 74.9164C70.1352 75.1445 69.5813 75.3508 68.8645 75.3943C68.0065 75.4377 67.1485 75.3508 66.3231 75.101C65.8235 74.949 65.3457 74.7318 64.8787 74.5037C64.7049 74.4059 64.2596 74.1127 63.9338 74.0367Z" fill="#325343"/>
<path d="M60.7192 65.3484C59.9372 65.2723 59.0792 65.457 58.4167 65.7719C58.004 65.9674 57.5913 66.2498 57.4284 66.6842C56.7767 68.3568 59.2747 69.0518 60.4368 69.0084C61.0233 68.9867 61.6206 68.8672 62.1093 68.5414C63.4669 67.6182 62.7718 66.0434 61.4577 65.533C61.2296 65.4352 60.9798 65.3809 60.7192 65.3484Z" fill="#F6BA81"/>
<path d="M78.9322 65.3157C78.3566 65.3917 77.6941 65.7827 77.3357 66.228C76.4343 67.3358 77.8353 68.2915 78.8888 68.2915C79.3992 68.2915 79.6273 68.1938 79.6273 68.1938C79.6273 68.1938 80.1378 65.522 80.1378 65.5112C80.1595 65.3917 79.1277 65.2831 79.0083 65.294C78.9865 65.3157 78.954 65.3157 78.9322 65.3157Z" fill="#F6BA81"/>
<path d="M132.399 121.911C132.399 121.911 131.661 118.87 131.867 115.47C132.073 112.071 131.313 109.236 130.824 108.889C130.14 108.4 129.88 108.661 129.575 109.28C128.837 110.8 129.315 113.157 129.065 114.71C128.815 116.306 128.859 117.088 128.576 117.783C128.294 118.479 128.022 118.685 127.74 118.479C127.349 118.185 127.316 117.002 127.273 116.567C127.002 114.33 127.099 112.06 126.839 109.812C126.687 108.508 126.763 107.118 126.437 105.815C126.198 104.838 125.872 103.328 124.612 103.589C124.243 103.665 123.917 104.099 123.798 104.457C123.635 104.924 123.602 105.728 123.57 106.217C123.504 107.183 123.504 111.484 123.504 111.767C123.504 112.049 123.852 115.438 123.646 116.545C123.439 117.653 123.439 118.283 123.027 117.936C122.614 117.588 121.43 110.93 121.43 110.93C121.289 110.138 121.137 109.334 120.985 108.541C120.713 107.151 120.615 105.229 119.486 104.219C119.117 103.893 118.617 103.73 118.15 103.914C117.14 104.305 117.422 105.533 117.553 106.358C117.694 107.194 118.389 112.462 118.737 113.917C119.084 115.372 119.497 118.012 119.225 118.283C119.041 118.468 118.693 117.164 118.671 117.078C117.911 114.352 116.869 111.68 115.772 109.073C115.478 108.378 115.37 107.433 114.816 106.912C114.371 106.499 113.838 106.032 113.274 106.478C113.089 106.619 112.98 107.064 112.937 107.281C112.796 108.204 113.295 109.953 113.513 110.844C113.795 111.951 114.783 116.893 114.783 117.316C114.783 117.729 115.511 120.9 115.511 120.9L122.82 121.281L132.399 121.911Z" fill="#FFF5EE"/>
<path d="M132.671 121.921C132.671 121.921 132.28 117.914 132.345 116.6C132.41 115.275 131.639 111.017 131.639 111.017C131.639 111.017 131.954 115.611 131.78 116.73C131.607 117.838 132.019 120.944 132.019 120.944L131.943 121.889L132.671 121.921Z" fill="#325343"/>
<path d="M126.187 104.881C126.187 104.881 126.459 106.369 126.48 106.76C126.502 107.14 126.773 111.973 126.773 111.973C126.773 111.973 126.98 115.622 127.067 116.111C127.143 116.6 127.121 118.5 127.925 118.544L128.196 118.468C128.196 118.468 127.751 118.261 127.555 117.512C127.36 116.763 127.262 114.308 127.262 114.308L127.002 110.605L126.741 107.064C126.719 107.053 126.502 105.272 126.187 104.881Z" fill="#325343"/>
<path d="M119.497 104.208C119.497 104.208 120.322 105.315 120.529 106.847C120.735 108.378 121.93 114.873 121.93 114.873C121.93 114.873 122.375 117.458 122.712 117.805C123.037 118.153 123.298 118.001 123.298 118.001C123.298 118.001 122.809 117.534 122.69 116.839C122.57 116.143 121.788 112.158 121.788 112.158L120.996 107.824C120.996 107.813 120.615 104.794 119.497 104.208Z" fill="#325343"/>
<path d="M149.831 119.326C149.831 119.326 146.268 119.695 144.379 119.326C142.489 118.957 138.145 118.022 138.145 118.022C138.145 118.022 137.678 109.573 138.145 106.478C138.612 103.382 139.806 97.2787 141.75 96.1274C143.694 94.9762 144.759 94.6504 144.759 94.6504C144.759 94.6504 141.555 94.9436 139.665 97.5719C137.775 100.211 136.907 105.544 136.765 106.651C136.624 107.759 136.765 113.32 136.765 113.32L137.048 119.489C137.048 119.489 137.004 119.88 137.189 119.977C137.374 120.075 141.816 120.39 141.816 120.39H147.159L149.831 119.326Z" fill="#325343"/>
<path d="M108.072 82.6494C108.072 82.6494 110.678 85.0279 113.719 85.9619C116.532 86.8199 116.478 87.4824 116.478 87.4824L116.695 89.6979C116.695 89.6979 116.445 90.393 121.854 88.7639C127.262 87.1348 129.956 84.9084 132.66 83.1815C135.375 81.4438 137.439 78.1205 137.526 77.925C137.612 77.7295 139.622 74.7211 140.002 74.417C140.382 74.1238 142.847 72.2557 142.847 72.2557C142.847 72.2557 140.697 72.9943 139.73 73.7545C138.764 74.5147 136.668 77.3602 136.668 77.3602C136.668 77.3602 129.109 83.692 124.938 84.8867C123.005 85.4406 116.065 88.1774 108.072 82.6494Z" fill="#325343"/>
<path d="M108.832 76.1437C107.279 76.1654 108.332 77.675 109.103 78.066C111.938 79.4562 115.587 79.3693 117.922 77.0668C119.106 75.9047 118.194 75.4269 116.999 75.6441C116.087 75.807 115.239 76.1763 114.36 76.4369C113.1 76.8062 111.764 76.665 110.493 76.4152C110.189 76.3609 109.429 76.1437 108.832 76.1437Z" fill="#325343"/>
<path d="M107.105 59.4075C107.105 59.4075 110.157 61.9054 109.95 64.4034C109.744 66.9013 108.984 70.5071 108.636 71.1261C108.289 71.7452 108.082 72.7878 109.125 72.8638C110.168 72.929 113.567 72.3099 113.002 72.2448C112.448 72.1796 110.363 72.3099 110.363 72.3099L109.321 72.3751C109.321 72.3751 108.625 72.2339 109.038 71.2673C109.451 70.3007 109.798 69.1929 110.146 67.5204C110.493 65.8587 110.7 62.948 110.005 61.8403C109.321 60.7216 107.105 59.4075 107.105 59.4075Z" fill="#325343"/>
<path d="M115.696 56.9095C115.696 56.9095 117.911 56.3556 119.573 56.3556C121.235 56.3556 122.549 57.1918 122.071 56.5619C121.582 55.9429 120.333 55.7257 119.432 55.5193C118.53 55.313 117.357 55.4541 116.586 55.8017C115.815 56.1492 115.142 57.1918 115.696 56.9095Z" fill="#325343"/>
<path d="M101.761 57.4634C102.044 57.3983 102.945 57.0507 103.836 57.1159C104.737 57.1811 106.258 58.5061 105.986 57.811C105.704 57.1159 104.531 56.1493 103.488 56.1493C102.446 56.1493 101.751 56.7683 101.751 56.7683V57.4634H101.761Z" fill="#325343"/>
<path d="M136.005 68.3566C136.407 66.8795 137.048 65.4351 137.938 64.1861C138.709 63.1109 140.176 61.4058 141.674 61.9379C142.12 62.09 142.402 62.5136 141.924 62.7959C141.598 62.9806 141.153 62.9806 140.795 63.0131C139.98 63.0892 139.252 63.567 138.709 64.1535C138.025 64.9029 137.504 65.8369 136.972 66.7058C136.678 67.1836 136.157 67.8027 136.005 68.3566Z" fill="#325343"/>
<path d="M100.252 51.6095L99.5894 50.4691L99.7088 50.3822C99.7088 50.3822 100.241 49.9695 100.795 48.8726C101.197 48.0689 101.523 43.9201 101.599 40.9226L102.902 40.1189C102.869 41.3679 102.685 48.1232 102.011 49.4808C101.294 50.8818 100.339 51.5552 100.252 51.6095Z" fill="#325343"/>
<path d="M150.83 50.8385C146.573 45.9186 142.293 43.8008 136.331 43.7465C133.659 43.703 131.009 44.1049 128.446 44.4633C124.395 45.0389 120.561 45.5819 116.619 44.713C111.569 43.6053 108.68 37.1758 108.658 37.1106L107.529 37.8274C107.648 38.1098 110.602 44.7674 116.326 46.0272C120.518 46.9503 124.645 46.3639 128.642 45.7991C131.161 45.4407 133.779 45.0714 136.331 45.0932C141.957 45.1366 147.192 48.1342 151.232 52.8042L151.286 52.8911C151.264 52.9128 151.21 51.6096 150.83 50.8385Z" fill="#325343"/>
<path d="M146.692 40.9335C146.649 40.9009 140.99 37.0671 136.483 36.535C133.572 36.1874 130.282 36.8499 127.099 37.4907C125.199 37.8708 123.407 38.2292 121.691 38.3813C116.858 38.8265 111.851 34.113 111.656 33.9175L112.633 32.9835C112.676 33.027 117.368 37.4038 121.582 37.0345C123.222 36.8825 124.982 36.5349 126.85 36.1548C130.129 35.5032 133.529 34.819 136.657 35.1774C141.544 35.7421 145.182 38.7505 145.367 38.8917L146.029 39.8257L146.692 40.9335Z" fill="#325343"/>
<path d="M123.722 33.3745C120.561 33.3745 117.271 30.7571 117.14 30.6485L118.063 30.453L118.769 30.3444C118.802 30.3661 121.376 32.2884 124.189 31.9952C127.154 31.6911 128.511 30.996 128.533 30.9851L130.26 31.4847C130.184 31.5282 127.577 33.0161 124.33 33.3528C124.135 33.3745 123.928 33.3745 123.722 33.3745Z" fill="#325343"/>
<path d="M150.081 60.4501L150.211 62.8612C149.44 59.9179 148.701 56.4968 142.967 54.4224C140.773 53.6296 138.275 53.2929 135.288 53.5319C134.854 53.5644 134.398 53.5862 133.942 53.6079C132.627 53.6731 130.89 53.8251 129.749 54.2052L129.956 52.7716C131.281 52.3263 132.465 52.3155 133.876 52.2503C134.322 52.2286 134.767 52.2069 135.191 52.1743C138.384 51.9136 141.088 52.2395 143.466 53.1517C146.898 54.4767 150.276 56.5403 150.081 60.4501Z" fill="#325343"/>
<path d="M136.722 59.9288C136.711 59.9288 136.124 59.7007 134.723 59.3532C133.627 59.0817 131.465 59.364 130.716 59.4944L130.108 58.1694C130.227 58.1476 133.453 57.6372 135.06 58.0282C136.57 58.4083 137.699 58.9622 137.732 58.9731L136.722 59.9288Z" fill="#325343"/>
<path d="M66.7359 94.3678C66.7359 94.3678 94.9193 94.5525 94.9302 94.5525C96.3312 94.5633 98.4164 94.5525 99.4047 95.7363C100.241 96.7463 100.024 98.6795 100.089 99.9176C100.1 100.2 99.9804 102.752 100.198 102.872C100.198 102.872 101.772 103.708 103.89 103.056C106.019 102.405 107.952 100.743 108.701 100.558C109.44 100.374 110.179 101.21 109.353 102.589C108.517 103.98 105.932 109.453 101.284 110.561C101.284 110.561 101.577 119.054 101.588 119.13C101.675 121.693 99.5568 123.127 97.2652 123.561C94.0613 124.18 90.4121 123.811 87.1431 123.854C83.6785 123.898 80.214 123.941 76.7494 123.985C74.599 124.007 72.4486 124.017 70.2982 124.028C68.289 124.05 66.0843 124.376 64.1185 123.952C63.5429 123.833 62.9564 123.605 62.5546 123.17C61.2187 121.704 61.5663 119.076 61.5011 117.284C61.3816 114.047 61.349 110.952 61.2947 107.716C61.2622 105.75 61.1101 103.306 61.0884 101.34C61.0667 99.5809 60.6431 97.3002 61.9898 95.9535C63.0542 94.8783 65.2263 94.357 66.7359 94.3678Z" fill="#325343"/>
<path d="M81.7019 0.727496C81.7019 0.727496 103.586 0.727496 107.485 0.80352C111.384 0.879545 116.554 1.32483 116.782 1.32483C117.01 1.32483 119.855 1.70495 120.377 3.72503C120.898 5.74511 120.898 21.1129 120.898 21.1129V25.5332C120.898 25.5332 120.518 28.5307 117.52 28.7588L103.803 29.1389L94.4849 29.215C94.4849 29.215 93.8333 34.6887 89.7931 37.1541C85.7529 39.6195 81.1046 39.0982 80.9525 38.7289C80.8005 38.3488 82.6794 37.8275 84.0261 35.058C85.3728 32.2885 84.7755 29.0629 84.7755 29.0629L77.955 28.9109C77.955 28.9109 74.3601 29.215 74.1321 26.7387C73.8497 23.676 73.9583 20.5482 73.9257 17.4746C73.8931 14.1838 73.6542 10.8931 73.7411 7.60228C73.7954 5.38671 73.7085 1.66151 76.5323 1.03159C78.8564 0.510283 81.7019 0.727496 81.7019 0.727496Z" fill="#325343"/>
<path d="M63.5972 94.6937C63.5972 94.6937 61.1209 95.9101 60.9906 97.9845C60.8603 100.059 61.5337 120.271 61.5337 120.271C61.5337 120.271 62.0441 122.627 63.0867 122.91C64.1293 123.192 64.6072 123.257 64.6072 123.257L88.5984 123.105L96.9176 122.877C96.9176 122.877 100.219 122.66 100.903 120.9C101.588 119.141 101.186 115.427 101.186 115.427L100.98 109.497C100.98 109.497 103.684 109.247 105.378 107.585C107.072 105.924 108.984 102.665 108.984 102.665C108.984 102.665 110.092 100.2 108.571 100.656C107.051 101.101 104.477 103.295 103.065 103.295C101.653 103.295 100.219 102.741 100.219 102.741L100.078 97.5066C100.078 97.5066 99.9043 95.2585 98.3078 94.8349C96.7113 94.4222 94.7346 94.4874 94.7346 94.4874L66.5513 94.281C66.5513 94.281 64.1511 94.4548 63.5972 94.6937Z" fill="#F8E16C"/>
<path d="M81.9408 0.379883L77.6074 0.445047C77.6074 0.445047 76.0435 0.445047 75.1855 1.34648C74.3166 2.24791 73.9365 3.87701 73.9691 4.46349C74.0017 5.04996 74.5881 26.0544 74.5881 26.0544C74.5881 26.0544 74.5881 27.651 75.6308 27.9985C76.6734 28.346 84.7103 28.0311 84.7103 28.0311C84.7103 28.0311 84.9926 33.5049 83.9174 35.1665C82.8422 36.8282 81.5933 38.1098 81.5933 38.1098C81.5933 38.1098 81.6584 38.6637 83.331 38.4573C84.9926 38.251 89.2283 37.4907 91.2375 35.0253C93.2467 32.56 94.2894 28.194 94.2894 28.194L115.576 27.9876C115.576 27.9876 120.083 27.8465 120.355 25.8698C120.637 23.8932 120.04 5.79935 120.04 5.79935C120.04 5.79935 120.55 3.51861 119.095 2.07414C117.64 0.629678 112.763 0.66226 112.763 0.66226L81.9408 0.379883Z" fill="#F6BA81"/>
<path d="M89.4565 16.4211C90.5721 16.4211 91.4766 15.5167 91.4766 14.4011C91.4766 13.2854 90.5721 12.381 89.4565 12.381C88.3408 12.381 87.4364 13.2854 87.4364 14.4011C87.4364 15.5167 88.3408 16.4211 89.4565 16.4211Z" fill="#4B7B3F"/>
<path d="M97.1566 16.4211C98.2722 16.4211 99.1766 15.5167 99.1766 14.4011C99.1766 13.2854 98.2722 12.381 97.1566 12.381C96.0409 12.381 95.1365 13.2854 95.1365 14.4011C95.1365 15.5167 96.0409 16.4211 97.1566 16.4211Z" fill="#4B7B3F"/>
<path d="M104.911 16.4211C106.027 16.4211 106.931 15.5167 106.931 14.4011C106.931 13.2854 106.027 12.381 104.911 12.381C103.795 12.381 102.891 13.2854 102.891 14.4011C102.891 15.5167 103.795 16.4211 104.911 16.4211Z" fill="#4B7B3F"/>
<path d="M74.4035 111.3C75.5192 111.3 76.4236 110.395 76.4236 109.28C76.4236 108.164 75.5192 107.26 74.4035 107.26C73.2878 107.26 72.3834 108.164 72.3834 109.28C72.3834 110.395 73.2878 111.3 74.4035 111.3Z" fill="#4B7B3F"/>
<path d="M82.1037 111.3C83.2194 111.3 84.1238 110.395 84.1238 109.28C84.1238 108.164 83.2194 107.26 82.1037 107.26C80.988 107.26 80.0836 108.164 80.0836 109.28C80.0836 110.395 80.988 111.3 82.1037 111.3Z" fill="#4B7B3F"/>
<path d="M89.8582 111.3C90.9739 111.3 91.8783 110.395 91.8783 109.28C91.8783 108.164 90.9739 107.26 89.8582 107.26C88.7426 107.26 87.8381 108.164 87.8381 109.28C87.8381 110.395 88.7426 111.3 89.8582 111.3Z" fill="#4B7B3F"/>
</svg>
